<svg xmlns="http://www.w3.org/2000/svg" id="Livello_1" data-name="Livello 1" viewBox="0 0 825.35 566.58"><defs><style>.cls-1{fill:#1a252f!important;stroke-width:0}</style></defs><path d="M821.75 410.03c-4.12-1.71-8.91-2.8-13.33-2.55-8.24.47-16.42 2.38-24.23-2.02-.94-.53-2.29-.67-3.39-.52-9.01 1.2-16.34-3.68-24.17-6.63-1.55-.58-2.72-2.15-4.24-3.41 5.16-6.89 12.42-7.56 19.46-8.35 7.2-.82 13.5-3.37 18.9-8.14 3.42-3.02 5.04-6.76 3.33-11.18-1.71-4.4-5.4-6.63-9.94-5.89-7.65 1.25-15.19 3.16-22.78 4.76-5.8 1.23-11.55 2.89-17.41 3.52-8.56.91-17.24.72-25.79 1.65-8.97.97-17.79 4.2-23.3 11.16-6.26 7.92-15.76 10.69-22.48 17.56-2.05-5.22-4.71-9.97-5.72-15.05-1.58-7.97-1.99-16.18-3-24.27-2.01-16.17-4.73-32.19-10.81-47.42-3.31-8.3-6.7-16.57-10.27-24.76-.98-2.24-2.43-4.51-4.26-6.08-5.03-4.32-10.04-8.82-15.66-12.27-22.21-13.67-44.67-26.94-67-40.42-8.91-5.38-15.19-13.28-19.77-22.38-3.51-6.98-7.02-13.56-15.54-15.66.29-3.56.56-6.82.84-10.26 5.65.24 10.69-.75 12.3-6.17 2.25-7.58 7.24-12.75 12.58-18.12 10.08-10.14 10.44-23.62 1.26-34.2 2.33-5.36 4.78-10.89 7.12-16.47.37-.88.27-1.96.39-2.95.65-5.17 1.41-10.33 1.89-15.52.13-1.39-.62-2.85-.94-4.29-.32-1.42-1.04-2.92-.83-4.26 2.26-14.21-2.77-24.52-15.64-31.62 4.3 1.38 8.6 2.77 12.67 4.08-3.35-5.39-9.29-5.68-15.15-5.87 1.42-9.42-1.17-14.97-7.79-17.24 6.1 6.24 6.85 8.52 5.45 14.8-1.44-3.19-2.48-7.89-5.24-11.09-6.86-7.96-15.67-13.8-26.19-15.08-7.49-.91-12.83-3.5-17.6-9.38-6.57-8.08-15.79-10.1-25.23-5.91-4.76 2.11-8.72 5.97-13.26 8.69-4.22 2.52-8.55 5.05-13.15 6.68-3.78 1.35-7.89-1.46-8.56-4.78-.74-3.63 1.56-7.19 5.86-7.92 2.63-.44 5.46.25 8.08.43-3.55-3.16-10.62-4.31-14.99-1.83-4.64 2.64-7.11 6.82-7.11 12.35 0 1.3-.18 3.27-.99 3.78-5.86 3.69-8.91 8.58-8.63 15.72.14 3.53-4.87 6.96-8.38 6.09-3.85-.96-4.88-4.21-3.96-7.44.85-2.96 2.89-5.58 4.73-8.95-1.76.91-3.66 1.45-4.95 2.64-5.93 5.48-8.83 11.86-9.76 20.4-.89 8.13.12 13.83 6.9 18.11-2.61 4.88-2.54 4.85.52 14.54 4.21 13.3.73 27.04 2.05 40.53.16 1.6-1.36 3.32-1.93 5.05-2.22 6.75-4.73 13.44-6.41 20.32-.8 3.29-.23 6.7-3.81 8.91-1.07.66-1.92 3.2-1.51 4.44 1.8 5.5 4.03 10.86 6.21 16.23 1 2.47 2.5 4.76 3.3 7.28.65 2.02.19 4.43.94 6.39 3.52 9.24 7.29 18.39 10.97 27.55-2.81 3.54-6.16 7.85-9.64 12.05-.77.93-1.89 1.89-3.01 2.15-11.15 2.61-22.23 6.47-33.52 7.3-21.92 1.61-38.17 11.34-49.7 29.65-4.37 6.94-8.97 13.52-16.71 17.37-1.86.92-3.09 3.83-3.84 6.08-1.05 3.12-1.24 6.52-2.07 9.73-.38 1.46-1.04 3.26-2.17 4.04-9.06 6.22-16.02 14.42-22.8 22.93-6.02 7.56-10.95 16.44-21.09 19.78-1.35.44-2.22 2.3-3.32 3.51l.29-1.34c-5.47-1.34-10.95-2.63-16.41-4.04-2.12-.55-4.62-.86-6.15-2.2-5.79-5.02-11.87-9.89-16.71-15.76-12.69-15.41-24.8-31.31-37.09-47.06-.79-1.01-1.22-2.37-1.54-3.64-2.92-11.57-9.58-20.5-19.66-26.6-12.78-7.73-26.46-14.12-35.98-26.29-2.46-3.14-5.23-6.03-7.77-9.1-2.62-3.16-5.61-3.23-8.85-1.19-3.52 2.23-5.38 5.37-4.93 9.66.9 8.49 5.33 14.84 12.04 19.81 3.73 2.76 7.25 5.71 8.22 10.54-5.86 3.35-19.16.63-26.93-1.23-10.64-2.55-21.01-6.45-31.22-10.47-5.32-2.1-10.1-5.64-15.03-8.67-4.54-2.79-9.33-5.03-14.59-3.13-2.36.85-4.98 3.08-5.83 5.31-.6 1.57 1.49 4.26 2.57 6.34.47.9 1.41 1.55 2.22 2.4-.65.36-.92.62-1.21.65-4.73.53-9.25 1.81-9.9 7.32-.61 5.24 4.43 6.01 7.72 7.9 10.91 6.25 22.5 11.41 31.27 20.92 1.74 1.89 4.29 3.1 6.6 4.38 7.82 4.36 15.72 8.59 23.56 12.92 4.75 2.63 9.18 6.18 14.24 7.85 11.03 3.64 22.37 6.33 33.58 9.43 4.83 1.34 8.75 3.79 11.01 8.55 3.85 8.1 8.22 15.96 11.71 24.2 8.04 18.95 15.58 38.12 23.6 57.08 1.55 3.66 2.24 6.87 1.39 10.86-2.97 13.92 1.15 24.74 12.8 31.82 5.02 3.05 7.91 7.05 10.61 11.94 4.81 8.7 11.75 14.29 22.57 13.46 2.2-.17 4.87.88 6.74 2.19 10.87 7.61 21.54 6.98 32.7.46 7.14-4.17 14.64-7.81 22.26-11.02 6.55-2.76 11.09-7.03 14-13.43.81-1.79 2.37-3.56 4.05-4.61 10.24-6.43 20.6-12.65 30.94-18.91.21-.13.62.06 1.02.12.33 1.94.61 3.91 1 5.86 3.94 19.97 6.76 39.99 5.11 60.47-.5 6.22.53 12.59 1.16 18.86.16 1.62 1.47 3.12 2.87 5.9 0-15.3.16-28.9-.07-42.48-.11-6.48-.7-12.98-1.49-19.42-1.96-15.84-4.91-31.6-6.12-47.5-2.51-32.79-.76-65.57 2.2-98.29.09-.97-.12-1.97-.19-2.95l-1.51-.12c-1.37 8.45-2.73 16.89-4.1 25.34l-1.17.09c-2.21-17.97-4.41-35.93-6.62-53.9-.24 5.72-.85 11.51-.12 17.13 2.05 15.99 4.67 31.9 7 47.86.36 2.43.38 4.91.55 7.36-10.46-15.94-15.35-33.52-18.6-51.7-.49 1.97-.59 3.82-.29 5.59 2.6 15.43 7.09 30.23 14.28 44.22 1.99 3.86 3.8 8.3 3.95 12.54.63 17.79.72 35.6.68 53.4 0 2.67-.92 6.4-2.8 7.82-8.79 6.65-18.06 12.66-27.16 18.9-.37-.41-.73-.82-1.1-1.22 2.22-6.85 4.82-13.61 6.55-20.58 1.73-6.99 2.6-14.19 3.85-21.3-.55-.12-1.1-.23-1.65-.35-.2.38-.58.75-.58 1.13-.04 18.04-7.49 33.79-15.52 49.26-1.83 3.51-4.75 7.14-8.11 9.04-10.11 5.7-20.63 10.7-31.11 15.73-8.81 4.23-16.97 2.96-23.37-3.23 29.02-16.11 48.06-38.35 45.17-74.22 5.98 14.09 6.67 28.47 5.49 43.08 5.11-21.93-1.33-42.09-10.61-61.81.59-.21 1.17-.42 1.76-.63 3.1 4.93 6.2 9.87 9.29 14.8.22-1.7-.05-3.27-.83-4.53-6.54-10.6-12.86-21.41-24.81-27.11-1.92-.92-3.82-2.12-5.34-3.59-3.4-3.31-2.49-6.13 1.62-8.63 4.02-2.45 8.09-5.19 11.23-8.64 10.72-11.76 18.97-25.86 33.06-34.44 1.03-.62 1.28-2.76 1.6-4.25 1.11-5.24.91-10.7 5.79-14.77 5.05-4.22 9.54-9.17 13.86-14.15 4.03-4.64 7.13-10.11 11.35-14.54 4.21-4.42 9.31-8 14.02-11.96l1.06 1.09c-6.94 18.3-11.38 37.09-11.49 56.72 2.17-17.97 5.51-35.66 11.55-52.81 1.45-4.1 3.5-6.87 8.11-7.53 9.7-1.38 19.41-2.79 29.03-4.6 6.1-1.15 12.06-3.04 18.62-4.73-9.63 20.92-17.32 42.27-34.17 58.83 4.73 3.3 9.41 2.69 13.48 1.43 7.58-2.34 14.88-5.57 22.27-8.5 5.13-2.03 8.3-.89 9.34 4.43.64 3.25.12 6.88-.57 10.2-.67 3.21-2 6.34-3.44 9.31-2.37 4.91-1.79 8.77 1.87 13.14 5.16 6.16 9.69 13.08 2.64 21.11-.62.7-.78 1.82-1.14 2.74-4.5 11.42-3.4 23.25-2.33 35.02 1.16 12.83 1.95 25.58-2.65 38-.4 1.08-.12 2.42-.15 3.64 1.35-.32 3.11-.22 3.96-1.05 4.03-3.92 8.08-7.88 11.62-12.25 4.63-5.71 8.77-11.81 13.71-18.55 1.71 5.67 3.26 10.21 4.39 14.86.43 1.78.38 3.95-.23 5.66-7.22 20.3-8.71 41.13-6.34 62.4.67 6.08 1.39 12.29.85 18.33-.44 4.83-2.97 9.43-4.18 14.23-1.02 4.04-.27 8.02.9 11.54 2.2-8.19 4.6-16.15 6.42-24.24.86-3.84 1.62-8.17.72-11.86-3.34-13.71-2.17-27.38-1.5-41.2.62-12.86 4.81-23.96 12.49-33.99 2.05-2.68 4.21-5.27 7.04-8.81 1.73 5.38 2.83 9.55 4.41 13.53 3.34 8.44 6.75 16.86 10.55 25.11.98 2.13 3.49 3.56 5.93 5.92.41-1.86.7-2.46.64-3.04-1.19-12.86 1.74-25.07 5.28-37.32 3.03-10.47 6.84-21.19 7.06-31.87.2-9.61 2.8-15.99 10.51-20.99 8.76-5.68 11.37-13.65 10.1-24.04s-1.01-21.01 3.98-30.79c4.36-8.53 11.84-9.75 18.48-2.9 3.71 3.83 6.72 8.46 10.86 11.69 4.61 3.6 9.98 6.35 15.31 8.86 3.12 1.47 4.83-.22 4.72-3.94-.53-18.96-.91-37.92-1.32-56.88-.05-2.05 0-4.11 0-6.64 3.26 1.57 5.59 2.7 7.93 3.83-.15-.29-.22-.66-.45-.84-2.42-1.95-6.17-3.44-7-5.91-1.21-3.57-.31-7.86-.31-12.32 1.19.57 2.6.96 3.68 1.79 19.93 15.2 42.3 26.34 63.95 38.69 7.75 4.42 15.19 9.49 20.11 16.02-4.89 1.55-9.71 3.23-14.62 4.52-1.41.37-3.12-.38-4.69-.61-.72 1.84-1.02 4.04-2.23 5.45-8.45 9.82-17.78 18.96-25.52 29.3-13.98 18.67-22.59 39.89-26.72 62.97-4.39-18.1-2.35-36.1.22-54.19-1.97 7.48-3.61 15.02-4.19 22.65-.59 7.78-.61 15.67-.01 23.44.59 7.58 2.28 15.08 3.49 22.61-8.94-16.52-12.29-34.51-14.58-52.84-.6 1.55-.81 3.02-.72 4.47 1.25 19.04 5.16 37.47 13.6 54.69 3.98 8.1 7.33 16.14 6.9 25.5-.17 3.65 1.52 7.4 2.39 11.09 1.11 4.74 2.25 9.48 3.37 14.23l-.13-.12c.82 1.31 2.25 2.58 2.34 3.94.37 5.63.05 11.31.55 16.92.43 4.87 1.68 9.67 2.47 14.52.33 2.03.86 4.19.53 6.15-1.31 7.83-3.79 15.56-4.17 23.41-.35 7.22 1.42 14.54-1.98 21.49-.12.24.37.79.98 1.99 1.37-1.88 3.09-3.25 3.43-4.91.83-4 1.65-8.18 1.35-12.21-.69-9.16 1.47-17.7 4.83-26.37 2.16 5.56 3.43 11.3 5.16 16.9 1.5 4.83 2.45 10.41 5.54 14.05 6.12 7.18 13.23 13.64 20.51 19.7 14.79 12.29 27.31 12.92 44.03 3.42 3.65-2.07 7.71-3.82 11.8-4.68 13.74-2.9 23.26-10.04 26.68-24.22.48-1.98 1.77-3.87 3.03-5.55 10.77-14.38 13.07-29.82 6.22-46.56-.8-1.96-1.72-4.33-1.31-6.24 1.58-7.39 3.67-14.67 5.63-22.21 3.04.91 5.24 2.11 7.44 2.1 4.37 0 9.78.8 12.89-1.38 6.14-4.32 12.51-4.82 19.36-4.91 3.13-.04 7.15.65 9.22-.96 5.4-4.2 11.2-6.59 17.81-7.55.78-.11 1.48-.74 2.25-1.04 9.99-3.9 18.7-10.79 29.67-12.4 2.95-.43 6.03-1.05 8.63-2.39 2.12-1.09 4.94-3.32 5.05-5.18.14-2.3-1.67-6.05-3.6-6.85ZM8.25 237.21c3.65-4.88 7.87-4.46 12.1-2.98 2.47.86 4.81 2.21 7.02 3.64 4.34 2.8 8.55 5.82 12.88 8.79.17 2.65.36 5.61.63 9.86-2.42-2.57-4.31-4.29-5.87-6.27-5.36-6.81-10.57-13.51-21.04-9.84-1.32.46-3.67-1.99-5.72-3.2m-5.56 16.32c3.26-6.33 8.45-6.92 12.5-1.51 3.94 5.26 7.9 10.51 11.18 16.63-7.89-5.04-15.79-10.08-23.68-15.12m37.48 25.23c-5.46-5.82-10.31-12.21-15.39-18.38-.63-.77-1.76-1.67-1.68-2.41.74-6.59-2.76-10.46-9.33-13.1 4.29-3.86 7.85-3.45 10.91-1.18 3.17 2.36 5.84 5.39 8.61 8.26 2.35 2.43 3.46 6.05 7.38 6.99.93.22 1.75 1.94 2.15 3.13 2.49 7.36 4.84 14.77 7.76 23.78-4.05-2.7-7.82-4.34-10.4-7.1Zm121.67 113.71c-8.97-19.45-16.71-39.46-25.12-59.18-1.68-3.94-3.99-7.6-6.28-11.88 1.68.28 2.92.57 4.18.69 1.08.1 2.18.02 3.28.02.13-.42.25-.84.38-1.27-9.09-3.17-18.1-6.61-27.31-9.42-8.4-2.56-17.02-4.39-25.52-6.63-3.31-.87-6.03-2.27-8.71-4.95-3.53-3.54-8.55-5.64-13.02-8.21-9.65-5.53-13.29-14.62-16.28-24.73-1.14-3.87-1.34-6.67-.53-10.45.47-2.18-2.07-5.01-3.53-8.14 2.08-2.34 4.79-1.99 7.31.72 1.22 1.31 2.48 2.92 2.91 4.6 2.27 9.01 8 16.44 11.41 24.8 3.76-3.53 11.35.68 16.03 9.22.28-4.72-2.21-9.02-6.12-10.56q-8.01-3.14-14.39-14.23c3.07 1.7 6.14 3.4 9.4 5.2 2.27-3.44 2.53.85 3.7 2.94 1.65-3.84 1.06-5.82-2.96-6.68-3.38-.73-7.15-1.47-9.75-3.48-2.37-1.84-3.39-5.4-5.01-8.2l1.34-1.4c5.4 1.83 10.81 3.67 16.54 5.61-.59 1.62-1.12 3.05-1.65 4.49 2.99-5.43 7.58-3.97 12.19-3.29 8.11 1.19 16.22 1.6 23.01-2.45-1.96-1.81-4.02-3.6-5.96-5.52-2.94-2.91-5.56-6.19-8.73-8.8-4.8-3.95-8.51-8.56-9.68-14.67-.46-2.39-.12-5.42 1.03-7.51 2.06-3.75 5.12-3.68 8.07-.51 3.75 4.01 7.78 7.8 11.2 12.07 6.75 8.42 15.66 13.8 24.97 18.74 14.1 7.48 24.05 18.09 26.78 34.5.54 3.26 2.63 6.25 5.02 9.09v-3.16c9.22 11.92 17.76 24.1 27.51 35.2 8.43 9.6 17.45 19.06 27.63 26.67 17.33 12.96 18.47 29.18 12.48 47.58-4.03 12.38-11.01 22.61-22.83 29.09-3.93 2.15-6.45 1.97-8.95-2.03-6.86-10.98-13.99-21.78-21.48-33.36 5.98 14.1 14.35 25.89 22.66 37.76-3.28 3.26-4.73.2-5.94-1.89-6.87-11.94-13.81-23.84-20.27-36-4.25-8.01-7.73-16.43-11.91-24.49 8.31 22.32 18.85 43.53 32.28 63.54-4.95 3.02-7.55-.06-9.45-3.36-6.85-11.92-14.21-23.64-19.95-36.09Zm76.29-25.28c.1 3.54 2.22 6.99 2.61 10.56.71 6.59 1.37 13.28 1 19.87-.36 6.34-2.05 12.61-2.25 19.2 1.33-5.38 3.18-10.7 3.86-16.16.72-5.74.88-11.68.26-17.43-.61-5.65-2.49-11.15-3.54-16.79 6.08 9.35 7.02 20.06 7.44 30.91l1.44-.21c-.38-5.17-.39-10.4-1.25-15.48-.87-5.13-2.61-10.12-4.12-15.75 6.35 2.77 11 6.17 12.86 12.71 3.81 13.39 5.88 26.74 3.43 40.79-3.16 18.1-14.39 30.29-27.91 41.03-3.61 2.87-7.66 5.31-11.81 7.35-13.47 6.62-24.99 1.86-30.76-12.64 8.45 2.64 16.65 3.1 24.45-1.69l-.19-.21c-3.67.68-7.32 1.65-11.02 1.95-3.03.25-6.12-.29-9.29-1.06 18.21-1.01 31.48-10.26 41.82-24.46-3.18 2.93-6.19 6.07-9.58 8.74-7.49 5.92-15.52 10.81-25.21 12.35-20.51 3.26-36.05-12.67-31.27-33.63 1.02 3.06 2.92 6.13 2.85 9.16-.12 5.25 2.7 7.66 6.83 8.99 13.23 4.27 25.01.3 35.36-7.78 16.08-12.55 24.75-41.3 18.65-60.73-1-3.19-3.22-6.14-5.39-8.78-2.08-2.54-4.82-4.53-7.26-6.76.17-.48.34-.96.51-1.43 3.39 1.3 7.28 1.95 10.06 4.06 4.18 3.18 7.24 7.36 7.4 13.31Zm306.71-244.52c-2.44-1.77-4.5-3.27-6.96-5.05h9.51c-1.02 2.02-1.85 3.66-2.55 5.05M531.3 109.8c5.34 1.56 10.55 3.09 16.53 4.83-5.76 2.91-10.46 1.31-16.53-4.83m-13.54 5.57c10 3 11 14 5 21h-3c-2-7 4-16-2-21m-2-10v1-2c8 6 15 13 21 20 2 1-5 5-6 2-6-6-9-15-15-21m19.03-38.28c3.7 5.42 5.66 12.02 7.71 18.6-6.02-11.07-12.81-20.75-28.29-20.41 8.19-3.6 17.12-3.25 20.58 1.81m-5.37-5.71c11.15 1.7 15.28 7.76 13.78 18.76-1.41-8.1-4.79-14.7-13.78-18.76m-7.55 34.61c3.55 3.86 7.11 7.72 10.66 11.59-.03.12-.07.25-.1.37-3.85-3.62-7.7-7.23-11.55-10.85.33-.37.66-.74 1-1.11Zm5.71-.84c6.59.89 8.98 6.56 13.15 9.75-6.04-.77-10.53-3.56-13.15-9.75m-8.1 3.18c4.51 5.77 8.51 10.88 12.51 15.98-6.15-3.33-10.78-7.99-12.51-15.98m22.26 3.94h9.63c-2.47 5.05-5.6 5.24-9.63 0m-8.98-12.11c.86 1.96 1.48 3.36 2.1 4.76-5.81-4.14-6.34-10.83-8.42-16.98 7.52 6.41 10.66 18.62 23.89 17.18-10.44-1.34-14.18-9.64-18.98-17.09-2.16-3.35-5.69-5.82-8.65-8.74 6.55 1.81 11.14 6.31 13.92 12.27 2.55 5.47 6.73 8.33 11.95 10.53 1.58.67 2.7 2.46 4.57 4.27-7.11 2.44-9.31 1.68-20.39-6.21Zm12.71-29.23c4.4 7.03 5.7 14.74 5.27 22-2.05-6.31-3.42-13.84-6.85-20.27-3.98-7.45-11.89-8.79-21.21-8.16 8.98-4.63 17.63-1.8 22.79 6.43m-29.5-8.32c1.78-5.22 3.79-11.12 5.49-16.12 2.24 6.37.08 12.85-5.49 16.12m-27.15-10.53c4.73-7.27 4.82-15.02 2.97-23.33 6.08 6.76 4.73 17.61-2.97 23.33m-5.76-32.77c9.27 9.09 10.75 22.4 2.96 32.02 2.31-10.1 1.88-19.33-3.77-27.43-6.45-9.25-15.96-8.55-26.42-6.12 8.48-7.17 19.31-6.24 27.24 1.54Zm-4.09 3.97c4.53 5.6 7.8 12.59 3.1 20.74-2.82-17.34-9.59-23.84-26.35-24.05 9.19-2.53 17.47-3.82 23.24 3.31Zm-19.59-.77c7.32-.93 13.18 3.04 16.77 9.54 4.42 8 3.7 15.11-2.36 23.41 2.78-12.58.2-20.5-7.48-25.97-8.9-6.33-17.79-2.55-26.74-.25l-.27-1.17c6.69-1.92 13.27-4.68 20.09-5.55Zm10.82 26.07c-2.65-10.73-7.37-18.38-18.57-19.59 12.13-2.7 20.8 5.88 18.57 19.59m-49.17-28.5c-.2 7.45 3.33 11.23 10.91 11.18 3.62-.02 7.29-.42 10.84-1.13 12.69-2.57 25.58 7.44 24.16 19.12-2.46-3.11-4.75-6.5-7.54-9.42-5.16-5.4-11.89-6.01-18.9-5.59-3.81.22-7.66.35-11.46.08-8.21-.58-11.8-7.12-8-14.23Zm-28.97 24.88c1.41 6.86 5.19 11.86 11.78 11.12 5.35-.6 10.39-3.99 15.09-5.95-4.5 8.06-14.05 12.23-21.48 8.92-5.26-2.34-7.69-8.14-5.4-14.1Zm30.81 2.32c4.15-4.69 11.31-5.57 15.95-1.96-5.1.63-10.95 1.35-15.95 1.96m29.9 15.06c-9 0-16-8-23-13 10-1 17 7 23 13m-26-13c2 0 1 2 3 2-5 2-8 8-14 8 6-1 5-9 11-10m-28 21c6 5 11-3 15-6 0 4-4 7-6 10-3 2-9 1-9-4m8 8c-5 9-10-3-13-5 5 0 8 4 13 5m-13.42-12.58c8.22 2.79 15.01.23 20.92-5.6-5.15 8.78-12.85 10.84-20.92 5.6m-4.59-13.23c3.71 8.95 9.64 12.87 19.41 9.27-5.08 3.33-10.04 4-15.01.78-3.51-2.28-5.6-5.29-4.4-10.05m-1.86 11.43c3.49 2.38 7.04 4.82 10.2 6.97-5.82.96-9.21-1.24-10.2-6.97m5.88 14.38c1 6 11 10 8 13-6 6-7-7-8-13m.4 64.29c3.56-7.78 5.24-15.71 4.24-24.15-.94-7.9 4.17-11.67 9.82-15.27 5.32-3.39 9.85-.89 14.37 1.7 5.18 2.97 9.35 6.77 11.19 12.78 1.47 4.8 1.59 9.18-.5 14-2.62 6.02-4.22 12.48-6.4 18.71-.64 1.83-1.37 3.93-2.73 5.17-5.22 4.79-10.49 9.59-16.16 13.81-4.81 3.58-10.26 6.21-16.97 4.72-2.46-11.05-1.4-21.56 3.14-31.47m-8.4 21.71c1-1 1 0 1 1 0 5 1 10 5 10 13 2 24-7 32-16-8 11-19 21-34 18-5-1-7-8-4-13m48 18c5 2 0 7-1 9h-4c2-3 6-5 5-9m19.52-7.42c.29-.36.58-.71.87-1.07 6.03 4.89 12.42 9.32 17.76 15.11-.02 0-.03-.01-.05-.02.83 1.02 1.66 2.04 2.47 3.08.05.06-.09.27-.4 1.13-3.11-1.9-6.1-3.72-9.44-5.76-.08.93-.16 1.81-.25 2.8-3.48.18-5.05-6.22-9.97-3.04-.74-.68-1.81-1.67-3.72-3.43-.43 1-.88 2-1.59 3.64-2.28-3.58-4.11-6.46-5.98-9.38-.32.95-.68 2.01-.74 2.2-2.63.28-4.74.51-6.85.73l-.55-1.04c3.45-1.78 6.91-3.57 10.54-5.44 1.45 2.9 2.75 5.5 4.05 8.11l.88-.15c.04-.58.08-1.17.14-1.98 1.32.83 2.54 1.6 4.04 2.55.24-1.04.45-1.92.71-3.03 1.77.97 3.45 1.9 5.13 2.82.2-.22.41-.44.61-.66-2.55-2.39-5.11-4.77-7.66-7.16Zm47.48 13.42v3c-6 1-13-1-18-5 6 4 12 3 18 2m-14.89-4.65c3.56 1.58 8.21 2.55 12.15 1.46.87-.29 1.7-.64 2.46-1.01 1.17-.58 1.98 1.16.88 1.8-.94.54-1.95.93-3 1.2-4.37 1.39-9.56 1.56-13.09-1.4-.11-.09-.19-.2-.25-.31-.84-.65-.23-2.23.86-1.74Zm-52.84 17.59c7.74-.18 15.5-.08 24.14-.08-9.59 6.32-20.06 7.18-29.87 2.16 2.53-.96 4.12-2.04 5.73-2.08m-11.66-7.67c15-1.7 17.39-1.46 31.72 3.09-2.78 5.23-24.79 3.28-31.72-3.09m33.83 1.48c-2.72-1.16-5.57-1.85-8.03-3.57-1.36-.95-2.52-2.1-3.57-3.38-1.05-1.27-2.04-2.63-3.38-3.62-.92-.68-.15-2.06.76-1.83.28-.11.59-.12.89.03 1.59.83 2.86 2.1 4.19 3.28 1.42 1.27 2.94 2.25 4.77 2.85 2.66.88 6.22 1.14 8.23 3.36.84.94.79 2.23-.22 3.02-1.07.83-2.52.34-3.63-.13Zm-.44-7.75c7-1 9 9 17 10-8 0-11-8-17-10m12 3c4 6 11 2 16 6-5 0-16 2-16-6m-3-16c8 0 14 5 20 9-8 0-13-8-20-9m1.01 1.02c.07-.07.15-.13.22-.2l.53.58c3.53 1.82 6.74 4.49 9.43 7.58.24-.36.48-.72.73-1.08 3.43 2.43 6.87 4.86 10.3 7.3l-.94 1.39c-2.9-1.98-5.8-3.95-8.71-5.93 1.8 2.33 3.32 4.83 4.43 7.34q-.855-.15-1.65-.36c-.03.03-.05.06-.08.1-.27-.12-.55-.24-.82-.36-1.12-.36-2.14-.81-3.08-1.35l-3.21-1.41c-.27-.55-.54-1.11-.8-1.66-4.61-4.5-7.5-10.71-13.36-13.96 2.42.24 4.77.96 7.01 2.02m26.99 19.98c-6 4-10-2-13-7 5 2 7 7 13 7m-59.72-13.66c-.74.91-.78 2.1-1.12 3.18-.35 1.11-1.01 2.08-1.78 2.94-1.46 1.64-3.23 2.43-5.3 3.01-1.82.51-3.68.96-5.57 1.1-1.63.12-3.4.07-4.67-1.1-.6-.56-.1-1.47.57-1.64 3.46-.9 7.24-1.8 9.83-4.43 1.98-2.01 3.91-4.8 7.01-4.89.45-.01.71.22.82.53.4.28.61.8.21 1.29Zm-32.28 7.66c9 0 13-7 18-13-1 8-10 16-18 13m16.28-1.99c1.11-1.76 2.08-3.31 3.05-4.86-4.14-3.86.45-4.66 2.26-6.44.26-.73.51-1.46.77-2.2-.35-.38-.71-.76-1.06-1.15-2.67 2.13-5.63 3.98-7.94 6.45-5.2 5.53-11.36 7.92-17.95 7.38 8.48-4.96 17.42-10.18 26.3-15.38 2.96 2.8 5.67 5.37 8.3 7.87-4.44 2.7-8.9 5.4-13.72 8.32Zm-3.28-15.01c-5 10-19 11-27 6 9 3 19 0 27-6m-25 10c4 2 8 0 12 0-4 3-9 5-12 0m6.27 7.83c1.95.45 3.59.92 5.25 1.2 3.89.66 7.83 1.05 11.67 1.93 1.98.45 4.5 1.2 5.55 2.69 8.91 12.61 19.46 16.35 34.12 11.17 5.6-1.98 10.82-4.99 16.3-7.33 1.85-.79 3.96-1.3 5.97-1.37 5.4-.18 10.81-.06 16.94-.06-1.96 4.37-3.97 8.86-5.99 13.36.23.12.46.24.7.36 1.37-2.19 2.96-4.27 4.08-6.58 2.51-5.19 4.63-10.13 10.87-12.67 4.95-2.02 7.25-11.84 5.37-16.94-1.84-5-6.23-6.03-9.09-2.87 1.65.97 4.34 1.61 4.96 3.1 1.35 3.25-1.16 5.17-3.94 6.41-5.2 2.3-10.18 1.14-14.83-1.44-5.91-3.28-11.65-6.87-17.65-10.44.23.83.43 1.53.64 2.25-2.54-.56-5.06-1.12-7.92-1.75 1.78-5.16.54-9.72-3.93-12.94-1.19-.86-3.28-.45-4.98-.04 6.05 1.18 9.37 7.05 6.08 11.68-.53.74-2.31.62-3.52.84-3.08.55-6.63.26-9.16 1.74-6.21 3.61-10.8 4.06-14.74.23-4.42-4.29-4.37-11.18-.49-16.91 1.77-2.61 2.57-5.88 3.72-8.89 1.76-4.63 2.89-9.6 5.3-13.85 3.26-5.76 2.77-10.9.07-16.54-1.38-2.88-2.53-6.22-2.5-9.34.07-7.64-3.92-11.65-13.17-14.75-6.1-2.05-10.71-.23-15.84 2.63 4.85-11.47 7.69-23.96 17-32.69 3.34-3.13 8.66-4.65 13.35-5.64 2.32-.49 5.74 1.31 7.79 3.08 4.86 4.19 9.74 7.28 15.73 5.49-.41-.49-.82-.99-1.23-1.49.11.5.2 1.01.27 1.55-.35-1.21-.94-2.28-1.67-3.25-.26-.31-.52-.63-.78-.94-2.74-3.05-6.73-5.29-8.56-8.82-1.99-2-2.99-3.99-1.99-6.99 1.84.61 2.55 1.97 3.05 3.4 4.55 5.57 9.1 11.16 13.77 16.88.63-.85.98-1.21.93-1.27-4.23-5.73-8.13-11.75-12.84-17.05-5.63-6.33-12.97-7.94-20.93-4.79-6.02 2.39-11.86 5.26-17.4 7.74 5.4-10.49 14.47-15.59 26.77-14.37 14.39 1.42 19.6 11.87 22.46 25.01 2.62-7.31 2.09-11.04-2.67-21.07 7.98 6.11 6.85 14.49 7.78 22.55l.6-10.8h.82v11.53c5.13-.73 10.11-1.46 15.08-2.14 6.34-.87 12.97-.54 17.55-6.6 3.75-4.95 5.47-10.04 3.47-16.22.35 9.08-3.99 15.12-11.77 19.28 2.59-4.57 6.09-8.65 7.22-13.3 1.13-4.66-.12-9.89-.34-14.96 3.8 1.19 7.72 4.09 8.35 8.54.58 4.11-.33 8.99-2.2 12.73-1.91 3.82-5.77 6.67-9.95 11.24 2.39 0 4.01.49 5.05-.08 7.05-3.86 12.44-16.36 9.91-23.82-1.01-2.98-3.5-5.47-5.2-8 9.53-.11 15.05 6.69 16.27 12.05 2.2 9.65-2.58 19.58-11.87 23.88 5.03-4.38 8.33-9.48 6.79-16.58-.61 1.23-1.22 2.47-1.83 3.7-.28.92-.57 1.84-.85 2.76-2.87 3-5.73 6-8.8 9.21 3.66 6.97 9.03 2.9 14.1 2.16-2.14 1.39-4.27 2.79-6.41 4.18 10.87-4.07 21.56-9.25 31.69 1.58-10.26-6.74-19.83-3.79-30.19 2.18 3.19 2.8 5.99 5.26 7.86 6.91.32 2.06.49 3.13.65 4.16-.55-.12-1.42-.3-3.41-.73 5.42 4.58 4.19 9.35 3 14.29-.53 2.23-.09 4.7-.09 7.22l-1.68-2.61-.96.21q.36 2.97.72 5.97c-.9-1.14-1.8-2.29-3.61-4.59-.25 3.23-.4 5.19-.55 7.1-.49-.28-1.19-.69-2.65-1.53.98 3 1.14 5.64 2.5 7.28 8.31 10.01 2.48 21 2.42 31.54-.02 2.74-1.19 5.47-1.84 8.26 5.06 3.01 5.94 2.78 8.73-2.69 1.95-3.83 3.14-8.31 5.89-11.41 2.94-3.32 7.01-6.15 11.14-7.77 5.87-2.3 10.83 1.58 11.57 7.87 1.03 8.73-1.44 16.26-8.13 21.98-5.2 4.44-9.26 9.33-11.09 16.13-1.02 3.77-4.24 6.79-8.28 5.1-2.22-.93-3.32-4.53-5.22-7.35-.33.66-1.09 1.71-1.41 2.88-2.23 7.99-4.07 16.11-6.62 24-2.4 7.43-6.8 13.72-13.35 18.19-7.31 4.99-14.74 9.8-22.12 14.69l-.97-1.3L485 215.16c-.15-.13-.3-.26-.46-.39-4.18 4.06-8.6 7.9-12.49 12.22-13.79 15.29-30.6 16.44-48.96 10.88-5.28-1.6-8.99-4.87-10.65-10.26-3.23-10.48-6.46-20.95-9.74-31.41-.53-1.7-1.31-3.32-2.93-4.71 1.81 6.1 3.61 12.19 5.42 18.29-7.98-8.08-11.23-17.95-12.11-29.6Zm97.35 121.86c-9.67 3.36-19.42 6.52-29.25 9.39-1.36.4-3.3-1.15-4.85-2.46 14-4.86 26.78-10.94 37.51-20.75-7.51 4.21-15.02 8.42-22.54 12.63-.24-.41-.49-.82-.73-1.24l14.92-10.38c-.12-.21-.24-.41-.36-.62-10.13 5.85-20.26 11.7-30.4 17.54-.52-.64-1.03-1.28-1.55-1.91 2.79-2.98 5.28-6.33 8.43-8.87 6.21-5.01 12.71-9.67 19.22-14.3 13.39-9.55 25.24-20.6 34.18-34.55.45.15.9.29 1.35.44-2.96 6.77-5.91 13.54-8.89 20.3-4.54 10.3-9.05 20.62-13.71 30.87-.7 1.53-1.93 3.42-3.34 3.91Zm.21 4.6c-4.54 11.82-12.35 21.97-20.07 33.75-3.68-8.75-6.95-16.54-10.12-24.08 10.38-3.32 20.13-6.44 30.19-9.66Zm-54.54 42.51c-.43-.36-.87-.71-1.3-1.07 3.06-3.55 6.12-7.11 9.17-10.66.38.32.77.63 1.15.95-.94 5.28-6.79 6.56-9.03 10.78Zm2.38 24.28c-2.09 3.53-4.18 7.06-6.27 10.6-.55-.3-1.1-.6-1.64-.91l5.88-10.83c.68.38 1.36.76 2.03 1.15Zm-2.91-29.24-1.27-1.06c3.27-3.76 6.55-7.52 9.82-11.28l2.01 1.73c-3.52 3.54-7.04 7.07-10.56 10.61m8.04-14.35c-5.34-6.58-8.62-14.32-13.05-21.29l-1.24.3c2.33 5.9 4.66 11.8 7.1 18-3.62-.09-5.97-2-7.12-5.3-2.89-8.34-1.67-16.84.24-25.03 1.29-5.55 5.19-7 12.53-6.22-6.37 6.93-8.16 14.56-4.23 23.32-2.39-10.07 2.43-16.61 10.37-21.13 3.07-1.75 6.76-1.19 9.05 1.58-2.51 4.03-5.29 7.61-7.04 11.63-1.08 2.48-.52 5.65-.84 8.49-.22 1.92-.41 3.91-1.09 5.68-1.17 3.01-2.72 5.87-4.68 9.97m60.08-73.93c-7.16 7.57-15.28 14.27-23.27 21.01-6.34 5.35-13.13 10.17-19.92 15.37-3.65-2.96-7.69-4.87-12.66-3.09-.59.21-1.47-.51-2.25-.64-3.89-.68-7.79-1.31-13.38-2.24-2.1-3.42-6.81-7.93-5.41-14.98-2.7-3.59 1.68-4.67 2.49-7.02-1.4.95-2.8 1.9-4.21 2.85-.29-.31-.57-.63-.86-.94 3.52-3.87 7.04-7.74 10.57-11.61.28.15.56.3.84.44-.1.83-.21 1.67-.31 2.5 3.86-.35 1.12 2.04 1.32 3.2 4.01-.02 10.09 5.72 11.22 10.58.37 1.61.72 3.23 1.07 4.84l2.17-.54c-.93-3.21-1.72-6.47-2.83-9.62-.58-1.64-1.74-3.07-2.64-4.59.11-.93-.14-2.27.39-2.74 4.92-4.39 9.97-8.65 14.99-12.94-.01.02-.03.04-.04.06 4.11-3.82 8.23-7.63 12.34-11.45.28.24.56.48.84.71-1.08 1.17-2.09 2.42-3.27 3.49-6.76 6.17-13.58 12.27-20.31 18.47-.9.83-1.45 2.04-2.16 3.08 4.87-3.95 9.74-7.9 14.62-11.85.23.25.46.5.7.75-3.58 3.25-7.15 6.51-10.73 9.76l.67.75c4.79-4.21 9.7-8.27 14.33-12.65 7.01-6.63 13.69-13.62 20.76-20.18 3.88-3.6 8.29-6.63 12.45-9.94 8.1-6.43 11.94-15.32 14.44-24.99.41-1.58.99-3.11 1.07-3.36.92 9.82 2.99 20.81 2.72 31.75-.34 13.69-6.41 25.84-15.77 35.74Zm-80.22 1.94c3.03-3.22 6.06-6.45 9.1-9.67.41.37.82.73 1.24 1.1-3.06 3.27-6.12 6.53-9.18 9.8-.39-.41-.77-.82-1.16-1.23m18.21-.24 23.54-19.01c.16.13.31.26.47.4-1.54 2.23-3.08 4.46-4.63 6.69-4.6 3.33-9.22 6.64-13.79 10.02-1.49 1.11-2.83 2.42-4.24 3.64l-1.36-1.73Zm-43.05 61.93c-.82-1.45-.69-3.83-.2-5.55 1.09-3.81 2.81-7.45 4.06-11.22 2.03-6.12 1.97-12.12-1.65-17.73-3.67-5.69-7-6.42-12.85-2.56-7.11 4.69-14.2 9.34-22.92 10.45-.82.1-1.64.17-2.17.22 6.27-10.45 12.9-20.57 18.55-31.22 4.42-8.33 7.21-17.5 11.49-25.92 3.03-5.96 7.34-11.27 11.07-16.87.72.36 1.44.71 2.15 1.07-.48 1.25-.64 2.78-1.48 3.72-7.42 8.31-10.46 18.55-13.53 28.79l1.2.51c2.18-5.85 4.36-11.69 6.54-17.54.28.09.56.18.85.26-.7 2.37-1.39 4.74-2.09 7.11.31.15.61.29.92.44l9.56-18.67c2.63 7.49 5.51 12.95 11.91 15.72.84.36.83 3.27.8 4.99-.23 11-.62 22.03 3.58 32.49 1.6 3.99 3.79 7.74 5.87 11.91-.88 1.05-1.89 2.26-3.34 4-10.19-13.96-11.36-29.14-10.39-45.31-1.62 5.62-3.26 11.24-4.85 16.87-.72 2.56-1.08 5.24-2.03 7.7-2.47 6.36-2.41 12.49.12 18.9 1.23 3.12 1.26 6.76 1.61 10.18.54 5.26-.33 11.04 1.58 15.71 3.11 7.58-.22 11.7-5.26 15.7-3.11-4.75-6.36-9.31-9.11-14.16Zm20.01-6.15c.83-1.94 1.35-3.17 1.87-4.38 5.55 1.85 5.89 2.9 2.46 7.29-1.8 2.3-3.69 4.53-6.56 6.22 1.72-3.58 3.44-7.17 5.56-11.59-1.35 1-2 1.48-3.32 2.46Zm3.52-16.23c3.09 3.02 3.25 6.03 2.54 9.76-14.03-8.61-17.4-24.45-9.43-45.25.15 12.9 3.82 24.77 10.55 35.77-7.94-6.27-10.64-14.88-11.97-24.17.08 8.9 1.67 17.41 8.3 23.88Zm-18.14 117.87c-1.31 1.83-3.09 3.34-4.92 5.28.9-7.22 2.34-13.88 2.4-20.55.07-8.46-.9-16.93-1.57-25.39-1.41-17.62 3.66-32.78 16.51-45.21 3.05-2.95 5.59-6.43 8.49-9.83 2.2 4.12 1.63 7.34-1.14 10.81-10.88 13.63-14.88 29.47-14.26 46.68.15 4.09.02 8.2.02 13.44.81-2.07 1.38-3.17 1.66-4.34.3-1.28.41-2.62.46-3.94.28-7.45.47-14.38 4.91-21.48 5.37-8.58 8.02-18.86 11.84-28.41.52-1.29 1.01-2.59 1.56-3.99.79.49 1.29.64 1.3.82.62 10.92 1.31 21.84 1.75 32.77.31 7.7-1.88 14.81-6.26 21.13-7.49 10.8-15.1 21.52-22.75 32.2Zm21.35-79.92c-3.69 8.99-7.38 17.98-11.08 26.96-.09-10.49 3.93-19.32 9.6-27.5.49.18.99.36 1.48.54m1.53 53.56c.52 0 1.04-.01 1.56-.02.72 5.8 1.44 11.59 2.17 17.39-.52-5.91-6.9-10.88-3.72-17.38Zm9.91-9.13 1.8 1.08-5.87 9.35c-.68-.4-1.36-.81-2.03-1.21 2.03-3.08 4.07-6.15 6.1-9.23Zm3 6.9c-2.12 3.33-4.24 6.66-6.78 10.64-1.35-4.52.43-7.61 5.58-11.39.4.25.8.5 1.2.74Zm.83 14.96c-3.08 3.4-5.54 7.36-9.05 10.74 2.72-6.37 5.45-12.75 8.44-19.74 3.45 3.74 3.24 6.11.62 9Zm31.68-11.62c-4.57 14.98-10.27 29.75-9.66 45.9-.52.13-1.03.25-1.55.38-1.98-4.21-4.26-8.31-5.87-12.65-4.15-11.18-8-22.47-11.99-33.7-2.68-7.54-3.2-15.16-1.72-23.06 2.52-13.51 4.73-27.08 7.1-40.62.11-.62.44-1.2.66-1.79.4-.02.8-.05 1.2-.07 2.43 12.46 5.37 24.86 7.13 37.41 1.19 8.5.64 17.23 1.08 25.84.21 4.18.91 8.33 2.17 12.28 1.36-7.87 2.42-15.81 4.16-23.6 2.91-13.04-.46-25.04-5.26-36.89-1.18-2.92-2.87-5.7-3.64-8.72-1.68-6.57-2.91-13.25-4.33-19.88.64-.23 1.28-.45 1.92-.68 1.13 1.88 2.47 3.67 3.35 5.66 4.19 9.55 7.9 19.33 12.44 28.7 7.21 14.89 7.57 29.9 2.81 45.5Zm-14.5-46.6c7.86 13.7 6.93 28.91 3.46 42.99-1.1-13.71-2.31-28.72-3.46-42.99m77.15-39.86c-3.3-2.71-5.71-6.48-8.62-9.68-1.78-1.96-3.56-4-5.68-5.55-6.09-4.44-12.55-3.32-16.93 2.84-4.8 6.75-6.56 14.52-6.79 22.62-.2 6.99.38 14.02-.1 20.98-.21 3.03-1.54 6.54-3.54 8.79-4.49 5.08-9.72 9.52-15.11 14.66-1.89-4.87-3.69-9.07-5.05-13.4-.33-1.06.6-2.73 1.34-3.88 4.03-6.31 8.73-12.25 12.14-18.87 4-7.76 6.77-16.15 10.33-24.16 4.51-10.14 9.06-20.28 13.99-30.23 8.53-17.23 13.84-35.23 13.61-54.58-.04-2.99-1.37-6.01-2.29-8.95-.81-2.58-1.89-5.08-2.85-7.62l1.84-.89c4.82 1.38 7.14 5.33 9.63 9.3 3.51 5.59 6.85 11.39 11.14 16.35 4.27 4.93 5.85 10.38 5.8 16.48-.12 15.16-.68 30.31-.62 45.47.04 9.11.91 18.22 1.51 29.16-5.19-3.28-9.82-5.63-13.74-8.85Zm96.83 257.85c-14.04-6.91-24.76-17.85-34.16-30.02-2.05-2.66-2.42-6.83-2.96-10.4-1.15-7.64-3.6-14.72-7.69-21.27-3.03-4.85-5.55-9.95-4.92-15.88 1.27-12-1.14-23.26-5.14-34.6-2.98-8.47-3.94-17.66-5.75-26.31 10.44 4.33 20.25 8.36 30.02 12.49 3.86 1.63 4.83 4.53 2.44 7.99-3.58 5.19-7.62 10.06-11.13 15.29-1.48 2.21-2.11 4.99-3.15 7.55 5.09-6.91 10.09-13.56 14.92-20.33 4.43-6.21 2.92-10.18-4.2-12.95-7.39-2.88-14.89-5.7-21.83-9.47-6.81-3.7-10.96-9.25-11.13-17.99-.43-22.03 6.58-41.87 16.68-60.81 9.45-17.73 20.84-34.13 36.83-46.73 3.59-2.83 7.82-5.12 12.11-6.67 3.79-1.37 7.27-.27 9.32 4.18 12.4 26.91 18.26 55.38 20.79 84.69.05.61 0 1.23 0 2.88-3.06-4.01-5.38-7.05-7.71-10.09-.32.22-.64.45-.95.67 3.12 5.18 6.23 10.37 9.34 15.55.6 1 1.21 1.99 1.77 3.01 3.37 6.13 4.78 11.86-.37 18.22-6.37 7.87-11.73 16.54-17.88 24.59-1.42 1.86-4.11 3.04-6.45 3.87-19.07 6.76-37.96 13.72-48.68 32.83-.4.71-.77 1.44-1.04 2.19-.09.24.17.6.46 1.45 7.57-11.93 16.88-21.44 29.91-26.56l.9.96c-3.64 3.49-7.2 7.07-10.93 10.46-6.6 6-9.3 14.07-11.51 22.22-4.7 17.35-2.6 34 6.73 49.44 2.17 3.59 5.54 6.46 8.43 9.6.78.85 1.92 1.36 2.71 2.2 9.46 9.98 19.45 18.72 35.8 14.03-4.45 5.14-15.31 6.84-21.58 3.75Zm49.67-26.44c-10.15 3.77-20.79 6.19-30.57 9.04 6.96 5.02 18.78 2.12 44.14-11.88-1.84 7.09-5.04 12.58-11.53 15.62-14.29 6.7-29.54 7.94-44.89 6.54-4.07-.37-8.06-4.27-11.61-7.13-4.52-3.65-8.69-7.77-12.79-11.9-8.8-8.88-12.11-20.26-12.93-32.17-.86-12.55 2.9-24.22 10.33-35.94-.88 5.56-1.94 9.91-2.15 14.29-.21 4.53.41 9.09 1.43 13.79-.67-23.06 4.5-42.71 28.74-51.85-2.26 2.2-4.26 4.78-6.83 6.53-14.98 10.24-19 35.27-11.97 52.17 5.46 13.15 13.6 23.91 28.05 27.6 21.65 5.54 48.69-7.75 53.3-26.13 1.44-5.76 1.73-11.81 2.59-17.72.13-.91.44-1.79 1.02-4.11 7.81 24.88-1.43 44.74-24.34 53.26Zm-1.16 4.64c-6.29 1.87-12.59 3.75-18.88 5.62-.12-.42-.25-.84-.37-1.26l18.88-5.64c.13.42.25.85.38 1.27Zm16.13-35.86c-3.33 7.6-9.62 10.52-15.52 13.89-.5-.48-.99-.97-1.49-1.45 1.69-1.66 3.28-3.43 5.09-4.95 1.71-1.42 3.63-2.58 5.47-3.85-.04.04-.07.08-.11.12 1.94-1.11 3.87-2.22 6.56-3.76m38.22-57.98c-1.71 2.42-3.14 2.34-5.28 2.24-.06 0-.17 1.25-.37 2.86-16.66-2.24-32.01-9.71-47.78-15.83-.27.42-.53.84-.8 1.26 4.44 2.68 8.88 5.36 13.48 8.13-.38.43-1.02 1.15-1.33 1.49 2.99.25 6.04.5 9.1.76l.27 1.11c-2.92 1.25-5.83 2.5-8.75 3.75.07.25.15.49.22.74 4.23-1.42 8.47-2.85 12.7-4.27.18.33.35.65.53.98-3.01 1.98-6.03 3.96-9.04 5.94.12.23.23.45.35.68 3.59-1.96 7.17-3.93 10.76-5.89l.95 1.4-13.28 8.77.18.52 10.14-4.68c.2.21.39.43.59.64-3.03 2.28-6.07 4.56-9.1 6.83l.35.64c2.39-1.25 4.77-2.51 7.73-4.06-2.89 6.05-.69 13.82-7.9 17.79 1.3-.82 2.6-1.64 3.92-2.47q-.06 2.38-9.03 11.3c2.68-1.82 5.35-3.65 8.96-6.1-1.17 6.47-7.01 7.92-9.43 12.29 2.48-1.77 4.96-3.54 7.45-5.32.4 4.59-2.29 7.6-12.84 15.35 1.85-.99 3.76-1.88 5.52-3 1.91-1.22 3.69-2.66 5.52-4.01.41.38.82.77 1.23 1.15-3.22 3.54-6.44 7.08-9.66 10.61-2.5 1.15-5 2.31-8.06 3.72 3.48-13.38 6.82-26.22 10.16-39.07-.46-.12-.92-.24-1.37-.36-1.78 6.61-3.46 13.25-5.35 19.83-2.75 9.52-5.93 18.92-8.37 28.51-1.2 4.71-4.1 5.36-8.4 5.66 2.62-6.81 5.08-13.19 7.54-19.57-.31-.13-.61-.25-.92-.38-2.48 5.71-5.1 11.36-7.38 17.15-1.31 3.31-3.46 4.16-6.85 4.27-21.98.69-33.64-15.21-38.4-31.51-2.29-7.84-2.98-16.08.34-23.48 2.85-6.34 7.37-12.07 11.8-17.54 5.01-6.2 11.03-11.59 16.09-17.77 5.03-6.15 9.41-12.83 14.52-19.88-.18 2-.3 3.41-.43 4.82.25.07.49.14.74.2.97-3.89 1.93-7.78 2.9-11.66.21.04.42.07.63.11l1.05 12.48c.57.03 1.14.05 1.71.08-1.1-7.2-.89-13.91 4.4-19.6 5.25-5.66 11.82-6.65 19.11-6.05 0-.49-.02-.99-.02-1.48-2.26-.42-4.51-.85-6.74-1.27 7.65-9.87 16.83-17.69 29.61-19.9 6.19-1.07 12.62-2.56 18.73-1.89 11.96 1.32 22.56-2.39 33.45-6.09 4.48-1.52 9.5-2 14.26-1.93 2.34.03 5.87 1.9 6.62 3.81.75 1.93-.57 5.61-2.22 7.35-4.9 5.17-11.57 6.9-18.49 7.7-7.69.89-15.23 2.21-20.69 9.16-1.87-2.37-3.45-4.38-5.36-6.8 2.54 11.28 11.34 18.12 27.83 21.92-2.11 2.27-4.1 4.42-6.09 6.57-.11-.41-.22-.82-.33-1.24-3.39.86-6.79 1.72-10.28 2.61-2.47-6.46-10.65-7.98-16.11-1.95-2.53 2.8-4.49 6.18-6.37 9.49-1.94 3.4-4.06 5.75-8.49 5.55-4.18-.19-7.49 1.97-10.22 5.82 3.86-1.55 7.21-2.89 11.6-4.66-1.75 3.44-2.87 5.65-3.99 7.87.36.24.72.48 1.08.71 4.91-5.87 9.71-11.83 14.78-17.56 2.48-2.8 5.18-5.57 8.28-7.58 2.28-1.48 5.08-.94 6.66 2.75-3.69.28-8.33-1.06-8.42 4.35-.03 1.7 1.52 3.42 2.35 5.13.49-.06.99-.12 1.48-.19-1 2.21-2.01 4.41-3.07 6.75h-6.11c-.04.33-.07.65-.11.98 1.66.52 3.33 1.03 6.39 1.98-4.02 3.76-8.12 6.63-10.83 10.48m30.01-28.8c-3.45 3.22-5.96 7.48-11.63 6.87 2.18-5.42 6.9-8.29 11.63-6.87m-1.61 25.77c-7.29.43-13.69.82-20.54 1.23 3.29-5.94 6.24-11.27 9.88-17.85.48 2.73.7 3.97 1.25 7.09 7.45-8.2 13.8-15.86 20.97-22.65 1.97-1.86 6.4-1.42 9.69-1.39.79 0 1.55 2.59 2.86 4.94-5.7-.43-9.63-.04-11.05 4.32-.39 1.19 1.56 3.14 3.12 5.96-.28 5.15-7.54 1.89-11.15 5.32 2.14.89 3.45 1.44 5.51 2.3-4.26 3.57-8.05 6.74-11.77 9.85.24.18.65.47 1.23.88m39.44-22.08c-3.15.67-6.32 1.26-9.49 1.88.12.72.23 1.44.35 2.17l3.24 1.47-.12 1.14h-7.76c.88.77 1.61 1.42 2.61 2.29-5.57 2.4-10.95 4.73-16.33 7.05-.38-.4-.76-.8-1.13-1.2 5.35-6.69 10.14-13.95 16.24-19.88 5.08-4.94 11.69-4.23 14.93.04.8 1.06.95 2.6 1.41 3.92-1.31.38-2.61.84-3.94 1.12Zm19.93-2.74c-.22.64-1.91 1.22-2.85 1.11-3.97-.47-7.74-.66-9.73 3.23-.99-3.42-1.98-6.81-3.08-10.59 3.68-3.02 12.31-2.01 15.2 2.66.6.97.81 2.55.46 3.6Z" class="cls-1"/><path d="M477.2 181.75c-1.03-.45-2.05-.9-3.08-1.35.94.53 1.96.99 3.08 1.35M455.75 55.38c-.07-.53-.16-1.05-.27-1.55-.47-.56-.94-1.13-1.4-1.7.73.97 1.33 2.03 1.67 3.25M149.21 236.96c-.01-.1-.03-.19-.04-.28l-.11.17.15.12ZM447.74 467.26c38.04-2.64 73.51-14.07 107.93-30.73-11.21 12.39-87.89 34.24-107.93 30.73M374.92 514.46C355.07 483 342.69 450 335.49 414.93c5.44 16.74 10.09 33.79 16.55 50.12 6.5 16.44 14.81 32.18 22.88 49.41M575.4 461.05c-.66 1.55-.96 3.45-2.04 4.61-21.29 22.8-45.49 41.73-73.77 55.21-.55.26-1.2.32-1.97.18 29.5-15.43 55.48-35.36 77.93-59.87-.01 0-.14-.13-.14-.13ZM387.44 471.1c-23.15-22.98-36.76-50.98-43.36-82.65 8.16 30.86 21.77 58.85 43.36 82.65M534.81 521.63c-27.27 10.71-55.66 15.61-84.81 16.5 28.83-2.58 57.26-7.28 84.81-16.5M251.54 358.96c18.35 7.76 34.48 28.65 34.91 43.91-3.87-7.35-7.31-16.84-13.25-24.36-6.02-7.61-14.51-13.27-21.66-19.55M558.65 250.29c1.46.74 3 1.35 4.36 2.24 16.31 10.67 32.6 21.38 48.87 32.1 1.23.81 2.3 1.85 3.45 2.78-4.59-2.47-9.38-4.63-13.73-7.47-13.79-9-27.43-18.25-41.1-27.45-.76-.51-1.24-1.46-1.85-2.2M437.6 457.31c-2.78 2.64-4.39 5.46-6.44 5.82-3.34.59-4.23-2.64-4.14-5.44.1-3.17 1.27-6.47 4.93-6.13 1.71.16 3.17 3.1 5.66 5.75Zm-4.07-3.83-2.22-.24c-3.27 2.46-3.48 5.19-.87 8.16.65.08 1.3.17 1.96.25l1.14-8.16ZM510.76 45.62l-10.47 7.53c4.7-7.67 12.58-13.68 8.25-24.97 5.16 4.75 2.78 9.95 3.08 14.68-.28.92-.57 1.84-.85 2.76ZM420.34 166.09c-1.81 1.78-6.4 2.58-2.26 6.44 1.92-1.73 3.84-3.47 6.59-5.95-2.22-.25-3.27-.37-4.33-.49M456.29 97.69c-.06.69-.12 1.38-.23 2.71 5.31-5.32 11.28-7.13 18.21-5.53.56.13 1.26-.33 1.9-.49 13.2-3.24 25.74 5.85 26.97 19.5.07.74.74 1.42.67 2.72-2.43-2.05-5.2-3.82-7.23-6.21-6.29-7.44-13.97-7.82-22.64-5.55-4.94 1.3-10.07 2.09-15.16 2.43-2.1.14-6.13-1.44-6.15-2.31-.05-2.57 1.45-5.16 2.35-7.75l1.32.48ZM464.76 126.8c9.15 1 18.31 2 28.25 3.08-2.43-8.25-8.06-11.72-14.34-13.17-8.12-1.87-13.8 3.52-19.34 8.3.19.4.38.8.57 1.21 3.62-1.96 7.24-3.92 11.15-6.04.64 2.27 1.16 4.07 1.84 6.47-3-.26-5.41-.46-7.82-.67-.1.27-.21.55-.31.82m24.31.48c.07-.1.15-.2.24-.27.21-.18.4-.26.66-.33.14-.04.28-.06.42-.09.01 0 .03 0 .04-.02.24-.12.51-.12.76-.05.17.06.31.15.42.28.05.07.1.15.15.22.07.12.1.25.09.38.02.13 0 .26-.04.38-.04.13-.1.24-.2.33-.06.08-.15.13-.23.18 0 0 .01 0 .02-.01q-.15.105-.27.24c-.06.07-.12.14-.19.2-.05.04-.11.07-.16.11-.05.03-.1.08-.16.1 0 0-.02 0-.03.01-.08.03-.19.07-.27.09-.02 0-.04 0-.06.01h-.12a1.665 1.665 0 0 1-.61.18c-.21.02-.41.02-.62.02-.26 0-.5-.16-.68-.34-.19-.19-.26-.47-.25-.74 0-.13.04-.25.11-.37.05-.12.12-.23.23-.31.1-.1.22-.16.35-.19q.18-.075.39-.06h.01Zm-11.26-8.82c2.58 0 2.26 3.99-.3 3.99s-2.26-3.99.3-3.99m-4.94 2.48c.36-1.24 2.25-.58 1.89.65-.05.17-.09.44-.09.6 0-.05.02.18.03.24 0 .05.1.38.04.2.19.54.35.73.79 1.16 1.47 1.44 4.11 2.11 6.24 2.29 1.13.1 2.24.07 3.35-.2.42-.11.74-.22 1.19-.49.11-.07 0 .03.16-.12.07-.06.14-.12.2-.18.15-.14.08-.08.09-.1.06-.08.12-.16.17-.25.67-1.11 2.33.01 1.66 1.11-.72 1.19-2.08 1.78-3.39 2.05-2.76.58-5.95.1-8.51-1.06-2.35-1.06-4.66-3.08-3.84-5.92ZM545.07 131.72c-1.62-.97-5.41-.65-6.72.64-4.27 4.24-7.93 9.12-11.59 13.93-.6.79-.51 2.76.06 3.67 2.49 3.99.93 6.8-2.02 9.62-1.09 1.05-1.58 2.72-2.34 4.11 8.34-4.93 8.41-5.65 6.63-14.14-.31-1.49 1.9-3.52 2.95-5.3 1.2 1.2 3.28 2.32 3.41 3.63.26 2.74-.5 5.58-.84 8.38.47.13.94.27 1.41.4.61-2.71 2.1-5.59 1.59-8.07-.54-2.65-2.96-4.92-5.09-8.16 1.42-1.29 3.78-3.85 6.57-5.82 1.26-.9 3.93-1.43 4.91-.7 1.22.9 2.01 3.34 1.83 4.99-.43 3.87-1.54 7.66-2.38 11.48.47.12.95.23 1.42.35 1.07-4.24 2.61-8.44 3.02-12.74.2-2.07-1.16-5.27-2.82-6.26ZM451.51 206.04c-3.51 2.36-7.02 4.71-11.67 7.83h-13.4l3.41-1.82c-3.2-2.8-6.56-5.75-9.93-8.7 10.42 4.38 20.85 3.7 31.59 2.69" class="cls-1"/><path d="M459.61 120.17c.41-1.67.26-3.95 1.32-4.9 10.15-9.16 27.45-4.75 33.09 9.34-4.68-6.03-9-10.45-15.94-11.44-7.3-1.04-12.46 2.04-16.61 7.83l-1.86-.84ZM479.27 137.77c-7.76 1.25-13.06-1.92-17.4-7.52 5.53 2.39 11.05 4.78 17.4 7.52M111.4 278.84c11.56-4.57 27.95-1.37 37.11 8.33 4.76 5.04 6.67 10.8 4.7 14.99-1-10.52-6.51-18.17-16.07-20.7-8.76-2.32-18.22-1.96-25.74-2.63ZM100.35 277.72c-3.98-4.66-7.95-9.33-11.93-13.99.36-.31.72-.63 1.09-.94l11.96 14.03c-.37.3-.75.6-1.12.9M594.3 396.09c15.89-13.43 33.21-22.14 54.76-16.1-21.06-4.3-38.29 4.48-54.76 16.1M588.16 378.15c4.43-9.68 25.03-25.25 35.74-27.08-13.77 6.62-25.83 15.44-35.74 27.08M647.43 370.43c-11.5-4.2-22.34-1.28-34.18 3.67 9.23-7.73 25.34-9.23 34.18-3.67M732.46 405.19c-11.39.57-21.61-2.17-30.15-7.62 9.27 2.34 19.45 4.92 30.15 7.62M708.5 420.93c9.43-6.92 20.37-7.17 29.96-11.2.16.47.33.93.49 1.4zM213.65 453.27c4.2-2.7 8.41-5.4 12.61-8.1.29.49.58.98.86 1.47l-13.29 6.84-.19-.21ZM536.45 221.84l1.53 36.37-1.89.07v-36.44zM539.85 235.46v27.05c-.29 0-.59.01-.88.02v-27.06c.29 0 .59 0 .88-.01M497.52 233.79c-7.67 14.89-15.33 29.77-23 44.66-.46-.24-.93-.47-1.39-.71l23.13-44.67zM462.04 256.5c10.2-10.83 20.4-21.65 30.61-32.48.48.49.96.97 1.43 1.46l-31.9 31.18c-.04-.05-.09-.1-.14-.16M612.09 512.62c-3.53-9.99-6.77-20.03-4.74-30.99.83 21.62 9.56 39.54 24.5 55.03-2.56-2.3-5.5-4.31-7.59-6.97-4.35-5.55-8.24-11.45-12.33-17.2l.16.14Z" class="cls-1"/><path d="M611.93 512.48c2.34 5.42 4.69 10.85 7.03 16.27l-.75.45c-3.38-6.27-6.77-12.54-10.15-18.82l1.2-.75c.94.99 1.88 1.98 2.83 2.97l-.16-.13ZM426.88 119.16c.79 1.23 1.35 2.1 2.7 4.21-.78-8.19-3.66-12.87-8.62-14.8-9.48-3.7-15.22 2.32-20.74 8.07 6.23 11.73 17.38 6.77 27.06 7.51-.85-.46-1.7-.91-2.82-1.52.78-1.12 1.49-2.14 2.41-3.47Zm-15.39 3.93-6.97-3.26c1.99-2.68 3.98-5.36 5.96-8.04.33.39.67.78 1 1.17v10.12Zm4.43-11.29c2.58 0 2.26 3.99-.3 3.99s-2.26-3.99.3-3.99m5.19 9.95c-2.6 1.19-5.46 1.1-7.05-3.38 5.65 3.52 5.91 3.45 9.03-1.62l1.04.69c-.98 1.49-1.65 3.68-3.02 4.32Z" class="cls-1"/><path d="M427.62 109.97c-10.72-9.2-16.75-6.52-23.61.5 1.49-4.51 4.96-7.49 9.74-7.86 6.1-.48 10.78 2.07 13.88 7.36ZM425.4 130.83c-2.88 1.14-5.76 2.29-8.64 3.43-.21-.51-.41-1.03-.62-1.54 2.74-1.65 4.7-5.21 9.26-1.88Z" class="cls-1"/></svg>