<?xml version="1.0" encoding="UTF-8"?>
<svg id="Livello_1" data-name="Livello 1" xmlns="http://www.w3.org/2000/svg" viewBox="0 0 1344 768">
  <defs>
    <style>
      .cls-1, .cls-2 {
        stroke-width: 0px;
      }

      .cls-1 {
        fill: #ffffff;
      }

      .cls-2 {
        fill: none;
      }
    </style>
  </defs>
  <rect class="cls-2" width="1344" height="768"/>
  <path class="cls-1" d="m519.93,239.08c-5.24,2.69-9.8,4.33-13.43,7.18-1.93,1.52-2.99,5.13-2.94,7.77.02,1.26,3.55,2.45,5.23,3.51-1.85,5.37-4.53,11.01-5.68,16.94-3.28,16.82.18,33.04,5.44,49.03.58,1.78.35,4.73-.78,6-5.72,6.42-7.07,13.93-5.78,21.91,2.69,16.6,14.61,27.73,30.4,28.17-.46,6.85-.92,13.67-1.3,19.33-6.29,1.09-11.36,1.96-16.95,2.93-22.92-22.07-43.68-20.36-64.91,6.52-9.43-14-22.74-21.93-39.2-23.85-16.05-1.88-31.75.1-45.7,8.85-26.59,16.68-35.21,45.09-24.53,80.29-15.79,1.47-29.07,7.83-34.98,23.15-5.95,15.4-.3,28.93,11.01,40.83-9.19,4.78-15.23,11.79-17.96,21.37-2.83,9.95-.23,18.88,6.86,27.75-21.86-2.45-40.02,2.65-54.18,18.36-15.19,16.85-13.73,35.17-3.95,53.66-3.52,2.42-7.2,4.25-9.92,7.02-2.69,2.73-4.43,6.41-6.64,9.75-1.37-.42-2.64-.8-3.9-1.21-15.65-5.04-36.51,1.82-46.01,15.13-6.76,9.47-4.3,20.44,6.03,25.68,3.98,2.02,8.23,4.17,12.55,4.72,19.1,2.44,38.24,5.06,57.45,6.11,10.84.59,21.84-1.8,32.78-2.64,1.64-.13,4.61.54,4.87,1.46,3.09,10.59,11.37,13.96,20.92,14.91,12.07,1.2,24.2,1.85,36.33,2.38,15.32.67,30.85,1.3,45.62-3.14,9.99-3,19-3.16,29.27-1.09,13.25,2.67,27.09,2.61,40.7,3.16,10.77.43,21.6.5,32.35-.19,8.74-.56,17.17-2.92,22.12-11.57,1.99.69,3.72,1.22,5.41,1.88,22.79,8.9,45.93,17.03,68.25,26.98,18.14,8.08,36.67,10.67,55.91,8.53,29.11-3.25,58.13-7.34,87.18-11.07,51.01-6.54,102.05-12.9,153.03-19.7,17.62-2.35,35.12-5.67,52.63-8.83,2.58-.47,5.27-2.06,7.24-3.86,20.31-18.5,40.48-37.15,60.69-55.75,31.73-29.2,63.43-58.43,95.25-87.54,3.16-2.89,3.72-5.03,1.06-8.74-8.35-11.62-16.16-23.64-24.54-35.23-1.63-2.25-4.8-4.4-7.48-4.71-42.99-5.02-86.01-9.75-129.03-14.5-5.02-.55-8.91-1.43-13.42,4.29-7.42,9.41-17.54,16.7-26.69,24.69-.91.8-3.19.68-4.53.17-1.94-.73-3.61-2.21-5.35-3.34,6.41-17.47,4.88-27.81-5.87-36.76-11.36-9.47-24.45-9.95-38.3-5.94,1-28.68-7.44-52.02-35.78-62.59-26.68-9.95-51.94-7.66-72.93,13.83-7.61-4.96-15.1-10.57-23.23-15.01-14.69-8.03-30.57-13.03-46.98-16.32-5.72-1.14-7.02-3.65-4.35-8.52,5.79-10.54,8.75-21.89,9.98-33.76,2.26-21.81,1.17-43.54-1.65-65.23-.26-2.02-.05-4.35.72-6.21,5.03-12.2,5.68-24.46,1.63-37.08-.62-1.95-.18-4.98.99-6.64,5.1-7.17,6.99-15.1,6.18-23.62-.71-7.5-2.82-14.4-10.71-17.86-1.18-.52-1.93-2.51-2.45-3.97-2.61-7.37-7.38-12.72-15.34-13.11-5.79-.29-11.67,1.47-17.53,2.04-5.02.49-10.13,1.17-15.11.72-9.58-.86-19.06-3.25-28.63-3.58-24.57-.86-46.44,5.73-62.91,25.36-.15.18-.6.11-.9.15.17-.41.34-.82.51-1.22-2.89-1.28-6.72-4.35-8.46-3.44-2.65,1.39-4.35,5.36-5.52,8.57-.84,2.33-.16,5.2-.16,6.71ZM919.83,44.67c-13.24-27.46-36.18-37.29-64.66-33.25-30.93,4.39-47.01,24.34-50.25,55.08-4.36-1.57-8.31-3.23-12.4-4.43-18.47-5.43-42.73,11.06-35.04,33.14.32.91-1.5,3.48-2.77,3.89-7.43,2.41-13.13,7.19-18.18,12.79-10.61,11.77-11.87,33.78-2.76,46.44,1.71,2.38,3.85,4.45,6.08,6.98-14.67,10.62-17.14,25.87-16.14,42.02.88,14.22,7.91,25.06,21.17,30.79,4.67,2.02,10.23,1.96,15.82,2.93-.7,12.66,2,24.68,9.69,35.47,7.83,11,17.92,18.05,32.38,19.61-8.3,19.81-7.16,38.56,11.41,50.42,20.39,13.02,40.86,10.81,57.52-9.03,1.71,2.46,2.92,4.23,4.17,5.98,7.48,10.55,24.25,17.93,36.98,9.36.92-.62,3.58.27,4.74,1.26,4.65,3.96,8.36,9.64,13.63,12.16,23.53,11.25,46.92,14.45,69.41-3.4,11.26-8.94,19.33-18.77,16.71-34.26-.19-1.14,1.39-3.64,2.36-3.76,15.24-1.81,24.23-12.01,31.35-23.97,8.61-14.45,9.42-29.25-.96-43.54-.45-.62-.64-1.42-.6-1.33,5.09-3.86,10.57-6.76,14.38-11.12,14.81-16.96,20.56-37.03,15.59-58.95-4.65-20.52-15.61-36.81-37.22-43.61,1.94-3.57,4.26-7.05,5.81-10.85,6.33-15.54,2.17-30.12-4.96-44.12-11.19-21.99-33.27-32.96-55.73-27.55-4.86,1.17-6.45.13-8.17-4.38-7.53-19.83-29.12-28.27-48.02-18.85-4.07,2.03-7.51,5.31-11.34,8.09ZM158.01,358.48c-1.82-.21-3.45-.47-5.09-.59-9.63-.72-19.57,5.78-22.61,14.76-4.04,11.9,3.54,22.95,18.16,25.34,10.15,1.66,20.46,2.96,30.73,3.17,29.1.61,58.21.91,87.31.66,17.61-.15,35.22-1.36,52.8-2.51,4.37-.29,8.71-1.94,12.91-3.4,4.5-1.56,6.69-5.26,7.48-9.82,1.59-9.11-2.21-17.75-10.64-22.31-4.57-2.47-9.77-3.78-15.09-5.76,2.87-12.76-1.67-22.57-13.61-29.09-11.24-6.13-22.43-6.01-33.53.22-7.58-21.57-21.54-33.59-41.98-31.85-26.53,2.25-38.05,19.53-37.1,45.38-17.5-1.34-22.42,1.3-29.74,15.78Zm226-251.9c-2.02-.55-3.43-.99-4.88-1.31-9.67-2.14-20.74,4.11-22.05,13.16-.67,4.59-1.92,6.41-6.79,6.88-7.42.73-13.28,6.99-13.71,13.17-.46,6.74,3.92,12.33,11.83,14.66,3.01.89,6.19,1.68,9.3,1.7,42.61.16,85.23.24,127.84.13,4.76-.01,9.71-.74,14.24-2.16,8.69-2.72,11.64-10.86,6.23-18.19-2.46-3.33-6.93-5.27-10.69-7.5-1.45-.86-3.47-.77-5.55-1.17,1.97-10.53-.78-19.22-9.89-24.38-9.02-5.11-18.24-3.33-26.88,2.24-6.85-16.11-16.49-29.14-35.46-28.44-19.09.7-28.21,14.09-33.56,31.21Zm551.58,308.79c-1.18.23-2.15.39-3.1.61-6.43,1.49-10.05,4.87-10.51,9.78-.42,4.5,2.95,9.42,8.88,11.32,4.52,1.45,9.41,2.41,14.14,2.44,34.26.22,68.52.31,102.77,0,4.74-.04,9.66-2.06,14.13-4,3.66-1.59,5.8-5.03,5.13-9.39-.68-4.44-3.61-7-7.71-8.26-2.15-.66-4.4-1.01-6.69-1.52.56-10.16-2.72-17.72-12.06-21.83-9.14-4.03-17.46-1.73-25.38,3.62-.6-.93-1.02-1.44-1.27-2.02-5.09-11.43-14.4-16.73-26.41-17.28-11.5-.52-19.7,4.77-24.33,15.51-.43,1-2.52,2-3.69,1.85-14.9-1.88-22.7,4.14-23.89,19.17Zm-151.09-91.89c.21-10.74-6.2-17.72-16.98-18.79-1.62-.16-3.4-1.12-4.66-2.22-5.02-4.37-12.2-4.81-17.37-.84-5.21,4-6.12,10.68-2.86,17.06,1.06,2.08,1.53,4.89,1.17,7.19-.97,6.08.92,11.5,5.89,14.78,5.46,3.61,10.96,3.54,16.25-.07,1.04-.71,2.28-1.46,3.48-1.55,10.5-.85,14.87-5.29,15.07-15.56Zm-75.98,99.18c7.48-.45,12.13-2.92,14.64-8.49,2.12-4.7.67-8.71-2.89-12.18q-6.67-6.49-1.62-14.52c3.54-5.63,3.91-11.3.2-15.22-2.2-2.32-5.24-4-8.14-5.49-7.03-3.61-9.5-8.94-7.13-16.43.75-2.37,2-4.61,2.54-7.02,1.16-5.17-2.63-8.65-7.59-6.86-2.09.75-4.1,2.25-5.64,3.89-9.25,9.86-9.85,24.84-1.72,37.78,6.86,10.91,6.85,11.06-1.57,20.44-.33.37-.67.74-.97,1.13-4.6,6.06-1.99,13.41,5.48,14.88,3.52.69,6.31,1.52,8.46,4.98,1.21,1.95,4.68,2.49,5.93,3.09Zm19.15-67.8c6.3.6,10.07-1.75,11.26-6.3,1.16-4.43-.29-7.76-4.54-9.89-1.19-.6-1.88-2.15-3.04-2.87-2.36-1.45-4.99-3.79-7.34-3.61-2.46.19-5.29,2.48-6.9,4.64-1.59,2.13-1.96,5.22-2.69,7.94-1.67,6.2,2.86,11.38,9.3,10.69,1.78-.19,3.55-.53,3.95-.59Z"/>
</svg>