<?xml version="1.0" encoding="UTF-8"?>
<svg id="Livello_1" data-name="Livello 1" xmlns="http://www.w3.org/2000/svg" viewBox="0 0 864.77 839.6">
  <defs>
    <style>
      .cls-1 {
        fill: #3d3d3d;
        stroke-width: 0px;
      }
    </style>
  </defs>
  <path class="cls-1" d="m172.85,465.64c7.93,4.49,12.67,11.62,17.09,18.92,5.28,8.72,9.86,17.9,15.47,26.39,11.02,16.66,27.28,27.48,43.82,37.89,10.29,6.48,20.47,13.13,30.74,19.64,1.3.82,2.86,1.24,4.54,1.94,1.14-8.72-.96-15.8-5.68-22.48-15.68-22.2-28.97-45.72-40.43-70.42-7.67-16.52-13.29-25.82-36.15-39.58,6.88,1.16,12.3,5.16,17.47,9.5,13.71,11.47,20.07,27.74,28.39,42.86,10.61,19.29,22.42,37.91,33.74,56.81.12.2.5.25,1.95.9-1.3-5.29-2.03-9.93-3.57-14.28-9.22-26.09-15.65-52.86-19.31-80.24-1.86-13.89-2.76-27.9-4.04-41.87-.12-1.3.12-2.64.26-3.95.02-.19.43-.33,1.26-.93,2.88,40.96,10.47,80.64,23.58,120.22.14-16.19-1.28-31.3,1.32-46.27.43-.03.86-.06,1.29-.09.43,2.74,1.11,5.47,1.24,8.23.76,16.25,1.01,32.54,2.16,48.77,1.2,16.99,3.19,33.92,4.89,50.87,1.29,12.81,2.21,25.68,4.14,38.4,2.22,14.61,5.54,29.04,8.09,43.6,1.53,8.75,2.65,17.59,3.71,26.41,1.43,11.81,2.75,23.65,3.84,35.49.32,3.51,1.52,7.41-2.26,11.7-4.98-28.48-9.33-55.95-14.67-83.22-5.4-27.58-8.32-55.4-10.22-83.73-15.39,4.79-30.58,9.46-45.73,14.26-23.72,7.51-48.05,11.22-72.86,12.63-5.33.3-10.77,2.77-15.69,5.19-13.73,6.78-27.75,6.84-42.31,3.51-10.18-2.33-20.48-3.03-31.05-2.02-26.19,2.5-48.12-6.21-64.77-26.92-6.09-7.58-5.79-17.05-6.09-26.03-.3-8.96.67-17.96.71-26.94.01-2.46-.74-5.28-2.07-7.34-6.28-9.76-7.57-19.8-2.8-30.51,1.14-2.55,2.02-5.21,3.14-7.77,3.36-7.65,5.16-15.04,4.25-23.97-1.62-15.93,4.38-27.43,20.78-35.28,2.19-1.05,4.45-2.88,5.66-4.95,14.83-25.43,29.5-50.95,44.14-76.49,6.06-10.58,11.41-21.43,14.32-33.46,1.24-5.12,3.92-10.13,6.92-14.53,4.29-6.29,5.75-12.51,5-20.26-1.23-12.7-2.04-25.65-.89-38.3,1.69-18.52.42-36.42-6.56-53.57-8.03-19.73-9.33-40.33-9.82-61.17-.1-4.3-.5-8.6-.85-12.89-.36-4.51,1.45-7.66,5.62-9.46,3.86-1.67,9.67-.04,12.25,3.79,4.31,6.41,6.42,13.58,7.11,21.28.51,5.67,1.52,11.29,2.4,17.63,1.09-.93,1.42-1.09,1.41-1.22-1.41-20.07,5.54-38.8,9.34-58.02,1.2-6.09,3.2-12.03,4.53-18.1,1.15-5.26,4.93-7.55,9.5-7.93,4.42-.37,7.8,2.39,9.61,6.51,3.49,7.95,3.86,16.3,2.67,24.75-.82,5.84-1.95,11.63-1.79,17.77,2.07-5.09,4.3-10.12,6.17-15.27,4.04-11.09,7.88-22.26,11.84-33.38,2.32-6.52,6.04-9.88,10.5-9.59,4.93.31,9.09,4.46,10.73,10.83,2.73,10.56.01,20.59-3.05,30.58-3.64,11.88-7.44,23.73-10.73,35.71-.89,3.26-.06,6.97-.22,10.46-.24,5.23-.66,10.44-.85,13.25,5.67-4.95,12.72-10.67,19.22-16.96,3.88-3.75,8.05-3.54,12.42-2.47,8.24,2.02,16.48,4.13,24.55,6.76,2.53.82,5.01,3.03,6.62,5.25,5.1,7.07,9.72,14.48,14.69,21.65.67.97,2.19,1.64,3.42,1.88,7.06,1.38,10.29,5.9,8.91,12.95-.5,2.57-1.71,5.06-1.85,7.62-.3,5.37-1.16,11.04.13,16.1,2.03,7.99-.96,13.61-5.62,19.36-3.41,4.21-6.88,8.59-9.13,13.45-3.88,8.38-8.98,15.53-15.29,22.33-6.43,6.93-10.54,16-16.87,23.05-5.55,6.17-12.06,12.34-19.42,15.81-9.93,4.67-14.48,12.42-17.91,21.66-7.83,21.1-14.26,42.65-16.9,65.03-2.05,17.41-2.8,34.97-4.1,52.46-.07.94.16,1.91.38,4.32,9.45-4.57,18.26-8.79,27.03-13.1,1.63-.8,2.99-2.48,4.66-2.79,9.43-1.77,14.27-8.76,19.16-15.94,5.52-8.12,13.76-11.75,23.22-12.04,7.32-.22,12.73-4.13,18.39-7.71,11.39-7.2,22.29-15.27,34.09-21.72,12.54-6.86,26.33-9.69,40.86-10.02,14.96-.34,29.71-3.03,43.93-8.2,5.03-1.83,10.52-2.37,15.76-3.66,1.67-.41,3.65-.97,4.73-2.16,4.22-4.64,8.14-9.57,12.19-14.41-4.6-8.3-10.38-16.51-13.87-25.61-3.41-8.91-4.4-18.73-6.66-28.1-.44-1.81-1.61-3.58-2.85-5.02-2.65-3.07-6.29-5.3-6.29-10.22,0-1.68-1.79-3.4-2.88-5.03-4.89-7.31-3.81-17.35,3.56-20.59.75-.33,1.52-1.77,1.45-2.63-1.18-13.56,3.75-25.67,9.06-37.6,2.74-6.15,3.93-12.14,3.2-18.95-.78-7.33-.88-14.9.03-22.19.9-7.19-1.68-13.43-3.04-20.07-1.11-5.44-2.97-10.43-5.38-15.49-2.32-4.87-1.36-10.44,3.78-15.05-8.4-2.89-11.71-9.3-13.08-17.08-.09-.49-.35-.98-.3-1.45,1.65-15.05,2.42-30.49,16.52-40.41,2.44-1.72,4.93-5,7.8-1.76-2.63,2.83-5.9,5.05-7.2,8.11-1.23,2.88-1.12,6.83-.29,9.96,1.37,5.15,4.06,6.17,9.31,4.83,6.87-1.75,9.15-5.4,8.94-12.31-.22-7.21,2.85-16.04,14.88-21.8-2.77-10.8.49-19.88,10.7-24.44,4.69-2.1,11.05-1.08,16.54-.49,2.47.26,4.69,2.92,6.56,4.18-4.81-.37-9.61-1.33-14.3-.95-5.44.44-9.44,6.39-8.57,11.35.86,4.89,7.29,8.69,12.57,8.13,11.39-1.21,18.92-8.74,26.86-15.69,7.49-6.55,15.89-11.17,25.97-11.97,14.19-1.12,24.22,6.23,32.39,16.73,4,5.14,8.65,8.04,15.38,8.33,9.91.41,19.44,2.1,27.56,8.92,4.56,3.83,10.55,5.95,15.22,9.68,7.78,6.21,11.67,14.6,11.05,24.97,5.15-7.73,1.96-18.34-7.82-26.66,9.66,1.56,15.39,13.78,12.49,25.68,4.7.58,9.67.52,14.16,1.96,4.27,1.37,8.95,3.36,10.24,9.75-6.39-5.95-12.94-8.9-22.01-7.06,15.89,4.24,22.67,15.46,25.7,29.33,1.16,5.33.05,11.12.53,16.65.25,2.85,2,5.55,2.51,8.42.4,2.24.68,5-.26,6.89-2.7,5.44-3.13,10.81-1.61,16.59,1.25,4.76.03,9.12-3.38,12.63-2.6,2.67-3.81,5.27-3.9,9.33-.09,4.44-2.5,8.84-3.95,13.43,10.18,6.39,12.91,21.9,7.62,35.16-2.5,6.27-6.53,12.35-11.19,17.25-6.7,7.05-12.5,14.08-15.12,23.8-2.59,9.63-7.76,12.26-19.31,11.2-.33,5.04-.67,10.06-1.03,15.64,13.73,1.98,18.7,12.53,24.74,22.76,4.82,8.15,11.5,15.34,18.07,22.27,2.48,2.61,7.25,2.89,10.54,4.94,10.03,6.25,19.49,13.48,29.82,19.16,22.04,12.11,44.7,23.08,66.66,35.33,10.86,6.06,21.04,13.49,30.84,21.17,3.56,2.79,5.3,8.03,7.56,12.32,1.67,3.18,2.28,7.02,4.33,9.88,15.82,22.05,24.19,47.22,30.68,73.11,4.39,17.48,7.03,35.45,12.34,52.62,3.68,11.91,10.13,23.06,16.19,34.09,5.19,9.46,8.74,19.02,8.56,29.93-.27,16.27,4.55,31.15,12.84,45.04,4.13,6.93,6,14.34,6.36,22.56.62,14.33,2.88,28.59,3.49,42.91.37,8.5.22,17.44-2.02,25.55-4.5,16.32-11.44,31.79-21.24,45.81-6,8.58-14.98,11.36-24.61,12.86-3.58.56-7.26.52-10.82,1.15-1.45.26-3.02,1.3-4.02,2.43-9.28,10.53-21.14,12.44-34.31,10.92-6.71-.77-13.4-1.14-20.08,1.47-15.73,6.14-29.12.68-40.8-9.82-4.59-4.12-7.92-9.63-11.89-14.46-.64-.78-1.56-1.47-2.49-1.85-30.39-12.43-60.75-24.95-91.24-37.11-6.2-2.47-12.89-3.82-19.46-5.16-1.98-.41-4.54.52-6.46,1.55-14.21,7.57-29.25,11.24-45.34,9.91-8.71-.72-17.46-1.41-26.07-2.83-8.2-1.35-15.13,2.47-22.59,4.18-5.9,1.35-12.07,3.92-17.78,3.2-10.9-1.38-17.9-9.55-15.42-21.62-4.6-3.71-9.54-6.52-12.81-10.65-3.35-4.23-4.63-9.83-2.2-15.77-7.26-2.39-13.51-5.73-15.39-13.87-.15-.67-2.16-1.42-3.2-1.29-8.63,1.08-14.08-3.95-15.67-12.22-2.44-12.65,4.44-21.34,10.95-30.4,5.55-7.73,10.72-15.96,21.75-18.21-2.37-2.18-4.75-3.59-5.99-5.69-2.03-3.42-4.31-7.18-4.71-10.97-.91-8.7,4.83-13.01,13.29-10.86,3.78.96,7.56,1.87,11.48,2.84,1.91-5.36,3.76-10.44,5.51-15.57.28-.81.34-1.88.07-2.67-2.83-8.16-5.75-16.29-8.96-25.3-6.73,9.68-12.75,19.05-19.53,27.83-5,6.48-10.96,12.23-16.6,18.2-.85.9-2.25,1.38-3.49,1.75-.92.27-2.46.44-2.88-.05-.66-.78-1.11-2.35-.77-3.25,4.95-13.12,5.76-26.77,4.98-40.54-.45-7.9-1.75-15.76-2.49-23.65-1.89-20.21-3.02-40.28,8.81-58.5,1.06-1.63,1.2-4.96.24-6.62-4.02-6.97-8.31-13.85-13.15-20.27-2.56-3.4-2.92-6.41-1.61-10.08,2.63-7.42,5.57-14.77,7.71-22.33,1.56-5.5.98-11.1-2.18-16.24-2.4-3.9-5.3-5.69-9.84-3.66-8.82,3.94-17.46,8.46-26.58,11.52-7.38,2.47-15.34,3.26-23.08,4.53-1.66.27-3.54-.46-5.27-.94-2.95-.81-3.32-2.6-1.25-4.69,18.41-18.58,28.54-41.99,38.44-65.55,4.14-9.86,8.36-19.68,12.78-30.07-8.3,2.52-16.48,5.19-24.77,7.47-13.71,3.79-27.67,5.71-41.94,6.02-5.49.12-10.99,1.67-16.38,3-1.42.35-2.88,2.09-3.59,3.55-6.46,13.26-9.66,27.47-11.67,41.95-1.83,13.21-3.5,26.45-4.95,39.71-.72,6.59-.76,13.26-1.18,19.89-.1,1.66-.48,3.31-1.5,4.83.83-36.64,2.24-73.18,16.97-107.94-14.23,4.66-25.58,13.7-37.71,21.42-6.98,4.44-14.5,8.08-21.97,11.7-2.1,1.01-4.85.69-7.31.93-8.73.86-14.09,6.57-18.88,13.09-.88,1.19-1.65,2.45-2.63,3.92,3.46,1.06,6.79,2.08,10.12,3.1-.08.39-.17.78-.25,1.16-4.63.5-9.34.61-13.86,1.61-3.93.86-8.2,1.96-11.35,4.28-8.92,6.56-18.85,10.57-29.27,13.78-6.46,1.99-6.67,2.85-3.23,8.58.43.71.96,1.4,1.21,2.17,3.24,10.12,9.87,18.41,14.81,27.6,14.68,27.3,12.97,54.03-4.75,79.49-3.48,5-7.86,9.37-11.89,13.96-.77.88-1.88,1.47-3.54,1.9,29.97-31.06,36.13-64.8,13.15-102.88-1.58,6.47-3.2,12.07-4.22,17.78-.36,1.99.4,4.4,1.24,6.36,6.94,16.22,5.77,32.4-.08,48.56-.52,1.44-1.43,2.75-2.77,3.96,3.51-15.57,6.06-31.03,1.14-46.74,2.45,20.7-3.81,39.01-15.53,55.58-11.85,16.76-27.11,28.24-49.02,29.95.66-5.87,5.25-6.99,8.21-9.44,8.88-7.37,17.97-14.49,26.94-21.76,1.11-.9,1.98-2.11,3.21-3.44-8.15,3.21-15.61,7.24-23.58,9.05-12.45,2.84-25.21,4.57-37.92,6.01-7.5.85-15.17.35-22.76.21-10.56-.19-17.63-6.68-24.02-14.02-5.83-6.69-11.36-13.64-18.3-20.28.51,11.83.35,23.74,1.74,35.47,1.23,10.41,9.87,16.06,17.61,21.69,14.32,10.42,30.47,12.78,47.94,11.74,11.42-.68,23.17.6,34.47,2.63,12.59,2.26,24.14.65,35.64-4.3,17.65-7.59,35.39-14.99,53.11-22.43,1.74-.73,3.58-1.21,5.37-1.8.21.44.41.88.62,1.32-9.91,5.3-19.82,10.61-29.73,15.91,34.4-1.73,66.16-13.25,98.47-24.97-4.25-2.99-8.52-6.14-12.94-9.07-12.34-8.2-24.83-16.19-37.09-24.51-13.14-8.91-22.97-20.93-30.44-34.76-6.81-12.62-13.39-25.31-23.75-35.52-.38-.38-.45-1.07-.67-1.62Zm431.57-279.15c1.53-.49,3.04-1.11,4.61-1.43,4.77-.99,10.06-1.18,10.54-7.42-5.34-.43-10.63-.86-15.92-1.29-.12.4-.25.8-.37,1.2,3.85,1.44,7.7,2.87,11.55,4.31-.11.48-.22.97-.33,1.45-4.42-.35-8.84-.7-13.48-1.07,1.22,1.51,2.34,2.89,3.44,4.26-6.05-2.45-12.1-4.89-18.03-7.29,5.29,3.85,8.7,12.52,18,7.28Zm-94.53,85.51c2.94,1.81,5.88,3.62,8.82,5.43.2-.37.4-.73.59-1.1-2.23-1.33-4.46-2.66-6.68-3.99.18-.35.36-.69.53-1.04,1.11.2,2.22.4,3.66.65-8.26-8.22-14.32-18.41-24.55-21.5,5.18,6.07,11.01,12.9,16.84,19.73-1.69-1.1-3.6-1.97-5.03-3.35-1.77-1.7-3.07-3.88-4.72-5.72-1.48-1.66-3.15-3.14-4.74-4.7-.18.19-.35.37-.53.56,2.83,3.84,5.67,7.69,8.5,11.53-8.39-6.8-14.21-16.72-25.52-19.79,6.85,6.87,13.16,13.8,20.14,19.98,4.72,4.18,10.38,7.3,15.61,10.89.18-.3.36-.6.54-.9-2.39-2.26-4.78-4.53-7.99-7.55,2.39.46,3.45.66,4.51.86Zm-74.48-20.38c-1.07,1.22-2.14,2.45-3.22,3.67-4.4,4.94-8.81,9.87-13.22,14.81.34.35.69.7,1.03,1.04,5.33-4.45,10.65-8.91,15.98-13.36.32.31.63.62.95.93-.24,1.29-.47,2.59-.92,5.08,1.97-3.17,3.3-5.29,4.71-7.57-1.16-.8-2.17-1.38-3.03-2.12-.85-.74-1.55-1.65-2.32-2.48-3.28-2.63-5.44-7.12-10.69-6.5-.4.05-.79.2-1.61.42,1.38.4,2.32.68,3.63,1.06-13.91,6.17-24.07,20.14-41.65,16.01.12.47.25.94.37,1.41h14.23c.09.37.18.74.27,1.11-4.9,1.1-9.8,2.2-13.84,3.11.71.15,2.57.9,4.4.85,10.6-.32,19.43-4.59,26.15-12.78,4.4-5.37,8.44-7.61,13.53-6.56-6.72,5.57-13.39,11.11-20.05,16.64.19.24.38.48.57.72,1.89-1.03,3.77-2.06,6.78-3.71-1.94,2.86-3.11,4.57-4.27,6.28,2.71-1.04,5.37-2.32,6.54-4.44,3.63-6.54,9.15-10.6,15.69-13.63Zm-27.04,88.02s.01.06.01.06c-.54-2.22-1.07-4.44-1.61-6.66-.62-.19-1.24-.37-1.86-.56-4.99,7.43-10.84,14.43-14.77,22.38-6.04,12.18-10.81,25-16.03,37.58-7.97,19.23-18.33,37.04-31.37,53.85,7.08-1.35,14.25-2.59,20.56-5.62,8.22-3.96,15.67-9.47,23.6-14.06,5-2.89,8.87-2.17,12.94,1.95,7.51,7.57,9.91,16.75,7.23,26.9-2,7.57-5.04,14.86-7.37,22.35-.52,1.68-.69,4.14.17,5.46,5.09,7.82,10.53,15.41,15.71,22.86,2.67-3.06,5.9-6.53,8.82-10.25.94-1.2,1.87-3.4,1.4-4.55-4.97-11.97-6.39-24.4-6.09-37.25.1-4.09-1.69-8.23-2.57-12.35-1.17-5.5-3.85-11.22-3.11-16.46,1.68-11.93,4.93-23.65,7.81-35.4,1.21-4.94,3.09-9.72,4.66-14.58.41.13.82.26,1.22.39-3.45,25.04-.63,48.55,16.1,69.26,2.03-2.75,3.48-4.73,5.09-6.9-15.83-21.38-18.82-45.86-16.55-72.18-11.29-3.08-16.03-12.81-20.49-22.82-.5-.05-.99-.1-1.49-.15-4.37,9.19-8.74,18.38-13.61,28.62-.63-1.92-.9-2.31-.8-2.53,4.17-9.04,8.38-18.05,12.52-27.1.28-.61-.06-1.49-.11-2.25Zm18.41,378.27l-.17-.17c.87,2.37,1.73,4.75,2.6,7.12-.44.23-.88.46-1.32.68-2.09-3.96-4.19-7.92-6.08-11.5-1.07,5.03,1.5,12.14,5.82,15.05,3.47,2.34,6.71,3.01,10.63.13,3.92-2.88,8.45-5.03,12.92-7.02,8.75-3.88,17.65-7.41,26.48-11.09-.03,2.96-1.69,5.49-5.22,7.07-10.18,4.57-20.33,9.19-30.42,13.94-1.71.8-3.09,2.3-5.29,3.98,2.21.48,3.78.48,3.91.91,1.53,4.96,2.84,9.98,4.23,15.06-1.31-.72-2.64-1.45-4.57-2.51,3.73,6.56,7.95,7.91,13.78,5.41,11.45-4.91,22.97-9.66,34.53-14.51-1.09,5.32-1.26,5.22-7.03,7.68-8.3,3.54-16.54,7.24-24.65,11.19-2.65,1.29-5.53,3.12-4.82,6.91.42-.3.85-.59,1.27-.89.76.87,1.52,1.74,2.19,2.51.22-.37.66-1.11,1.71-2.88.67,5.04,5.96,8.32-.16,13.94,18.33,2.85,32.69-7.04,48.94-10.65-1.43,1.59-2.37,2.64-3.43,3.82,6.44.41,12.49,1.11,18.54,1.1,9.86,0,20.04.96,29.51-1.11,10.76-2.36,20.89-7.6,31.3-11.59,2.45-.94,4.91-1.84,7.37-2.76.27.47.54.94.81,1.4-1.48.94-2.97,1.88-5.44,3.45,3.7.92,5.95,1.23,8.01,2.03,23.69,9.24,47.27,18.77,71.04,27.79,18.54,7.03,37.22,13.7,56.01,20,6.07,2.04,12.86,3.81,18.68-2.06-32.95-6.91-63.88-18.66-93.74-33.4,4,.77,7.76,2.2,11.48,3.71,26.74,10.85,53.54,21.52,82.15,26.64,4,.72,6.33-1.07,7.33-5.76-18.88-2.41-37.13-7.16-54.79-14.05,17.65,3.42,35.24,6.97,52.73,10.98,3.89.89,5.63.12,7.32-3.34,8.81-18.02,11.22-36.84,6.56-56.28-4.21-17.54-11.33-33.66-25.28-46.04-4.63-4.11-9.56-6.26-15.73-5.52-5.42.65-10.85,1.3-16.29,1.75-13.18,1.1-26.36,2.43-39.56,3.01-10.58.47-21.24.47-31.81-.2-12.01-.76-24.01-2.15-35.92-3.92-7.1-1.05-14.49-2.31-20.91-5.28-19.29-8.93-37.44-19.9-54.29-33.01-5.12-3.99-10.33-8.39-17.44-8.56-15.86-.36-31.74-.37-47.57-1.16-7.5-.37-14.91-2.35-22.4-3.25-1.5-.18-4.07.82-4.65,2-2.05,4.22-1.38,8.67,2.01,11.85,3.5,3.29,6.49,8.25,12.61,6.71,9.36-2.36,19.06-3.94,27.96-7.5,15.58-6.22,28.88,1.17,42.82,5.39.32.1.48.71,1.72,2.64-6.96-1.28-12.56-2.52-18.23-3.3-5.6-.77-11.54-2.45-16.83-1.34-13.62,2.86-27.01,6.86-40.38,10.8-5.03,1.49-9.74,4.1-14.59,6.2l.14-.13c-3.4,1.63-2.23,4.39-1.5,6.83.99,3.32,2.3,6.55,3.47,9.82-.51.22-1.02.44-1.54.66-1.85-3.91-3.7-7.81-5.59-11.79-3.83,5.37-7.65,11.3-12.08,16.73-2.92,3.58-2.38,6.71-.62,10.27,1.42,2.88,2.75,5.8,4.12,8.7-.33.17-.67.34-1,.5-1.65-1.58-3.3-3.16-5.61-5.36.73,2.64.67,5.14,1.87,6.19,2.19,1.92,4.99,3.58,7.79,4.25,3.41.81,3.58-2.65,4.25-4.86,1.48-4.89,3.83-8.96,8.46-11.61,1.77-1.01,2.96-2.99,4.53-4.4,1.53-1.38,3.02-3.27,4.85-3.79,12.05-3.44,24.85-4.51,35.72-11.63.66-.43,1.76-.18,2.66-.25.24.39.48.77.71,1.16-2.52,1.91-4.78,4.39-7.6,5.62-10.5,4.59-21.25,8.62-31.78,13.18-4.93,2.14-10.16,4.3-11.69,9.39,1.11,1.75,1.9,2.86,2.53,4.06.72,1.36,1.28,2.8,1.92,4.2Zm57.38-641.05c-.44-1.01-1.05-1.98-1.28-3.04-4.62-20.83-18.94-35.53-40.67-33.79-10.76.87-20.31,3.42-26.97,12.9-2.99,4.26-6.87,7.88-10.47,11.93,5.78-3.2,11.33-6.93,17.39-9.35,2.95-1.18,6.11-1.87,8.97-3.52,10.38-6.01,21.15-6.03,30.69.91,5.55,4.04,9.3,10.51,14.04,15.72,2.62,2.88,5.63,5.41,8.46,8.1,1.11,1.98,2.21,3.95,3.6,6.42-13.59-4.82-16.3-19.66-27.64-27.39,5.38,12.23,11.57,22.31,24.65,27.54-12.34,2.68-21.03-.48-28.98-8.15-2.86-2.76-8.44-3.94-12.7-3.77-7.01.29-13.07,3.96-18.16,8.97-14.44,14.2-18.12,33.77-25.92,51.43,2.25-4.44,7.48-3.67,10.93-6.09,2.98-2.08,9.21.48,13.76.97.08.32-.13-.52-.67-2.67,5.9,3.63,11.56,5.96,15.56,9.94,2.86,2.84,4.77,7.88,4.85,11.98.13,6.87,1.87,12.79,5.07,18.74,4.01,7.46,4.36,15.05.18,23.01-3.31,6.32-6.28,13.13-7.63,20.06-1.11,5.69-2.55,10.61-6.3,15.05-1.71,2.03-2.71,4.82-3.53,7.43-1.98,6.34,2.33,17.08,8.38,20.87,4.76,2.99,10.38,3.18,16.58-2.64,3.9-3.66,8.5-6.52,14.28-5.27,1.12.24,1.96,1.75,3.39,3.13,4.97-2.18,6.98-5.56,5.76-12.49-1.17-6.65-5.28-9.24-12.39-6.74,3.06-3.6,6.04-3.7,9.2-1.71,6.59,4.14,8.02,9.95,5.33,19.65,5.07.67,10.24,1.35,15.14,2-.74-.88-1.81-2.15-2.87-3.42,1.58.2,2.71.81,3.83,1.43,8.42,4.7,16.7,9.68,25.31,14.02,7.37,3.72,15.13,4.57,22.67.05,3.38-2.02,5.38-7.55,3.63-10.43-2.07-3.4-4.93-2.36-7.73-.87-.18.09-.53-.15-1.73-.54,1.25-1.3,2.05-2.62,3.22-3.25,4.49-2.41,8.73-.3,11.76,4.7,5.45,8.95-1.54,24.46-8.22,27.87-7.17,3.67-10.63,8.88-13.1,15.78-.99,2.77-2.51,5.39-4.05,7.92-1.09,1.8-2.61,3.34-3.93,5-.28-.2-.56-.41-.84-.61,3.16-6.95,6.33-13.9,9.77-21.46-2.76,0-4.27-.43-5.35.07-4.78,2.24-9.57,1.32-14.54,1.02-4.65-.28-9.69.23-14.04,1.82-5.2,1.9-9.58,6.02-14.78,7.93-8.73,3.2-17.68,6.81-26.79,7.73-15.77,1.6-29.26-3.58-37.36-18.57-2.08-3.85-5.71-5.94-9.76-4.95-6.24,1.54-11.6-.79-17.23-2.36-2.55-.71-5.12-1.35-7.8-2.05,1.45,18.82,8.43,34.38,20.19,48.04l-10.33-32.13c2.66,3.18,4.58,6.63,5.84,10.3,4.46,13.03,8.91,26.07,12.95,39.23,3.96,12.9,11.25,21.67,25.52,22.98,6.4.59,12.77,1.39,19.16,2.05,8.51.89,16.8-.04,24.5-3.86,18.14-9.02,30.8-24.24,43.7-39.15,1.16-1.34,2.35-2.65,3.53-3.97.35.32.7.64,1.05.96-7.89,9.84-15.78,19.68-23.87,29.76,1.4-.66,2.74-1.14,3.92-1.88,8.77-5.51,17.61-10.93,26.25-16.66,13.8-9.16,23.99-21.21,28.18-37.56,2.61-10.16,4.67-20.46,7.21-30.64.53-2.11,2.07-3.97,3.15-5.94.48.24.97.47,1.45.71.27,1.78.42,3.58.82,5.33,1.6,7.12,8.93,9.38,14.26,4.24,1.56-1.51,2.77-3.73,3.37-5.84,2.61-9.16,7.55-16.67,14.59-23.08,9.58-8.73,14.23-19.64,13.29-32.76-.93-12.97-10.4-18.76-22.01-12.85-7.76,3.95-13.31,10.16-16.7,18.19-1.62,3.85-2.79,7.91-4.53,11.7-.9,1.97-2.59,3.59-4.47,6.09-2.55-.82-6.13-1.96-9.71-3.1.06-.43.13-.87.19-1.3.91-.37,1.82-.73,2.19-.88v-9.01c.72.45,1.65,1.03,2.68,1.67-.59-2.25-1.66-4.29-1.55-6.25.4-6.72,1.2-13.42,1.88-20.12.09-.92.33-1.83.56-2.73.46-1.74,1.84-3.81,1.32-5.15-1.9-4.86-4.5-9.45-6.7-14.2-1.7-3.67-3.19-7.43-5.15-12.03,2.12.86,2.98,1.2,3.77,1.53-.3-2.97-.55-5.55-.81-8.14.35-.06.69-.13,1.04-.19.54.65,1.09,1.31,1.74,2.09.2-1.42.38-2.68.56-3.93,2.94,5.05,4.79,10.42,6.96,15.65,2.29,5.52,5.79,10.05,12.19,12.85-12.57-16.66-17.35-26.91-15.11-33.61,4.94,14.17,9.86,27.65,26.36,33.17-13.22-10.99-23.22-22.58-24.1-39.65.82,1.07,1.64,2.15,2.45,3.22,1.81,11.99,11.81,23.32,22.74,25.6-7.64-8.6-17.32-15.21-22.83-25.52-.98-4.56,1.86-9.78-2.69-13.8,7.93,2.81,7.9,12.37,13.54,16.93.5-.41,1-.81,1.49-1.22-5.67-8.12-11.33-16.24-17-24.36.1-.21.2-.42.3-.63,3.03,2.52,6.06,5.03,9.09,7.55.22-.26.44-.51.66-.77-3.95-3.57-7.89-7.14-11.84-10.7l.24-.62c2.72.95,5.44,1.91,8.15,2.86.14-.25.28-.51.42-.76-3.01-1.94-6.01-3.88-9.46-6.11,1.81-.32,2.98-.53,4.73-.84-3.68-1.5-6.73-2.76-9.79-4.01.09-.69.18-1.37.27-2.06,4.59,0,9.34-.75,13.76.14,13.35,2.67,21.86,11.35,27.32,23.5,1.54,3.43,3.73,6.57,6.05,10.59-2.33-8-3.91-15.13-6.53-21.85-1.62-4.15-4.11-8.51-7.44-11.31-8.39-7.07-18.28-6.1-28.11-3.26-2.3.66-4.52,1.59-6.78,2.39-.09-.52-.19-1.04-.28-1.56,14.56-9.54,29.56-13.99,46.27-1.79-.52-1.52-.55-1.89-.74-2.11-8.58-10.28-24.32-11.14-36.91-5.28-4.25,1.98-8.5,3.95-12.74,5.93l-.63-1.29c4.03-2.77,8.06-5.53,12.1-8.3-12.22,4.25-15.52,4.95-17.93,2.98,22.65-13.14,23.29-31.84,18.28-43.84-3.72-8.9-16.26-15.68-24.06-13.61,10.96,7.45,10.89,16.8,8.12,30.09-1.75,8.38-12.46,17.12-20.22,17.48.9-1.09,1.58-1.94,2.28-2.77,4.04-4.7,8.86-8.93,11.97-14.18,8.54-14.41,3.48-27.01-12.8-32.18,6.06,9.87,6.58,19.79,1.9,29.85-4.43,9.51-15.98,19.07-23.76,19.25,8.42-6.15,17.2-11.39,21.31-20.78,4.25-9.72,3.48-19.34-3.5-28.32,7.12,23.28-2.73,38.99-22.1,50-3.51,1.99-8.43,1.51-13.03,2.22.53-1.13.97-2.08,2.01-4.3-3.18,2.12-5.25,3.49-8.57,5.7,3.81-8.73,3.18-15.97-1.21-23.85,1.92,9.33,1.38,18.13-1.42,23.24,0-4.65.35-8.83-.1-12.92-.46-4.22-1.22-8.54-2.75-12.47-1.4-3.61-4-6.76-6.07-10.12-.47.28-.94.55-1.41.83.22.59.3,1.3.69,1.74,6.8,7.68,6.41,16.98,5.87,26.28-.04.74-1.05,1.43-1.64,2.17Zm156.58,296.02c-3.12-1.51-6.25-3.02-9.66-4.66,0,17.3-.19,34.11.08,50.92.13,7.95,1.05,15.89,1.75,23.83.52,5.91,1.14,11.82,1.95,17.7.87,6.39-1.41,9.07-7.39,7.39-5.13-1.44-10.79-2.85-14.82-6.04-8.92-7.07-17.09-15.1-25.31-23.01-9.89-9.52-20.56-7.94-26.6,4.52-7.5,15.45-7.36,31.86-5.27,48.39,1.58,12.51,1.04,24-10.47,32.51-6.64,4.91-12.47,10.94-18.56,16.59-.83.77-1.59,2.37-1.39,3.37,3.02,14.48.61,28.52-3.08,42.51-3.98,15.05-7.78,30.15-11.7,45.22-.98,3.78-.65,6.83,3.55,8.48,1.33.52,2.39,1.72,3.63,2.5,17.52,11,34.94,22.17,52.65,32.87,7.8,4.72,15.83,6.16,24.89,1.29,12.85-6.92,26.4-12.55,39.67-18.69,1.5-.7,3.14-1.1,4.72-1.64.22.51.44,1.01.67,1.52-15.05,7.73-30.09,15.47-45.33,23.3,30.7,4.53,61.18,6.34,91.74,2.08,0-2.06-.24-4,.05-5.86.73-4.72.06-8.89-2.21-13.32-4.23-8.28-7.93-16.88-11.13-25.62-2.17-5.93-2.26-12.69-4.8-18.41-5.71-12.9-12.8-25.19-18.48-38.1-3.63-8.24-5.76-17.14-8.56-25.74l1.3-.44c8.22,18.16,16.45,36.33,24.67,54.49.69-.2,1.38-.41,2.07-.61-12.51-40.55-17.05-81.16-1.63-121.82-.59,7.77-2.49,15.42-3.59,23.18-1.14,8.02-1.96,16.14-2.11,24.23-.15,8.29.3,16.64,1.18,24.88.83,7.81,2.57,15.52,3.9,23.27,2.33-59.86,28.71-108.6,68.61-151.43-5.33-5.57-11.42-9.69-18.86-12.76-10.72-4.42-20.51-11.06-31.02-16.07-16.76-7.98-32.01-18-45.29-30.96,3.26,1.77,6.69,3.27,9.72,5.38,2.83,1.97,4.92,5.05,7.84,6.8,10,5.97,20.14,11.72,30.39,17.27,11.13,6.03,22.57,11.5,33.6,17.69,4.78,2.68,9.14,6.28,13.19,10,1.97,1.81,3.03,2.31,5.39.93,3.93-2.3,7.97-4.57,12.24-6.1,3.24-1.17,7.1-2.05,9.51,1.88-3.86.5-7.91.21-11.24,1.61-11.64,4.89-21.45,12.78-28.85,22.74-8.4,11.3-15.79,23.44-22.72,35.73-18.12,32.11-27.43,66.81-28.55,103.64-.65,21.27,4.95,41.45,12.37,61.03,3.9,10.3,11.69,19.28,8.87,31.95,2.21-.52,3.9-1.12,5.04-2.27,10.33-10.41,21.96-18.25,37.31-13.71,8.84,2.61,17.27,1.54,25.16-1.02,16.74-5.43,33.4-5.29,50.27-2.1,4.05.77,7.85,2.87,11.77,4.36-8.62-.58-16.75-2.62-25-3.26-8.17-.63-16.45.15-24.68.32,7.28,1.88,14.51,2.71,21.46,4.58,14.51,3.91,28.95,8.3,39.15,20.46,2.37,2.83,3.99,6.28,5.95,9.45-.48.34-.96.68-1.45,1.02-5.1-9.05-12.09-15.9-21.78-19.87-12.51-5.12-24.28-8.35-27.93-7.43,20.45,18.6,45.14,33.54,55.01,61.66-4.86-6.03-8.94-12.69-13.79-18.74-4.84-6.03-10.45-11.45-15.73-17.13-.56.3-1.12.6-1.67.9,22.85,38.98,20.02,77.29-3.16,115.88,12.21-1.26,23.47-2.55,29.66-13.74,5.81-10.49,10.93-21.38,15.93-32.29,5.3-11.58,6.13-23.75,4.14-36.33-1.24-7.81-1.62-15.77-2.09-23.67-.4-6.71.79-13.75-.83-20.11-2.11-8.27-5.67-16.35-9.76-23.9-6.73-12.43-9.41-25.63-9.42-39.49-.01-10.19-2.98-19.27-7.86-28.14-5.2-9.44-10.88-18.97-13.91-29.19-5.99-20.23-9.8-41.11-15.44-61.46-6.05-21.83-12.88-43.46-24.84-63.05-3.41-5.58-5.93-11.7-8.93-17.55-1.47-2.86-2.54-6.19-4.72-8.37-9.56-9.54-21.31-15.96-33.24-21.93-29.25-14.64-59.19-28.03-84.9-48.87-3.93-3.19-8.92-5.08-13.91-7.84.76,7.94,1.15,14.85,2.22,21.66.33,2.07,2.3,4.06,3.93,5.69,1.93,1.93,4.29,3.42,6.47,5.1ZM57.87,441.39c.48.12.96.25,1.43.37,0,.43.09.88-.01,1.29-3.35,13.52-6.84,27.02-9.94,40.59-.51,2.24-.25,5.83,1.18,7.17,9.96,9.34,22.26,13.91,35.65,15.18,17.89,1.69,33.96-3.55,48.25-14.28,9.27-6.97,16.77-15.3,17.37-27.6.9-18.44,1.01-36.92,2.2-55.34.76-11.81,2.16-23.68,4.51-35.26,4.84-23.78,10.5-47.4,22.11-69.25-1.93-.13-3.64-.25-5.35-.36,4.53-3.65,9.36-6.31,14.3-8.75,13.45-6.66,24.7-15.66,32.63-28.72,3.21-5.29,7.71-9.79,11.5-14.74,2.8-3.65,5.53-7.37,8.06-11.21,4.7-7.14,8.24-15.34,14.06-21.38,7.81-8.1,4.75-17.05,3.16-25.13-1.16-5.87-1.15-10.48,1.8-15.16,1.49-2.37,3.56-4.36.5-6.75-2.8-2.19-5.69-3.26-8.8-.12-1.95,1.97-4.34,3.5-6.52,5.24-10.67,8.51-10.79,26.33-.25,34.54.13.1-.05.59-.29,2.55-4.25-3.11-7.84-5.74-11.5-8.42-6.42,3.46-8.34,13.38-17.49,14.61,1.14,2.19,2.25,4.32,3.07,5.88-6.14-4.21-12.35-8.57-18.7-12.73-1.75-1.15-3.94-1.6-5.83-2.57-.64-.33-1.15-1.2-1.4-1.93-.96-2.78-1.79-5.6-2.37-7.43,1.42-8.78,2.75-17.01,3.95-24.43-4.72-2.77-8.43-4.94-12.14-7.12,4.79.26,9.91,2.76,13.34,1.29,3.78-1.61,6.01-6.86,8.56-10.08-2.93-3.77-5.14-6.61-7.34-9.44l1.1-1.34c4.87,6.35,11.17,8.49,18.97,7.14.18-1.46.37-2.99.56-4.52,1.6.95,2.04,2.3,2.89,3.31,4.19,5.03,8,10.54,12.88,14.8,5.38,4.69,11.68,3.24,15.62-2.37-9.4.67-12.27-.79-14.47-7.37-1.68-5.04,1.39-7.29,5.52-8.94-1.36-2.46-2.57-4.79-3.93-7.04-1.66-2.75-3.51-4.81-7.15-2.49-1.18.75-2.96.56-4.46.8-.05-.42-.11-.85-.16-1.27,1.3-.33,2.59-.66,4.38-1.12-7.32-2.2-14.3-3.99-21.04-6.44-4.38-1.59-8.28-1.51-11.84,1.3-1.89,1.49-3.24,3.68-4.85,5.54-4.54,5.25-9.13,10.46-13.63,15.74-2.28,2.68-3.04,5.46-.21,8.37.8.83,1.29,1.96,1.96,3-7.81-.84-15.25-1.64-22.7-2.45l-.16-1.64c2.5-.27,5.03-.9,7.5-.72,2.68.19,5.31,1.12,7.52,1.63v-34.9c-3.79-.29-8.36,1.72-10.15-4.25,3.96.22,7.31.41,10.92.61,3.03-10.23,6.16-20.82,9.16-30.94-3.44-.59-6.49-1.11-9.53-1.63l.25-1.66c2.45,0,4.93.24,7.32-.1,1.15-.16,2.67-1.2,3.11-2.23,4.14-9.77,5.74-19.96,3.75-30.45-.63-3.35-2.13-6.59-6.56-6.91-4.08-.29-5.24,2.54-6.49,5.43-.32.75-.55,1.53-.84,2.3-6.61,17.85-12.94,35.82-19.98,53.51-3.03,7.6-4.65,15.24-3.77,23.18,1.09,9.89,3.04,19.69,4.61,29.52-.41.22-.81.44-1.22.65-1.18-1.72-2.86-3.29-3.44-5.19-.95-3.12-1.26-6.45-1.71-9.7-1.41-10.28-3.66-20.42-1.73-31.02,1.22-6.72.87-13.73,1.22-20.44h-9.76c-.02-.34-.04-.68-.06-1.02,3.58-.45,7.17-.9,10.48-1.32.76-4.3,1.6-8,2.03-11.74.81-7.12,1.2-14.34-2.61-20.78-1.15-1.94-3.75-4.08-5.8-4.19-3.09-.17-5.55,1.66-6.32,5.55-2.25,11.25-5.69,22.29-7.32,33.61-2.04,14.19-7.46,27.61-6.02,42.73,1.2,12.69,4.09,23.83,11.58,34.27-2.86,2.54-5.66,5.01-8.45,7.49l-.96-1.05c1.76-1.94,3.51-3.88,5.41-5.97-9.25-13.33-15.08-28.01-18.09-43.31-2.71.8-5.12,1.51-7.53,2.23,2.1-2.55,6.03-4.15,6.15-6,.62-9.48-.07-19.04-7.59-26.15-1.44-1.36-4.66-1.8-6.65-1.23-1.2.34-2.34,3.46-2.27,5.29.43,11.24,1.07,22.48,1.92,33.7.92,12.14,2.15,24.13,7.28,35.57,9.19,20.5,11.36,42.27,9.29,64.45-1.23,13.18-.24,26.14,2.15,39.06.92,4.99,2.18,9.91,3.29,14.86-.37.15-.73.3-1.1.45-1.53-2.02-3.06-4.04-4.84-6.39-.51.77-.81,1.28-1.17,1.75-6.85,8.79-8.44,19.86-12.92,29.61-7.67,16.69-16.53,32.87-25.42,48.96-3.77,6.83-7.73,13.12-3.73,21.11.06.11-.27.42-.81,1.21-1.29-2.97-2.36-5.44-3.43-7.9l-1.7.3c.5,4.63,1,9.27,1.5,13.9-.2.09-.4.18-.61.26-1.01-2.45-2.02-4.9-3.03-7.35-.5.06-1.01.13-1.51.19.27,4.38.55,8.76.91,14.46-1.54-3.28-2.56-5.45-3.53-7.52-5.32,5.14-1.02,10.61-1.43,16.1-1.12-2.45-2.25-4.91-3.46-7.57-4.41,5.45.82,10.49-.41,15.71-1.17-2.78-2.34-5.57-3.53-8.39-7.74,8.37-3.9,17.21-.65,26.02-.5.09-.99.19-1.49.28-1.59-4.05-3.19-8.11-5.18-13.18-.73,3.05-1.64,5.2-1.63,7.34,0,2.24.8,4.52,1.45,6.72.58,1.97,1.45,3.85,2.19,5.77-.38.13-.76.27-1.15.4-1.5-3.08-3-6.15-4.63-9.49-4.1,8.56.5,15.8,2.23,23.3-.39.12-.78.23-1.18.35-1.54-3.87-3.08-7.75-4.43-11.16-1.91,5.9.88,16.39,6.76,23.23,7.33-28.47,17.95-55.44,30.89-81.55.07,1.25-.23,2.37-.66,3.45-10.14,25.48-20.92,50.71-27.63,77.45-1.48,5.88,2.14,7.61,4.03,10.55,4.12-15.05,8.17-29.85,12.22-44.64Zm732.72,322.35c.49.05.99.09,1.48.14-1.12,18.96-5.13,37.04-17.82,53.24,9.43-5.39,13.17-13.99,17.93-21.77-3.39,16.55-15.16,26.14-28.71,34.8,8.65-.21,17.29-.16,25.09-2.7,9.24-3,13.67-11.95,18.34-19.94,11.8-20.17,16.44-42.11,13.7-65.11-2.11-17.73-9.32-34.14-20.34-48.07-18.5-23.37-27.75-24.61-48.75-20.66,7.14,5.05,15.27,9.64,21.96,15.79,13.93,12.81,16.36,16.69,16.8,21.69-7.86-9.99-15.72-19.63-26.26-25.84,6.9,8.6,14.45,17.13,20.98,26.36,9.14,12.91,13.39,24.52,12.49,31.14-.48-1.06-.94-1.91-1.27-2.8-8.85-24.61-23.64-44.76-45.46-59.33-8.75-5.84-18-11.18-29.35-8.54-6.56,1.53-12.5,4.22-18.04,10.46,4.46-.6,7.54-1.28,10.64-1.36,3.09-.07,6.28.11,9.29.79,9.98,2.24,16.85,9.29,22.42,16.97,15.01,20.69,22.14,43.79,19.22,69.63-2.01,17.86-8.2,33.64-21.91,45.74-9.89,8.73-21.03,10.6-32.69,3.8-2.42-1.41-5.13-2.33-7.71-3.47-.23.4-.47.81-.7,1.21,3.35,2.92,6.51,6.1,10.08,8.72,11.18,8.22,23.1,12.37,36.82,6.17,21.15-9.56,33.56-25.88,38.01-48.5,1.22-6.19,2.5-12.38,3.75-18.57ZM70.87,532.07c1.08,0,2.18-.12,3.24.02,11.4,1.54,22.75,1.39,34.03-1.04,22.74-4.89,40.65-16.3,51.11-37.81,5.39-11.08,4.78-22.13.77-31.89-2.17,6.16-3.05,14.44-7.4,20.01-16.8,21.48-38.78,32.34-66.86,29.9-22.45-1.94-39.31-12.47-51.03-31.11-9.24-14.69-13.58-30.36-4.07-46.95.09-.16-.23-.56-.37-.85-13.09,6.43-16.59,18.66-14.96,31.1,1.01,7.7,3.61,15.36,6.53,22.62,5.72,14.21,13.53,27.14,26.08,36.61,1.24.94,2.07,2.42,3.09,3.65-15.15-7.21-23.55-20.19-30.75-34.23,4.03,16.14,13.46,28.2,27.13,37.04-22.28-9.69-29.83-28.96-32.87-51.33-2.47,5.55-4.33,11.14-6.65,16.52-4.25,9.85-2.89,19.03,3.29,27.41,7.73,10.48,15.74,20.74,23.86,30.92,7.4,9.27,16.93,13.79,29.08,12.49,6.75-.72,13.58-.68,20.36-1.11,14.34-.92,28.54-3.07,41.54-9.35,23.53-11.36,34.87-24.8,32.51-52.07-10.28,14.15-23.6,23.42-39.57,28.85-15.9,5.4-31.95,6.13-48.09.59Zm511.23-238.31c-.31,4.75-.67,8.91,3.28,12.87,2.33,2.33,3.19,6.84,3.4,10.44,1.39,23.43-3.09,45.91-11.74,67.62-2.61,6.55-4.95,13.28-8.27,19.47-8.44,15.71-14.97,31.95-19.49,49.32-5.83,22.38-18.99,41.31-32.19,60-.82,1.16-1.68,3.08-1.27,4.17,2.53,6.71,5.43,13.28,8.6,20.83,8.53-8.35,17.09-16.18,24.87-24.72,2.26-2.48,3.15-7,3.19-10.59.13-12.93-.93-25.88-.47-38.79.34-9.69,2.88-19.16,8.17-27.57,5.46-8.68,13.7-12.05,21.79-7.94,4.72,2.4,8.88,6.16,12.79,9.84,5.08,4.77,9.4,10.37,14.54,15.06,5.7,5.2,12.54,8.52,20.46,9.68,0-1.47.11-2.64-.02-3.78-1.27-11.14-3.31-22.25-3.73-33.42-.84-22.93-.65-45.89-1.24-68.83-.23-8.87-.66-18.24-8.01-24.63-8.84-7.69-14.71-17.25-19.92-27.47-3.06-6.01-7.45-10.71-14.76-11.57Zm-4.31-15.73c-.17-.03-.35-.06-.52-.08-.77,2.79-1.69,5.54-2.3,8.37-3.38,15.67-9.72,29.46-22.01,40.54-8.09,7.3-14.73,16.19-22.18,24.22-13.61,14.67-27.46,29.12-43.51,41.26,19.13-19.4,38.26-38.81,57.39-58.21-.36-.37-.73-.73-1.09-1.1-20.49,20.16-40.98,40.33-61.47,60.49-.04-.03-.07-.07-.11-.1,15.11-15.91,30.21-31.82,45.32-47.73-.11-.12-.22-.23-.33-.35-18.38,17.09-36.75,34.18-55.55,51.65,3.73,5.17,8.57,11.45,5.39,21.53-2.31-5.79-3.43-10.92-6.2-14.91-2.99-4.3-7.52-7.52-11.09-10.94-2.66,2.49-5.46,4.67-7.7,7.33-3.69,4.39-9.5,8.91-9.82,13.7-.36,5.31,4.4,10.98,6.98,16.46.34.73,1.15,1.26,1.42,2,1.13,3.04,2.86,3.32,5.82,2.18,6.67-2.57,12.93-1.58,17.55,2.87,3.42-.52,6.29-1.69,8.82-1.19,4.38.87,8.54,2.79,13.11,4.37,13.8-11.29,28.37-22.75,42.42-34.83,16.58-14.26,30.51-30.74,38.22-51.59,3.22-8.71,6.24-17.56,4.58-27.25-1.36-7.93-2.52-15.94-3.02-23.96-.51-8.22-.11-16.49-.11-24.73Zm-97.05,210.7c-.38-.1-.75-.2-1.13-.29-.57,1.78-1.71,3.58-1.62,5.33.96,17.74-3.91,34.61-7.85,51.55-3.81,16.4-2.46,31.85,4.7,47.16,5.32,11.39,9.84,23.2,14.04,35.06,1.95,5.51,4.06,8.99,10.56,7.61,1.48-.32,3.19.43,5.07.74.6-3.56.95-7.17,1.85-10.65,3.21-12.37,6.43-24.75,9.96-37.03,5.96-20.71,7.09-41.22-2.18-61.31-7.97-17.29-16.14-34.49-24.33-51.67-1.36-2.85-3.29-5.44-4.95-8.15-.68,4.6-.38,8.65-.06,12.71.22,2.82-.22,5.91.78,8.42,3.52,8.84,7.38,17.56,11.4,26.19,9.06,19.44,11.43,39.4,7.44,60.65-1.59,8.49-6.67,17.03-2.71,26.25.13.29-.68.99-1.05,1.5-.51.06-1.03.12-1.54.18-1.1-5.81-2.76-11.58-3.17-17.44-.77-10.95.45-22.18-1.44-32.88-3.79-21.45-9.11-42.62-13.8-63.91Zm-98.66-238c7.37,1.4,13.9-.24,19.66-4.15,5.84-3.97,11.44-8.34,16.88-12.84,3.35-2.77,5.72-7.24,9.44-8.95,5.26-2.42,8.23-6.63,8.47-11.18.57-10.95,5.56-20.15,9.28-29.95,1.5-3.95,2.23-8.75,1.56-12.88-2.12-13.13-10.9-21.52-22.2-27.27-3.61-1.84-8.68-3.61-12.08-2.45-6,2.05-11.52,5.99-16.68,9.88-3.58,2.7-4.92,6.93-4.67,11.79.4,7.74.84,15.61-.08,23.26-.67,5.56-3.91,10.77-5.31,16.31-2.44,9.67-5.06,19.4-6.19,29.27-.71,6.18,1.18,12.65,1.92,19.18Zm22.65,384.15c2.91-3.15,6.19-6.04,8.67-9.5,9.87-13.77,19.39-27.79,29.22-41.6,11.38-15.98,15.71-33.17,11.6-52.77-1.98-9.45-1.51-19.4-2.26-29.12-.17-2.2-.78-4.37-1.19-6.56-.5.07-1.01.15-1.51.22-.44,1.18-1.03,2.33-1.31,3.56-3.97,17.15-10.76,33.27-18.11,49.17-.78,1.7-2.62,2.91-3.97,4.34-.64-.22-1.28-.44-1.92-.66,0,8.8.17,17.6-.08,26.39-.1,3.38-.05,7.16-3.54,10.45,0-5.01.24-8.97-.04-12.88-1.1-14.98-.19-29.78,3.62-44.33,3.6-13.74,11.39-25.36,18.93-37.13.96-1.49,1.05-3.89.76-5.74-.35-2.18-1.55-4.22-2.24-5.96-5.86,7.32-11.14,15.22-17.7,21.86-18.33,18.58-19.17,41.54-17.43,65.27.64,8.72,2.12,17.39,2.62,26.12.74,13.05-.16,25.99-4.11,38.86Zm142.83-202.42c-17.72,15.33-37.06,26.12-60.76,32.73,3.65,2.05,6.39,4.96,8.59,4.6,16.29-2.67,32-7.39,46.2-16.12,1.78-1.09,3.67-3.17,4.1-5.1,2.99-13.59,8.45-26.2,14.75-38.49,7.11-13.86,13.3-28.08,17.32-43.68-.72.6-1.17.81-1.37,1.17-15.23,26.65-38.07,45.84-62.15,63.91-8.56,6.43-16.68,13.48-24.69,20.6-2.32,2.06-3.56,5.32-5.3,8.03.63.63,1.25,1.26,1.88,1.89,16.53-10.05,33.07-20.1,49.6-30.15.19.25.39.51.58.76-9.68,7-19.37,14.01-29.28,21.17.73,0,1.28.17,1.63-.02,12.75-6.95,25.47-13.94,38.9-21.3ZM237.16,177.94c-6.54-1.61-11.12-7.2-15.76-12.88-1.22-1.49-3.53-2.45-5.51-2.87-4.65-1-8.16.41-10.04,5.33-.78,2.04-3.07,3.46-4.22,5.43-1.22,2.1-2.34,4.45-2.74,6.81-.97,5.68-.95,11.58-2.39,17.12-1.19,4.59-.23,8,3.31,10.4,4.62,3.12,9.62,5.68,14.54,8.32.66.35,2.15.14,2.68-.39,5.31-5.26,10.5-10.65,15.7-16.02.18-.19.04-.65.11-.97,1.41-6.63,2.82-13.27,4.31-20.27Zm230.07,260.56c-13.39-2.52-21.18,5.61-21.39,17.89-.12,7.2-.24,14.42.1,21.61.4,8.53,4.39,15.71,14.88,16.48-5.54-9.14-11.13-18.13-11.47-29.08,5.56,8.77,10.7,17.7,15.47,26.82,1.93,3.69,4.05,5.97,6.81,5.06,1.74-4.66,3.21-8.23,4.4-11.89,1.08-3.35,3.55-7.57,2.44-10.08-2.98-6.69-.31-12,2.44-17.27,2.61-4.99,6.2-9.46,9.37-14.17-5.22-3.8-12.3-4.54-17.07-.45-4.56,3.92-9.65,8.39-11.71,13.7-2,5.16-.43,11.7-.43,17.06-7.7-9.18-4.27-28.07,6.16-35.68Zm74.54,22.32c-15.18,5.25-30.51,10.55-46.34,16.03,5.14,10.75,10.78,22.52,16.8,35.1,11.58-17.16,22.31-33.55,29.54-51.13Zm-119.56-48.75c2.84,14.59,6.3,28.77,19.24,38.23-3.88-8.95-9.25-17.34-12.22-26.52-3.03-9.34-3.71-19.43-5.37-28.97-.79,3.01-1.86,6.42-2.56,9.9-1.74,8.61-5.9,16.82-3.48,26.1,3.66,14.01,11.19,25.29,22.73,34.93.52-6.65.9-11.64-4.62-16.51-10.94-9.65-13.23-23.28-13.72-37.18Zm64.43,222.97c-3.82-10.49-7.79-21.38-11.75-32.28l-2.03-.3c-6.86,10.71-13.72,21.43-20.86,32.58h34.65Zm9.95-571.18c-.08-10.34-2.57-19.73-11.13-26.69-7.21-5.85-15.89-6.86-24.48-6.79-5.41.04-10.76,3.17-16.21,3.42-6.17.29-12.58-.62-16.92-6.24-3.6-4.67-3.26-9.73-1.35-15-7.29,9.08-4.76,21.52,6.36,23.8,6.55,1.34,13.67,2.26,20.14,1.13,21.35-3.72,37.31,8.12,43.6,26.37Zm8.67,7.54c7.95-8.45,10.51-19.88,7.34-31.29-3.34-12.02-14.76-21-26.8-20.98-12.33.02-22.82,5.92-33.66,10.69,5.43-1.1,10.82-2.37,16.05-4.13,14.43-4.86,29.52,3.65,35.51,13.73,6.19,10.4,6.54,20.99,1.56,31.97Zm19.05-6.32c13.03-14.08,10.43-36.99-5.67-52.73-11.43-11.17-32.06-10.59-44.56,1.48,5.24-1.54,10.12-3.42,15.18-4.38,13.95-2.66,28.71,3.94,33.51,17.39,4.45,12.48,7.58,25.18,1.54,38.23Zm-96.81,214.42c4.39,1.96,8.3,4.86,12.49,5.35,11.11,1.3,22.33,1.75,33.52,2.04,2.14.06,4.33-2.14,6.5-3.3-.23-.44-.46-.88-.69-1.32-1.16-.08-2.34-.03-3.47-.27-10.28-2.22-20.54-4.53-30.83-6.7-1.24-.26-2.66-.13-3.9.2-4.18,1.13-8.32,2.43-13.63,4.01Zm91.75-254.11c-8.62-14.02-28.15-17.39-44.54-8.34,11.93-3.23,23.21-1.96,32.18,6.74,8.82,8.54,11.89,19.74,11.62,32.1,1.55-3.99,2.53-8.01,3.34-12.06,1.99-9.96-3.73-16.72-10.56-23,.4-.3.79-.6,1.19-.91,1.95,1.58,3.9,3.15,6.76,5.47ZM106.33,585.5c22.06-.7,45.19-26.61,50.85-48.89-12.73,20.67-30.49,36.07-50.85,48.89Zm384.21-72.65c2.03,11.56,4.8,23.98,6.25,36.54,1.46,12.71,1.61,25.57,2.34,38.33,5.73-26.29,6.14-51.98-8.59-74.88ZM422.2,59.56c-7.46,7.08-13.96,13.47-23.86,12.48-10.68-1.06-14.99-8.5-16.74-18.77-3.88,8.78-.65,16.86,4.86,20.73,9.89,6.93,29.23,2.07,34.67-8.75.64-1.28.58-2.91,1.08-5.68Zm204.39,82.78c-2.43.22-4.81.96-6.96.54-8.88-1.71-16.3-5.61-20.86-14.05-3.43-6.34-8.03-11.81-13.75-14.91,2.26,5.9,4.51,12.43,7.26,18.75,2.41,5.55,5.15,11.04,11.3,14.63-2.71-4.89-5.06-9.13-7.4-13.36.3-.15.6-.3.89-.45,3.43,4.29,6.86,8.59,10.3,12.88.38-.32.75-.64,1.13-.96-1.81-1.93-3.62-3.86-5.44-5.79,1.88.16,3.16,1.16,4.61,1.7,4.87,1.84,9.73,3.79,14.75,5.14,2.82.76,5.23-.25,4.18-4.12Zm-141.1,147.64c-11.7,0-23.39.37-35.03-.18-4.81-.23-8.08.98-11.3,4.98,16.83,7.06,31.73,1.86,46.33-4.8Zm96.23-207.97c1.08-.19,2.15-.39,3.23-.57,9.99-1.71,19.32,1.4,26.1,7.81,7.34,6.94,9.91,17.14,10.91,27.37.37,3.81,1.29,7.56,1.97,11.34.56-10.69.67-21.31-4-31.13-4.85-10.21-12.51-17.33-23.97-18.94-4.95-.69-10.17.09-14.24,4.12Zm-1.97,20.44c10.53,4.55,16.47,13.33,21.25,23.1,4.82,9.86,12.97,14.49,23.58,15.29,1.06.08,2.19-.89,3.56-1.49-6.35-2.46-12.55-3.75-17.32-7.08-3.62-2.53-5.53-7.6-8.03-11.64-5.5-8.84-12.26-16.02-23.04-18.18Zm-154.31,446.4c.45.17.9.34,1.35.5,6.11-16.42,12.23-32.85,18.34-49.27-10.2,14.88-19.49,30.09-19.7,48.77ZM500.44,61.39c2.33-25.71-8.83-36.6-32.12-32.76,17.02.84,28.43,9.73,32.12,32.76Zm-32.35,528.14c-4.96,12.08-9.4,22.87-13.83,33.67.31.12.62.23.93.35,5.63-8.19,11.26-16.37,17.03-24.75-1.09-2.45-2.36-5.3-4.13-9.27Zm28.97-317.09c.1-.75.21-1.51.31-2.26-5.4-4.59-10.79-9.18-16.19-13.77-.33.3-.65.61-.98.91.15,1.58.3,3.17.55,5.76-2.77-2.26-4.69-3.83-6.62-5.4-.85,3.6,3.23,10.08,7.79,12.67-.33-2.26-.68-4.64-1.08-7.35,4.09,3.21,7.97,6.46,12.1,9.36.93.66,2.72.1,4.12.1Zm-27.3,122.93c15.29-13.88,30.31-27.53,45.34-41.18-.39-.43-.77-.86-1.16-1.29-15.37,13.45-30.74,26.9-46.43,40.63.02.02.78.63,2.25,1.84Zm150.19-263.2c.52-.35,1.03-.7,1.55-1.05-7.81-10.22-7.05-13.02-7.53-18.22-1.24-13.67-8.36-20.7-22.88-21.29,13.78,3.39,18.34,13.87,21.47,26.08,1.31,5.12,4.86,9.67,7.39,14.48Zm-243.45-68.27c-2.9,11.91,4.84,17.57,11.43,20.03,7.48,2.79,16.06.43,18.83-4.26-4.37.21-8.96.43-13.56.64,0,.31,0,.62,0,.92h6.82c0,.47,0,.95,0,1.42-1.99.09-4.02.47-5.97.23-10.48-1.33-14.01-9.73-17.55-19Zm213.89,77.79c-.4.5-.8.99-1.2,1.49,3.05,3.58,5.6,7.86,9.3,10.56,3.85,2.8,8.82,4.07,13.3,6.01.3-.58.6-1.16.9-1.74-3.84-2.73-7.5-5.79-11.59-8.09-3.96-2.23-5.47-7.96-10.71-8.22Zm-166.52-79.01c10.29-7.03,20.78-11.89,33.55-4.34-7.78-12.14-26.52-6.93-33.55,4.34Zm-9.07,15.31c-10.53,9.63-21.61,14.08-34.74,5.43,10.52,12.3,30.46,7.54,34.74-5.43Zm34.51,506.42c-5.07,3.25-4.71,6.61-2.83,11.01,2.57,6.01,4.19,12.42,6.22,18.66.24-.02.49-.04.74-.05-1.35-9.68-2.69-19.36-4.12-29.62ZM241.67,155.08c-5.35,2.15-5.42,2.24-3.88,6.15,1.75,4.46,4.91,8.17,12.31,3.82-2.88-3.4-5.7-6.74-8.42-9.97Zm195.05,313.01c-2.7,6.78-5.38,13.5-8.06,20.21.48.2.96.4,1.44.6,3.23-4.33,6.63-8.54,9.63-13.02,2.51-3.74,1.56-5.88-3.02-7.79Zm158.87-303.4c6.13,8.16,20.92,13.1,25.18,8.06-8.51-2.72-16.94-5.42-25.18-8.06Zm-27.52-83.19c9.87-4.17,14.47-15.51,11.17-28.86-1.14,5.22-1.67,10.69-3.58,15.61-1.89,4.86-5.19,9.18-7.59,13.25Zm-92.35,186.3c-3.96-6.18-7.68-12-11.41-17.82-.46.06-.92.12-1.39.18-.12,1.28-.65,2.7-.28,3.83,2.17,6.53,4.88,12.69,13.07,13.82Zm-3.21,116.13c.47.54.94,1.07,1.4,1.61,9.31-8.16,18.62-16.32,27.94-24.47l-1.03-1.18c-9.41,8.05-19.5,15.31-28.31,24.04Zm2.15,117.73c-6.78,2.36-16.61,15.24-16.14,20.47,4.27-7.63,12.71-11.16,16.14-20.47Zm-19.53,96.53c10.61-10.36,11.61-12.19,9.4-17.88-2.97,6.13-10.48,9.06-9.4,17.88Zm3.36-68.79c.42.13.83.26,1.25.39,2.64-7.55,12.63-10.35,12.64-19.63-4.7,4.47-8.97,9.23-12.9,14.26-.93,1.19-.69,3.29-.99,4.98Zm-42.61-283c-3.47,2.24-7.25,4.12-10.34,6.8-4.34,3.77-9.28,5.61-14.78,5.65-3.99.03-8-.84-13.26-1.45,16.52,7.17,28.09.02,38.38-11Zm115.12,24.12c-7.21-4.09-13.81-7.84-20.42-11.58-.15.23-.3.47-.45.7,1.4,1.33,2.8,2.65,4.68,4.43-1.51-.19-2.19-.28-3.13-.4,3.57,3.07,6.87,5.9,10.17,8.74.23-.29.46-.59.69-.88-1.13-.99-2.27-1.98-3.94-3.43,4.55.88,8.33,1.62,12.4,2.41Zm-74.02,118.05c-6.28,6.83-13.83,11.98-17.05,20.7,9.21-7.14,17.59-17.31,17.05-20.7Zm-59.52-294.03c-9.64-.58-18.04-3.57-23.38-13.36.09,11.24,6.96,14.99,23.38,13.36Zm66.02-54.27c5.74,5.63,12.23,12.01,17.87,17.54-1.8-9.04-11.07-17.9-17.87-17.54Zm-25.14,363.39l1.08.8c2.95-3.09,5.84-6.24,8.86-9.27q7.27-7.3,6.46-10.63c-5.3,6.89-13.39,10.87-16.39,19.1Zm185.62-307.75c-2.93-13.31-15.62-22.39-26.33-20.21,11.14,2.69,20.48,8.02,26.33,20.21Zm-161.73,292.69c8.35-6.68,16.53-13.22,24.7-19.77-.38-.48-.76-.96-1.13-1.44-8.16,6.34-16.32,12.67-24.41,19.09-.17.14.55,1.4.84,2.11Zm164.95-236.23c-5.11.26-10.39.54-15.17.79,5.11,7.11,8.22,9.93,15.17-.79Zm-164.28,419.95c-2.73,5.38-10.21,8.29-8.23,16.03,2.77-5.36,10.98-7.75,8.23-16.03Zm-10.91,6.57c.42.23.85.46,1.27.69,6.91-5.6,9.93-11.33,8.27-18.02-3.18,5.78-6.36,11.55-9.54,17.33Zm9.1-327.29c-4.86,2.44-8.44,4.24-12.07,6.06.63,1.28,1.1,2.25,1.67,3.41,1.03-1.15,1.83-2.05,2.73-3.05.81,1.32,1.47,2.41,1.95,3.2.6-1.47,1.28-3.12,2.2-5.38,1.12,2.28,1.94,3.96,2.77,5.64l.75-.11v-9.76Zm163.1-89.05h-18.37c5.52,2.79,9.79,4.95,14.05,7.11-.13-.68-.27-1.37-.4-2.05,1.69-1.81,3.37-3.61,4.72-5.06Zm-169.81,219.68c-.36-.32-.72-.65-1.08-.97-8.21,4.49-15.57,12.97-14.71,16.86,5.25-5.28,10.52-10.58,15.78-15.89Zm-3.05-5.94c-6.08,3.51-13.99,12.4-13.87,15.61,6.32-3.88,13.95-12.47,13.87-15.61Zm20.17,143.23c-8.35,6.87-12.17,12.45-11.11,16.67,2.88-6.25,10.99-8.43,11.11-16.67Zm-14.02-4.92c3.77-4.14,7.41-8.15,11.19-12.31-4.79-1.64-12.02,6.59-11.19,12.31Zm14.66-433.98c-2.44-1.71-5.08-3.2-7.28-5.18-2.17-1.95-3.89-4.39-5.81-6.61-1.81-2.08-3.63-4.15-5.44-6.22,3.19,9.19,9.86,14.69,18.53,18.01Zm-44.78-42.32c-6.28-.5-14.78,5.58-15.78,11.57,5.18-3.8,10.89-7.98,15.78-11.57Zm152.55,139.63c3.69,8.91,7.97,12.49,13.2,11.48-4.23-3.68-8.44-7.33-13.2-11.48Zm-143.63,206.65c.45.41.9.82,1.36,1.24,4.25-4.19,8.5-8.38,12.74-12.57-.54-.51-1.08-1.01-1.62-1.52-4.16,4.28-8.32,8.57-12.48,12.85ZM584.54,60.86c-1.17-4.87,4.28-13.51-4.59-17.83,1.6,6.19,3.31,12.86,4.59,17.83Zm7.03,13.48c4.04-1.33,4.35-11.61,0-17.75v17.75Zm-180.15-32.27c4.99-2.55,8.95-4.57,12.86-6.57-3.04-3.33-6.88-1.62-12.86,6.57Zm3.77,200.96c3.19-.14,5.81-.25,8.62-.38-.92-2.4-1.69-4.38-2.04-5.31-1.9,1.64-3.98,3.44-6.58,5.69Zm131.06,20.62c-5.49,1-11.18,2.04-16.86,3.08,7.64,2.42,11.19,1.75,16.86-3.08Zm-66.11,23.13c4.03-1.12,7.39-2.06,10.76-2.99-.16-.5-.31-1.01-.47-1.51-3.53.41-8.17-2.64-10.29,4.5Zm-90.42-168.76c5.15-4.73,10.23-9.39,15.31-14.05-6.47,3.26-12.45,6.93-15.31,14.05Zm79.92,413.43c-.46-.36-.92-.72-1.38-1.08-3.25,3.22-6.87,6.17-8.36,10.67.38.28.75.56,1.13.84l8.61-10.43Zm115.6-455.48c3.77-2.6,4.43-6.5,3.28-16.74-.96,4.91-2.11,10.73-3.28,16.74Zm-150.65,390.31c-.55-.34-1.1-.68-1.65-1.02-2.49,3.77-4.99,7.55-7.48,11.32.52.32,1.03.64,1.55.96,2.53-3.75,5.06-7.5,7.59-11.25Zm34.4-89.1c-6.21,1.01-9.76,4.9-8.43,7.52,2.82-2.52,5.63-5.02,8.43-7.52Zm1.06-6c-6.35,1.03-11.64,5.59-11.51,9.26,3.63-2.92,7.28-5.86,11.51-9.26Zm-10,176.48c.77.4,1.54.8,2.31,1.21,1.52-2.95,3.04-5.89,4.55-8.84-.47-.27-.93-.54-1.4-.8-1.82,2.81-3.64,5.62-5.46,8.43Zm-80.82-292.5c7.06,1.43,13.56,2.01,19.84-1.21-6.35.39-12.7.77-19.84,1.21Zm-2.07-7.13c-.59-3.66-1.14-7.03-1.69-10.44-2.74,4.1-2.28,7.38,1.69,10.44Zm65,8.79c-.7,2.35-1.31,4.36-1.91,6.37.16.06.32.12.49.19,1.1-1.72,2.2-3.43,3.8-5.92.32,2.24.5,3.48.84,5.89,1.03-2.72,1.62-4.29,2.28-6.03-2-.18-3.61-.33-5.49-.5Z"/>
  <path class="cls-1" d="m319.5,583.12c6.74,17.53,12.87,35.82,20.74,53.33,7.96,17.72,19.11,33.66,33.74,48.49-17.94-6.79-56.71-81.37-54.48-101.82Z"/>
  <path class="cls-1" d="m306.75,603.27c5.75,32.38,13.05,64.3,24.91,95.05-14.42-30.1-21.95-62.01-24.91-95.05Z"/>
  <path class="cls-1" d="m260.74,483.22c-11.56-18.06-22.81-35.63-34.51-53.91,7.29,4.01,33.13,44.67,34.51,53.91Z"/>
  <path class="cls-1" d="m163.86,283.18c4.87-20.95-.76-39.46-13-56.42,15.58,12.32,21.71,41.84,13,56.42Z"/>
  <path class="cls-1" d="m179.47,200.71c-17.25,7.13-32.49,19.07-53.06,21.65,18.26-8.07,35.33-15.62,52.4-23.17.22.51.44,1.01.66,1.52Z"/>
  <path class="cls-1" d="m150.27,356.75c2.96-15.19,7.19-29.93,14.23-43.64.44.16.89.32,1.33.48-5.19,14.39-10.37,28.78-15.56,43.16Z"/>
  <path class="cls-1" d="m120.71,291.96c-5.82-7.53-7.79-17.69-6.58-37.42,2.36,13.41,4.53,25.8,6.58,37.42Z"/>
  <path class="cls-1" d="m172.77,249.59c.28-13.2,2.48-25.81,11.51-36.36-2.3,6-5.05,11.88-6.79,18.04-1.69,6-2.36,12.29-3.48,18.45l-1.24-.13Z"/>
  <path class="cls-1" d="m165.11,301.84c-8.34,7.59-24.42,8.79-33.34,2.58,5.94.5,11.29,1.63,16.53,1.21,5.41-.43,10.69-2.35,16.81-3.8Z"/>
  <path class="cls-1" d="m212.15,272.89c-2.66,7.21-17.34,18.26-23.81,17.88,7.79-5.85,16.28-12.23,23.81-17.88Z"/>
  <path class="cls-1" d="m156.47,316.86c-2.92,9.1-5.83,18.2-8.75,27.29l-1.82-.57c2.81-9.07,5.62-18.14,8.43-27.21.71.16,1.42.33,2.13.49Z"/>
  <path class="cls-1" d="m134.27,133.92c2.47-.59,4.92-1.27,7.41-1.69.55-.09,1.81.8,1.79,1.17-.06.84-.67,2.29-1.15,2.33-2.73.23-5.49.11-8.23.11l.18-1.92Z"/>
  <path class="cls-1" d="m222.14,221.64l6.93,9.83-1.52,1.1c-2.37-3.25-4.73-6.51-7.1-9.76.56-.39,1.13-.78,1.69-1.17Z"/>
  <path class="cls-1" d="m70.39,392.26c2.09-4.38,4.19-8.76,6.28-13.14.44.21.88.42,1.33.62-2.06,4.4-4.11,8.8-6.17,13.2-.48-.23-.96-.45-1.44-.68Z"/>
  <path class="cls-1" d="m627.3,559.29c-22.08,38.17-57.83,62.44-91.43,88.89-.28-.31-.57-.61-.85-.92,2.6-2.21,5.17-4.45,7.8-6.63,2.66-2.21,5.33-4.43,8.08-6.54,18.8-14.46,37.19-29.44,53.19-46.99,7.64-8.37,13.89-18,20.78-27.06.45-.6.96-1.15,1.44-1.72.33.32.65.64.98.97Z"/>
  <path class="cls-1" d="m699.95,665.6c7.83-2.61,15.79-4.86,23.45-7.9,15.68-6.22,31.12-13.07,46.82-19.26,7.76-3.06,15.76-5.94,24.4-4.36,1.73.31,3.33,1.34,4.85,2.45-15.08-2.96-27.68,4.23-40.78,9.21-18.23,6.93-36.48,13.82-54.73,20.69-1.15.43-2.45.49-3.68.72-.1-.52-.21-1.03-.31-1.55Z"/>
  <path class="cls-1" d="m691.19,610.66c19.43-32.25,74.44-52.11,97.77-46.05-18.69,1.1-36.86,4.44-53.87,12.52-16.99,8.08-31.88,18.93-43.9,33.52Z"/>
  <path class="cls-1" d="m725.95,510.84c-20.59,26.42-40.08,53.46-49.43,86.31-1.79-16.2,31.22-73.88,49.43-86.31Z"/>
  <path class="cls-1" d="m776.97,535.33c-15.15,9.21-30.29,18.43-45.44,27.64,13.05-12.42,29.28-19.89,44.31-29.23.38.53.76,1.06,1.13,1.59Z"/>
  <path class="cls-1" d="m482.89,148.47c-1.28,3.17-2.2,5.45-2.83,7.01,4.15-2.83,8.27-6.81,13.2-8.68,4.68-1.78,10.01-2.37,15.42-1.09,2.56.61,5.69-.96,8.51-1.7,10.35-2.72,18.56,1.25,25.35,8.57,3.31,3.57,5.73,7.96,8.55,11.99l1.43,8.78c.81,1.01,1.62,2.01,2.43,3.02-.27.31-.55.62-.82.92-3.82-3-8.12-5.57-11.36-9.1-7.18-7.84-15.89-10.28-25.97-8.6-10.03,1.67-19.98,3.82-30.03,5.39-2.65.41-5.6-.27-8.23-1.07-1.14-.35-2.48-2.24-2.55-3.49-.26-4.89,1.75-8.79,6.89-11.95Z"/>
  <path class="cls-1" d="m614.17,227.51c1.43-6.34,3.2-12.62,4.13-19.03.36-2.47-.5-5.84-2.12-7.59-.98-1.06-5.13-.67-6.7.55-4.89,3.78-9.23,8.27-13.47,12.83,6.37-.95,10.2,2.79,10.82,10.57.32,4.01-2.63,9.87-5.61,12.05.51-4.33,1.43-9.27,1.49-14.21.02-2.09-1.77-4.21-2.74-6.32-2.06,1.07-4.94,1.64-5.94,3.34-.95,1.62-.69,4.85.36,6.57,2.74,4.51,2.98,9.11.01,12.92-2.35,3.01-6.3,4.79-9.54,7.11.09.61.18,1.23.28,1.84-.17-1.46-.93-3.2-.39-4.31.9-1.84,2.49-3.42,4.04-4.84,3.58-3.25,5.3-6.88,2.28-11.26-2.88-4.18-1.91-8.03.47-11.82,5.02-7.98,9.98-16.05,19.79-19.09,4.97-1.54,7.62.57,9.03,5.82,2.54,9.45-1.18,17.18-6.18,24.86Z"/>
  <path class="cls-1" d="m490.71,187.25c6.09-1.73,12.08-4.15,18.3-5.03,11.34-1.61,20.52,3.36,28.6,11.72-.34,1.14-.77,2.62-1.55,5.27-15.54-11.76-32.04-14.12-49.79-6.25-.14-.54-.27-1.08-.41-1.61,1.68-1.42,3.36-2.84,5.03-4.27,0,0-.18.18-.18.18Z"/>
  <path class="cls-1" d="m454.43,320.88c-5.1-.3-10.19-.6-16.45-.96,1.74-1.35,2.52-1.95,3.08-2.37-4.06-2.91-8.18-5.86-12.29-8.81.28-.54.55-1.07.83-1.61,15.6,8.29,31.77,7.19,48.35,3.73-7.71,3.92-13.17,12.71-23.69,9.92l.17.11Z"/>
  <path class="cls-1" d="m554.14,80.84c-1.67.51-3.34,1.01-5.88,1.78,4.21-4.83,7.77-8.91,11.34-13-.35-.29-.71-.59-1.06-.88-4.84,4.2-8.02,10.94-15.35,11.15,5.03-5.74,9.97-11.34,14.87-16.97,5.95-6.83,2.9-14.1.82-21.39,6.53,5.96,6.61,13.53,5.69,21.24-.89,7.54-5.46,13.09-10.59,18.24,0,0,.16-.17.16-.17Z"/>
  <path class="cls-1" d="m490.89,187.07c-4.46-1.54.87-3.7-.5-5.67-1.18.97-2.35,1.93-3.46,2.84-.51-1.48-.93-2.7-1.54-4.48,8.85-7.69,19.51-11.08,31.46-8.32,9.65,2.23,18.65,6.09,21.63,17.33-8.6-12.36-20.31-17.61-34.88-14.41-6.4,1.41-10.12,7.04-12.9,12.87,0,0,.18-.18.18-.18Z"/>
  <path class="cls-1" d="m525.53,76.2c12.72-8.33,25.58-16.37,21.44-34.98,3.66,3.27,4.07,10.81,1.26,17.89-3.73,9.4-14.29,17.74-22.7,17.09Z"/>
  <path class="cls-1" d="m517.6,207.93c-11.17,2.68-19.95-1.62-27.81-9.1,5.7-2.46,8.99,1.14,13.06,3.82,3.53,2.32,8.14,3.01,12.27,4.42.83.28,1.65.57,2.47.86Z"/>
  <path class="cls-1" d="m553.98,81.01c7.15-3.31,9.4-10.11,11.81-16.74.72-1.97,1.01-4.1,1.55-6.38,5.1,8.13-3.81,23.76-16.77,28.21,1.58-2.33,2.57-3.78,3.56-5.25,0,0-.16.17-.16.17Z"/>
  <path class="cls-1" d="m438.23,247.18c10.64,6.21,16.03-4.61,23.93-6.93-6.18,10.58-16.94,13.87-23.93,6.93Z"/>
  <path class="cls-1" d="m609.9,232.8c-5.35,6.05-10.7,12.11-16.05,18.16,1.05-9.47,11.03-11.82,14.63-19.28.47.37.94.74,1.41,1.11Z"/>
  <path class="cls-1" d="m454.26,320.77c3.02,1.15,6.03,2.31,8.75,3.35h-23.28c4.44-3.78,9.62-3.32,14.71-3.23-.01,0-.18-.12-.18-.12Z"/>
  <path class="cls-1" d="m467.5,188.98c-.16-6.77,3.16-11.59,7.54-15.81.43.25.87.49,1.3.74l-8.84,15.07Z"/>
  <path class="cls-1" d="m557.5,203.31c-6.32-1.6-11.43-2.89-16.99-4.29,4.1-2.81,12.05-.82,16.99,4.29Z"/>
  <path class="cls-1" d="m471.4,185.94c2.03-3.53,4.07-7.06,6.6-11.44,1.1,5.43-.57,8.54-6.6,11.44Z"/>
  <path class="cls-1" d="m554.81,193.43c-3.83,2.84-8.05,3.34-12.77.89,4.15-.76,8.31-1.52,12.46-2.29.11.46.21.93.32,1.39Z"/>
  <path class="cls-1" d="m571.23,759.29c-15.47,8.29-32.01,9.9-49.13,7.66,16.77.05,33.07-2.91,49.13-7.66Z"/>
  <path class="cls-1" d="m515.84,695.34c-7.84.18-14.38-1.82-20.58-5.7-1.9-1.19-5.3-1.65-7.27-.77-4.62,2.06-4.72,4.78-1.19,8.67.89.98,1.7,2.02,2.55,3.03-.26.32-.52.65-.77.97-2.24-1.97-5.25-3.54-6.53-6.01-1.57-3.05.25-6.12,3.04-8.17,2.79-2.05,5.62-2.98,9.15-1.34,6.91,3.2,13.98,6.06,21.59,9.32Z"/>
  <path class="cls-1" d="m627.46,768.2c-11.23-1.89-22.86-1.75-33.58-6.3.12-.64.25-1.29.37-1.93,11.19,2.09,22.39,4.19,33.58,6.28-.12.65-.25,1.3-.37,1.95Z"/>
  <path class="cls-1" d="m743.65,737.92c-2.81-15.38-8.54-29.4-17.98-41.82,11.75,11.43,17.32,25.59,17.98,41.82Z"/>
  <path class="cls-1" d="m733.14,734.65c-2.68-14.7-7.66-28.4-17.79-40.75,8.92,4.21,19.39,28.54,17.79,40.75Z"/>
  <path class="cls-1" d="m478.39,664.01c.23-4.94,5.24-9.07,9.14-7.7,6.72,2.35,13.19,5.38,19.77,8.13-.12.44-.24.87-.36,1.31-4.2-1.18-8.7-1.76-12.52-3.69-5.78-2.92-10.96-4.54-16.03,1.96Z"/>
  <path class="cls-1" d="m700.73,730.54c-3.06-10.85-5.89-20.89-8.8-31.19,6.24,9.26,9.56,19.2,8.8,31.19Z"/>
  <path class="cls-1" d="m714.45,706.46c5.86,9.55,9.11,19.72,8.83,32.31-3.2-11.72-6.02-22.02-8.83-32.31Z"/>
  <path class="cls-1" d="m662.13,695.3c5.19,3.81,10.02,17.94,8.09,24.79-2.7-8.27-5.54-16.98-8.09-24.79Z"/>
  <path class="cls-1" d="m702.03,694.49c5.53,6.35,9.05,13.63,9.16,22.37-3.05-7.46-6.1-14.91-9.16-22.37Z"/>
  <path class="cls-1" d="m512.29,698.62c-6.56.57-12.96,1.13-19.1,1.66,4.39-5.78,7.92-4.77,19.1-1.66Z"/>
  <path class="cls-1" d="m657.34,716.92c-2.13-7.34-4.19-14.41-6.09-20.92,3.8,1.92,7.4,12.85,6.09,20.92Z"/>
  <path class="cls-1" d="m684.12,697.94c1.74,6.8,3.48,13.6,5.23,20.39-.59.15-1.18.3-1.77.45-1.7-6.82-3.4-13.63-5.11-20.45.55-.13,1.1-.26,1.64-.4Z"/>
  <path class="cls-1" d="m670.23,698.31c4.8,5.44,6.93,11.77,6.06,19.1-2.02-6.37-4.04-12.73-6.06-19.1Z"/>
  <path class="cls-1" d="m422.75,670.17c.58.22,1.59.34,1.67.68,1.17,4.88,2.21,9.78,3.43,15.38-5.23-4.8-5.16-10.48-4.96-16.19,0,0-.14.13-.14.13Z"/>
  <path class="cls-1" d="m493.78,715.89c-2.55,5.74.29,9.73,4.33,13.35-7.77-1.77-9.67-7.46-4.33-13.35Z"/>
  <path class="cls-1" d="m426.78,717.91c-.37-2.84-.74-5.69-1.11-8.53.29-.08.59-.17.88-.25,1.84,4.48,3.68,8.96,5.52,13.44-.22.19-.44.39-.65.58-1.6-1.8-3.19-3.6-4.79-5.41,0,0,.16.17.16.17Z"/>
  <path class="cls-1" d="m516.28,727.58c-4.84.7-9.2,1.33-13.5,1.96.49-3.93,6.83-5.12,13.5-1.96Z"/>
  <path class="cls-1" d="m502.24,757.8c-6.28-3.36-7.83-7.12-5.25-11.72,1.64,3.67,3.41,7.63,5.25,11.72Z"/>
  <path class="cls-1" d="m428.35,669.49c.91,4.39,1.8,8.71,2.82,13.63-4.57-4.38-5.47-9.42-2.82-13.63Z"/>
  <path class="cls-1" d="m650.28,711.09c-.98-3.83-1.97-7.65-2.95-11.48.53-.14,1.06-.29,1.59-.43,1.08,3.83,2.16,7.66,3.23,11.5-.62.14-1.25.27-1.87.41Z"/>
  <path class="cls-1" d="m107.54,536.21c15.72-1.94,29.86-7.43,42.16-18.14-2.31,8.58-26.99,21.4-42.16,18.14Z"/>
  <path class="cls-1" d="m609.16,386.52c-3.67-18.16-2.9-36.59-2.88-54.97,2.41,18.24,3.96,36.53,2.88,54.97Z"/>
  <path class="cls-1" d="m613.33,350.15c.68,14.15,1.36,28.31,2.04,42.46l-2.57.15c-1.75-14.08-.52-28.34-2.38-42.41l2.91-.2Z"/>
  <path class="cls-1" d="m547.44,507.08c-3.75,4.48-7.5,8.96-11.25,13.45-.53-.43-1.05-.87-1.58-1.3,3.7-4.58,7.4-9.16,11.1-13.73.58.53,1.15,1.06,1.73,1.59Z"/>
  <path class="cls-1" d="m551.7,339.58c-10.95,28.31-22.86,56.15-40.22,81.29,13.41-27.1,26.81-54.19,40.22-81.29Z"/>
  <path class="cls-1" d="m408.37,339.64c-8.15,9.98-12.01,22.05-16.44,33.83-1.44,3.83-2.76,7.71-4.14,11.57-.51-.16-1.02-.32-1.53-.48.87-3.37,1.31-6.92,2.68-10.07,4.68-10.79,9.58-21.49,14.7-32.08.66-1.36,3.11-1.84,4.74-2.72,0,0,0-.05,0-.05Z"/>
  <path class="cls-1" d="m401.62,181.84c-1.5-.72-3.73-1.79-5.96-2.86,3.16-2.98,5.87-5.42,8.44-8,6.38-6.42,15.05-8.58,22.63-5.54,8.07,3.24,14.26,11.77,14.18,19.61,0,.59-.19,1.18-.57,3.33-1.59-3.33-2.57-5.39-3.67-7.7-1.18,2.53-2.22,4.75-3.33,7.11,1.83.2,3.54.4,5.62.63-.53.74-.79,1.4-1.03,1.39-10.75-.24-21.51-.34-32.24-1.02-1.57-.1-2.97-2.96-5.33-5.48,6.03,1.76,10.38,3.02,13.81,4.02v-17.13c-4.33,4.01-8.19,7.58-12.56,11.63Zm16.63-.31c-.27.24-.54.47-.8.71,1.48,1.27,3,3.64,4.43,3.59,3.28-.12,7.07-.68,9.53-2.54,1.3-.98.23-5.08.23-8.01-1.85,3.32-2.72,7.14-4.69,7.82-2.42.85-5.75-.92-8.69-1.56Z"/>
  <path class="cls-1" d="m442.28,176.68c-5.7-7.75-9.75-15.45-19.68-16.72-9.55-1.22-15.59,4.36-22.54,11.35,4.42-10.7,14.05-15.19,22.89-14.25,7.94.84,16.95,9.48,19.33,19.61Z"/>
  <path class="cls-1" d="m432.22,197.85c1.16-.41,2.16-.77,3.51-1.25-3.76,5.77-11.51,8.56-16.89,6.08,4.46-2.8,8.72-5.47,13.72-8.6-.14,1.56-.22,2.42-.34,3.77Z"/>
  <path class="cls-1" d="m399.92,192.86c5.64,3.52,11.12,6.94,16.39,10.23-4.31,2.32-11.18-1.72-16.39-10.23Z"/>
</svg>