<svg xmlns="http://www.w3.org/2000/svg" id="Livello_1" data-name="Livello 1" viewBox="0 0 658.9 231.06"><defs><style>.cls-1{fill:#363f48;stroke-width:0}</style></defs><path d="M1.75 67.02c-2.36-4.89-2.34-8.44.1-10.64s5.69-2.8 9.72-1.81c4.02.99 6.72 2.91 8.09 5.8 1.53 3.3 2.55 6.9 3.07 10.81.53 3.91 1.25 7.54 2.15 10.87q1.365 4.995 3.48 5.25c.62.02 1.14.04 1.56.04s.75-.18.98-.54.44-.69.61-.98q.255-.435.36-1.38c.06-.63.1-1.22.11-1.77 0-.55 0-1.26-.02-2.13-.02-.86-.04-1.67-.08-2.43s-.08-1.66-.13-2.69a24 24 0 0 1 .02-2.81c.02-5.75.4-10.64 1.13-14.67s1.83-7.36 3.29-10c1.46-2.63 3.06-4.75 4.82-6.33 1.75-1.59 3.93-3.04 6.54-4.36q3.135-1.71 7.17-2.79c2.69-.72 4.83-1.22 6.41-1.51 1.58-.28 4.36-.68 8.33-1.2 5.9-.92 10.18.29 12.8 3.66 2.21 2.79 2.44 5.69.72 8.69-2.16 3.74-6.24 5.45-12.3 5.09-2.87-.19-5.47-.18-7.8.04-2.32.22-4.28.54-5.85.96-1.58.42-3 1.01-4.28 1.78-1.27.77-2.28 1.51-3 2.23-.73.72-1.39 1.62-1.96 2.71-.58 1.09-1 2-1.24 2.75q-.375 1.125-.66 2.7c-.74 3.1-1.13 6.97-1.18 11.6-.04 4.63.03 8.84.22 12.63s.05 7.72-.42 11.81-1.36 7.37-2.7 9.83c-1.83 3.41-4.41 5.61-7.76 6.58s-6.54.62-9.6-1.05-5.16-4.32-6.3-7.92q-.48-1.74-2.43-9.93c-1.31-5.47-2.42-9.14-3.36-11.03-1.17-2.29-2.91-5.17-5.23-8.65s-4.11-6.55-5.38-9.2Zm75.76 33.62c.13 5.56-3.2 8.73-9.97 9.45-2.91.31-5.59-.19-8.08-1.5-2.48-1.3-3.93-3.22-4.33-5.74s-.18-6.41.68-11.67 1.33-7.99 1.36-8.21c-.01-.48-.02-.96-.04-1.45q-.015-.72-.06-1.29c-.03-.38-.1-.87-.21-1.48l-.24-1.32c-.05-.27-.18-.76-.39-1.46s-.35-1.17-.43-1.41c-.08-.23-.26-.79-.54-1.66s-.45-1.41-.53-1.61-.3-.8-.68-1.8-.59-1.6-.63-1.81c-1.1-3.01-1.15-5.59-.14-7.75q1.515-3.24 5.88-4.47c5.66-1.7 10.02-1.69 13.03.07s3.88 4.49 2.64 8.2c-.15.5-.63 1.82-1.42 3.97-.8 2.15-1.38 3.93-1.76 5.35-.37 1.42-.53 2.74-.47 3.97.09 2.26 1.16 6.17 3.21 11.7 2.04 5.53 3.08 9.5 3.11 11.91ZM129.08 108.54c-3.91 2.44-8.06 3.86-12.47 4.26s-8.27-.3-11.59-2.08c-5.14-2.73-7.58-7.39-7.26-13.95.56-11.75.16-20.97-1.3-27.67-.33-1.61-.83-3.77-1.5-6.47-.67-2.71-1.18-4.84-1.55-6.42-.37-1.57-.71-3.46-1.02-5.66s-.41-4.04-.29-5.53.44-3.05.98-4.69c.53-1.64 1.37-3.11 2.53-4.4 1.21-1.44 2.97-2.67 5.29-3.69q3.48-1.53 7.44-2.25c2.64-.48 5.43-.95 8.36-1.41s5.59-.77 7.96-.92c2.12-.26 4.2-.39 6.25-.37 2.04.02 4.08.17 6.11.45 2.03.29 3.81.88 5.32 1.78q2.265 1.35 2.88 3.42c.94 3.09.37 5.69-1.69 7.81-2.07 2.12-4.94 3.62-8.61 4.51-1.83.51-5.28 1.02-10.34 1.52-5.07.5-7.91.81-8.51.95-2.16.34-3.71 1.5-4.64 3.5s-1.03 4.09-.31 6.26c.72 2.18 2.11 3.65 4.18 4.42 1.57.56 4.33.08 8.31-1.45s6.51-2.37 7.59-2.51q3.81-.585 5.88 2.16c1.38 1.84 1.86 4.03 1.46 6.58s-1.63 4.58-3.68 6.08c-3.46 2.58-8.83 4.07-16.14 4.44-2.39.1-3.97.83-4.73 2.19-.77 1.37-.95 3.09-.56 5.16.49 2.75 1.18 4.69 2.08 5.81s1.98 1.57 3.25 1.34c2.7-.48 6.28-2.72 10.81-6.74 2.82-2.42 5.61-3.42 8.33-3s4.68 1.96 5.87 4.6c1.3 2.84.79 6.2-1.49 10.1s-6.68 7.87-13.18 11.88ZM174.19 69.87c1.86 4.18 3.21 7.95 4.07 11.3.86 3.36 1.26 6.13 1.19 8.33-.07 2.19-.53 4-1.36 5.41-.84 1.42-1.93 2.44-3.26 3.07-1.34.63-2.92.94-4.75.93-2.81.05-5.21-.6-7.21-1.96-1.99-1.36-3.48-3.49-4.44-6.4-.97-2.9-.89-6.66.25-11.26 1.36-5.99 1.83-11.27 1.37-15.81-.46-4.55-1.95-9.52-4.48-14.91-.82-1.53-1.2-3.2-1.14-5.02s.35-3.53.87-5.14 1.55-3.01 3.07-4.2c1.53-1.19 3.39-1.97 5.57-2.34 2.51-.34 4.99.15 7.43 1.45 2.44 1.31 4.55 3.01 6.31 5.12s3.42 4.23 4.98 6.37 3.01 3.93 4.38 5.38c1.36 1.45 2.57 2.06 3.65 1.84 1.31-.18 2.38-1.32 3.2-3.41s1.51-4.76 2.07-8c.56-3.25 1.17-6.62 1.84-10.11.67-3.5 1.71-7.08 3.14-10.75 1.42-3.67 3.2-6.67 5.33-9 2.2-2.41 5.02-4.41 8.47-6s6.99-2.65 10.61-3.17 7.36-.74 11.23-.64c5.88.24 9.84 1.81 11.89 4.7s1.81 5.73-.69 8.5-6.44 4.18-11.83 4.22c-5.48.05-9.73.75-12.73 2.07-3 1.33-5.86 3.88-8.57 7.65-2.43 3.26-4.11 7.23-5.05 11.92s-1.18 9.3-.75 13.84 1.16 9.12 2.17 13.74c.62 2.71.8 5.06.55 7.07s-.92 3.63-2 4.87-2.11 2.19-3.09 2.83q-1.47.975-3.69 1.8c-3.54 1.45-6.73 1.53-9.58.23s-4.68-3.63-5.49-7q-.195-.795-1.02-5.43c-.55-3.09-1.1-5.42-1.64-6.98-1.66-4.06-3.51-6.82-5.54-8.28s-3.87-1.8-5.51-1.03c-1.5.62-2.18 2.4-2.05 5.35s.87 5.9 2.2 8.86Zm69.57 1.28c-.49 5.57-4.17 8.82-11.05 9.76q-4.425.6-7.95-1.2c-2.35-1.2-3.59-3.06-3.72-5.56-.12-2.5.53-6.4 1.97-11.7 1.45-5.3 2.21-8.06 2.28-8.27l.12-1.44c.04-.48.07-.91.08-1.29.01-.37 0-.85-.05-1.42-.04-.57-.08-1.01-.1-1.31s-.1-.8-.23-1.5-.2-1.16-.22-1.4c-.02-.23-.14-.78-.36-1.63s-.36-1.38-.41-1.58c-.06-.2-.22-.79-.49-1.77s-.42-1.58-.43-1.78c-.77-2.89-.54-5.45.71-7.7 1.25-2.24 3.39-3.84 6.41-4.8 5.87-1.95 10.25-2.09 13.07-.43 2.83 1.66 3.44 4.37 1.87 8.11-.28.51-.95 1.86-1.98 4.04-1.04 2.18-1.8 3.98-2.29 5.4-.49 1.43-.82 2.76-.97 4-.09 2.26.58 6.13 1.99 11.61 1.4 5.49 1.98 9.44 1.75 11.85ZM308.77 58.45c-.06.69.2 3.15.79 7.39s.84 8.24.77 11.98c-.08 3.6-1.27 7.01-3.56 10.21s-5.37 5.19-9.24 5.98c-2.9.67-5.32.21-7.25-1.39s-2.93-4.08-2.97-7.43.99-7.02 3.14-11.01c1.36-2.4 2.42-4.54 3.16-6.43.74-1.88 1.27-3.88 1.59-5.99.32-2.1.49-3.86.53-5.25.03-1.39.06-3.67.08-6.83s.07-5.86.16-8.11c0-.07-.02-1.93-.05-5.59s.01-6.85.13-9.58c.11-2.73.61-5.97 1.49-9.74.88-3.76 2.12-6.75 3.73-8.97 2.06-2.88 5.23-5.06 9.49-6.53s8.12-1.53 11.55-.18c2.63 1.16 4.97 3.34 7.01 6.53 2.04 3.2 3.59 6.83 4.67 10.9s1.87 7.83 2.39 11.28.85 6.62 1.02 9.52c.08 1.82.85 6.01 2.28 12.56s2.2 11.52 2.36 14.9c.15 3.99-.57 7.66-2.15 11.02s-3.79 5.51-6.63 6.46q-1.575.555-3.09.6c-1.01.03-2.1-.14-3.27-.5s-2.12-1.06-2.84-2.11c-.73-1.05-1.31-2.48-1.75-4.3s-.41-4.18.08-7.08c1.32-9.9.53-16.03-2.43-18.37-.7-.47-1.62-.8-2.78-.99-1.15-.18-2.37-.18-3.63.03-1.26.2-2.37.91-3.3 2.13-.94 1.22-1.42 2.85-1.45 4.89Zm12.73-27.49c-.07-5.49-1.14-9.92-3.24-13.3-1.93-2.99-3.83-3.06-5.66-.22-.46.59-.86 1.3-1.2 2.11q-.51 1.23-.84 2.28c-.22.7-.44 1.59-.65 2.66-.21 1.08-.37 1.94-.47 2.6s-.2 1.6-.29 2.83-.15 2.09-.18 2.56q-.045.72-.12 2.61c-.05 1.26-.07 1.99-.07 2.2-.11 2.05.5 3.24 1.82 3.57s2.79 0 4.4-.98c4.38-2.15 6.55-5.12 6.5-8.91ZM286.05 197.77c-1.76 3.27-4.03 5.58-6.82 6.91-2.8 1.34-5.35 1.37-7.68.07-2.33-1.29-3.74-3.67-4.2-7.14-.82-6.14.27-16.14 3.44-29.99.89-3.78 1.47-8.37 1.75-13.77s0-11.07-.88-17c-.39-2.05-1.01-3.5-1.86-4.34s-1.82-1.17-2.91-1c-1.09.18-2.28.43-3.54.77-1.27.34-2.5.7-3.69 1.1s-2.35.36-3.48-.1c-2.32-.78-3.78-2.06-4.37-3.85s-.35-3.52.73-5.19 2.64-2.85 4.68-3.53c2.32-.99 5.83-1.47 10.54-1.43s8.15-.17 10.35-.65c1.91-.37 4.84-1.06 8.79-2.05 3.96-.99 6.56-1.68 7.8-2.1 6-2.19 10.57-1.89 13.66.89 2.33 2.05 2.86 4.54 1.6 7.46-1.25 3.19-4.21 5.17-8.87 5.98-1.39.23-3.27.32-5.65.3-2.38-.03-4.38.11-5.98.4s-2.82.97-3.66 2.02c-1.05 1.21-1.57 3.48-1.54 6.81.02 3.32.32 6.75.9 10.28.57 3.53 1.25 7.84 2.02 12.94s1.28 9.26 1.55 12.49c.02.54.1 1.67.23 3.38q.195 2.565.24 3.54c.02.64.05 1.71.07 3.2s-.04 2.65-.19 3.48-.32 1.87-.52 3.12-.52 2.44-.97 3.58-.96 2.29-1.54 3.45ZM315.52 195.49c-7.04-.13-10.54-4.26-10.48-12.49.07-2.59.72-7.31 1.98-14.16 1.25-6.86 1.79-11.7 1.58-14.52-.11-1.62-.36-3.73-.74-6.33-.39-2.6-.63-4.58-.74-5.92s.12-3.03.7-5.06q.855-3.045 3.09-5.94c1.84-2.44 4.93-4.65 9.25-6.63 4.32-1.97 8.78-3.34 13.36-4.11 4.57-.77 8.86-.69 12.85.23 3.98.92 6.47 2.81 7.47 5.65 2.78 7.52 1.56 13.88-3.5 19.1-3.18 3.31-8.31 5.98-15.39 8.06q-2.145.6-2.46 1.86c-.21.83.19 1.58 1.19 2.23 3.44 2.59 6.64 5.6 9.58 9 2.94 3.41 5.52 6.3 7.76 8.66q3.36 3.54 7.32 5.49c3.28 1.52 7.83 2.23 13.66 2.17s10.23-.78 13.21-2.22c5.32-2.37 9.21-2.25 11.63.3 1.88 2.03 2.08 4.54.65 7.51-1.59 3.18-4.51 5.4-8.77 6.68-2.8.88-5.85 1.62-9.14 2.24-3.3.62-6.8 1.02-10.5 1.19s-6.89-.04-9.58-.66c-3.93-.8-7.51-2.13-10.73-4s-6.02-4.12-8.4-6.76-4.41-5.25-6.07-7.84c-1.67-2.59-3.22-5.51-4.67-8.76-2.53-5.45-5.41-7.64-8.6-6.57-.78.28-1.44 1-2 2.14-.55 1.14-.4 2.84.45 5.09s1.95 4.78 3.29 7.6c1.34 2.81 2.09 5.06 2.25 6.74.38 2.88-.59 5.28-2.9 7.21s-4.5 2.87-6.6 2.83Zm7.93-49.97c1.38.47 3.25.3 5.62-.5 2.37-.81 4.6-1.95 6.69-3.43 1.15-.78 2.16-1.74 3.02-2.87s1.44-2.2 1.73-3.21.02-1.82-.82-2.42-2.27-.78-4.3-.52c-4.21.53-8.02 1.54-11.41 3.03-2.02.95-3.09 2.65-3.19 5.11-.11 2.45.78 4.06 2.67 4.81Zm72.7 14.68q-1.23 4.425-3.36 7.62c-1.42 2.13-2.95 3.73-4.6 4.79a25.8 25.8 0 0 1-5.35 2.61c-1.92.68-3.78 1.04-5.61 1.07l-5.37.12c-4.21-.07-7.59-.82-10.13-2.27-2.55-1.45-4.21-3.22-4.96-5.33-.76-2.11-1.12-4.59-1.1-7.44.03-2.85.33-5.47.93-7.85.6-2.39 1.21-4.77 1.85-7.16s.96-3.99.97-4.8c.01-1.09.02-2.85 0-5.29 0-2.44.03-4.19.12-5.25s.39-2.42.92-4.09 1.35-3.19 2.46-4.55c2.53-3.3 5.71-5.64 9.55-7 3.83-1.36 7.53-1.74 11.07-1.15 3.53.59 6.71 2.11 9.51 4.53s4.56 5.5 5.28 9.2c.9 4.92 1.1 10.21.63 15.86a94.4 94.4 0 0 1-2.82 16.4Zm-10.05-15.84c.45-3.08.5-5.84.14-8.3s-.94-4.33-1.73-5.61c-.8-1.28-1.64-2.26-2.53-2.92s-1.74-.94-2.54-.83c-.87.12-1.64.4-2.31.85-.66.45-1.21 1.14-1.63 2.08s-.73 1.74-.92 2.4-.42 1.6-.66 2.84c-.08.28-.12.48-.12.62-.32 1.31-.77 3.98-1.36 8.02q-.12.72-.48 2.37c-.24 1.1-.4 2.01-.49 2.73s-.14 1.57-.16 2.55c-.02.99.07 1.76.27 2.32s.58 1.1 1.14 1.61 1.3.8 2.22.88c1.78.16 3.37-.11 4.77-.84a8.8 8.8 0 0 0 3.4-3.03c.86-1.3 1.54-2.61 2.04-3.92s.81-2.58.92-3.81ZM477.31 129.77c-3.31-1.15-6.3-1.57-8.94-1.28s-4.88.93-6.7 1.92-3.42 2.45-4.81 4.38a26.1 26.1 0 0 0-3.31 6.33c-.82 2.29-1.6 4.87-2.31 7.75q-1.08 4.305-1.77 8.58c-.46 2.85-1.02 5.81-1.67 8.89s-1.33 5.98-2.02 8.68a52.3 52.3 0 0 1-2.73 7.96c-1.13 2.6-2.42 4.81-3.86 6.63-2.51 3.17-5.41 5.1-8.7 5.81-3.3.71-6.12.13-8.51-1.74-2.38-1.88-3.66-4.61-3.81-8.21 0-1.15.07-4.43.22-9.83q.225-8.1-.36-10.95c-.51-2.37-1.4-5.31-2.68-8.82s-2.18-6.54-2.7-9.11c-.98-4.87-.08-8.35 2.73-10.45 2.81-2.09 5.94-2.58 9.38-1.46 3.44 1.13 5.45 3.2 6.06 6.18.59 3.33.63 6.98.13 10.96s-.74 7.63-.73 10.96c0 3.33.64 5.03 1.91 5.1 1.26.07 2.28-.59 3.04-1.98s1.34-3.27 1.75-5.65c.4-2.38.78-5.09 1.13-8.15s.85-6.27 1.5-9.62c.66-3.36 1.49-6.68 2.52-9.97 1.02-3.28 2.54-6.34 4.56-9.16s4.46-5.24 7.32-7.24 6.56-3.39 11.11-4.12c4.54-.74 9.73-.64 15.52.33 5.58.96 8.95 3.41 10.1 7.24 1 3.15.24 5.88-2.26 8.21-2.82 2.59-6.5 3.18-11.1 1.82Zm19.36 56.35c-.17 2.78-1.1 5.22-2.8 7.32s-3.88 3.28-6.55 3.55c-1.14.25-2.35.21-3.64-.12s-2.46-.8-3.51-1.42-1.78-1.74-2.17-3.36c-.4-1.63-.25-3.58.47-5.85 1.99-6.75 1.76-11.13-.73-13.13-.52-.44-1.32-.8-2.39-1.06q-1.605-.405-3.3-.39c-1.13 0-2.17.38-3.12 1.12s-1.55 1.81-1.82 3.23c-.11.47-.06 2.23.16 5.27s.11 5.84-.33 8.41c-.39 2.78-1.77 5.55-4.12 8.34s-5.29 4.26-8.81 4.42c-2.01.08-3.72-.43-5.15-1.52s-2.44-2.45-3-4.1c-.57-1.64-.58-3.56-.04-5.76s1.69-4.24 3.43-6.1c1.38-1.6 2.5-3.01 3.37-4.25s1.51-2.56 1.94-3.98.74-2.61.92-3.6c.18-.98.4-2.57.65-4.78.25-2.2.51-4.12.78-5.74.55-5.08.99-8.57 1.33-10.47.33-1.89 1.05-4.12 2.15-6.66 1.11-2.55 2.47-4.5 4.1-5.86 2.09-1.75 5.14-2.9 9.13-3.4s7.48-.03 10.46 1.4c2.28 1.11 4.2 2.92 5.75 5.43s2.65 5.26 3.31 8.24c.66 2.99 1.1 5.72 1.33 8.19.24 2.48.31 4.73.24 6.77-.07 1.29.28 4.32 1.04 9.1.75 4.77 1.06 8.35.94 10.73Zm-22.31-22.29c4.07-.99 6.24-2.79 6.5-5.43.44-3.79-.14-7-1.76-9.62-1.49-2.41-3.23-2.75-5.18-1.02-.4.39-.8.84-1.2 1.37-.41.52-.74 1.02-.99 1.48q-.39.69-.75 1.8c-.24.74-.44 1.32-.59 1.76s-.31 1.07-.49 1.92c-.18.84-.31 1.43-.37 1.77-.07.34-.18.95-.32 1.82-.15.88-.27 1.38-.35 1.52-.2 1.42.27 2.33 1.41 2.72q1.695.6 4.11-.09ZM518.36 197.49c-6.89-1.48-9.88-6.25-8.98-14.49.31-2.56 1.42-7.14 3.35-13.71 1.94-6.57 2.95-11.29 3.01-14.15.05-1.56 0-3.69-.15-6.37s-.19-4.7-.14-6.06.45-3 1.2-4.93c.74-1.93 1.94-3.72 3.61-5.35 2.08-2 5.35-3.57 9.8-4.66 4.46-1.09 9-1.54 13.61-1.34s8.84 1.23 12.66 3.07 6.09 4.3 6.82 7.32c.85 4.15.66 7.7-.53 10.65-1.2 2.95-3.29 5.34-6.28 7.18-3.89 2.5-8.49 3.79-13.81 3.95-1.74 0-2.93.42-3.55 1.28-.63.86-.56 1.93.2 3.22 1.03 1.94 2.6 3.49 4.71 4.67 2.11 1.17 4.28 1.75 6.52 1.74 1.3.03 2.65-.31 4.06-1.01q2.115-1.05 3.66-2.19a12.9 12.9 0 0 1 3.45-1.8c1.27-.43 2.46-.43 3.56 0 1.92.8 3.26 2 4.03 3.57s1.01 3.22.73 4.95-.83 3.4-1.63 5.01q-1.215 2.43-2.91 4.23c-2.09 2.25-4.85 3.64-8.28 4.22-3.42.58-6.53.46-9.34-.38-2.52-.85-4.76-2.12-6.73-3.81s-3.47-3.38-4.49-5.08-2.1-3.44-3.26-5.22-2.16-2.97-3.02-3.57c-1.23-1-2.27-1.45-3.1-1.36-.84.09-1.59.65-2.27 1.69q-1.005 1.56-.09 5.22c.61 2.44 1.43 5.19 2.44 8.24 1.02 3.05 1.55 5.44 1.6 7.15.03 2.95-1.21 5.15-3.69 6.62s-4.74 1.98-6.78 1.52Zm12.89-48.12c1.14.71 2.97.91 5.49.61s4.87-.95 7.06-1.96c1.18-.56 2.25-1.29 3.22-2.18.97-.9 1.64-1.83 2-2.79.36-.97.17-1.84-.56-2.61-.74-.78-2.16-1.28-4.26-1.49-4.14-.41-7.96-.17-11.44.7-2.04.46-3.24 1.92-3.59 4.36-.36 2.45.34 4.24 2.08 5.37ZM606.98 175.89q-1.875-1.26-2.31-3.09c-.29-1.22-.25-2.33.13-3.33.37-1 .5-2.03.36-3.11-.13-1.07-.75-1.87-1.85-2.38-1.79-.84-3.69-.43-5.71 1.24q-3.03 2.505-5.34 7.38c-1.54 3.25-2.81 6.77-3.82 10.55q-1.5 5.67-1.32 11.34t2.37 9.12c.73 1.15 1.64 1.96 2.75 2.42 1.1.46 2.28.26 3.53-.61s2.19-2.6 2.82-5.18c1.8-7.64 5.87-9.75 12.16-6.15 2.58 1.46 4.01 4.03 4.27 7.67s-.6 7.05-2.56 10.26c-1.79 3.12-4.5 5.24-8.12 6.41s-7.73 1.47-12.36.94c-5.23-.68-9.37-3.28-12.45-7.87-3.09-4.59-4.87-9.97-5.33-16.19-.36-5.1.09-10.28 1.37-15.52s3.02-10.14 5.23-14.68 4.7-8.36 7.48-11.46c2.51-2.89 6.01-4.99 10.49-6.24s8.61-1.17 12.37.2c3.97 1.44 6.99 3.85 9.02 7.18 2.04 3.33 2.63 7.26 1.79 11.76-.17.85-.41 1.74-.71 2.68s-.74 1.99-1.31 3.16-1.26 2.15-2.05 2.94q-1.2 1.185-2.82 2.04c-1.08.57-2.29.71-3.6.42-1.32-.29-2.82-.92-4.49-1.88ZM642.81 223.7c-2.39 6.55-6.62 8.69-12.73 6.58-2.65-.91-4.79-2.65-6.43-5.23s-2.07-5.4-1.28-8.47c.73-3.15 2.59-7.66 5.61-13.47 3.01-5.81 4.56-8.79 4.6-8.98.26-.53.5-1.09.7-1.68q.3-.885.51-1.59c.14-.47.28-1.06.44-1.77.15-.71.27-1.26.35-1.64q.12-.585.3-1.92c.12-.9.19-1.51.23-1.84.03-.33.1-1.06.18-2.17.09-1.11.16-1.8.21-2.06s.13-1.05.22-2.36q.135-1.98.12-2.4c.32-3.97 1.38-7 3.2-9.06s4.25-2.96 7.27-2.67c5.67.57 9.48 2.68 11.39 6.18 1.91 3.51 1.5 7.07-1.2 10.73-.35.49-1.36 1.77-3.03 3.87s-2.96 3.88-3.86 5.34-1.6 2.93-2.09 4.42q-1.35 3.975-2.28 15.03c-.63 7.37-1.45 12.43-2.45 15.18Z" class="cls-1"/></svg>