<?xml version="1.0" encoding="UTF-8"?>
<svg id="Livello_1" data-name="Livello 1" xmlns="http://www.w3.org/2000/svg" viewBox="0 0 758.17 792.77">
  <defs>
    <style>
      .cls-1, .cls-2 {
        stroke-width: 0px;
      }

      .cls-2 {
        fill: #3d3d3d;
      }
    </style>
  </defs>
  <path class="cls-2" d="m228.57,782.3c-6.02-33.57-12.03-67.14-18.05-100.71-.37-.15-.75-.3-1.12-.45-1.02,3.78-3.11,7.62-2.86,11.31.63,9.6-2.82,17.11-9.27,23.8-1.49,1.55-2.18,3.94-3.01,6.04-4,10.2-7.33,20.71-12.04,30.57-4.59,9.61-12.31,16.03-23.62,16.98-1.53.13-3.24.94-4.44,1.95-13.33,11.24-28.6,17.33-46.08,18.13-9.48.43-19,.98-28.39,2.32-19.66,2.82-34.18-5.66-46.44-19.83-8.36-9.66-13.17-21.06-16.85-33.14-3.92-12.88-8.58-25.54-12.43-38.44-8.2-27.53-4.02-52.64,15.32-74.64,1.88-2.14,3.52-4.85,4.27-7.57,6.18-22.43,3.57-24.61,26.68-38.03,5.58-3.24,10.38-9.09,13.65-14.82,11.41-19.99,24.94-38.17,41.67-54,5.75-5.43,6.8-13.11,7.31-20.23.9-12.44,6.49-22.22,14.64-30.92,2.48-2.65,3.07-4.95,1.75-8.38-2.75-7.14-4.77-14.57-7.62-21.67-3.9-9.73-2.74-18.51,3.49-26.83,1.58-2.11,2.82-4.48,4.4-7.02-1.75-1.3-3.46-2.33-4.89-3.67-11.28-10.57-22.84-20.88-33.56-31.99-3.59-3.72-6.08-9.33-7.17-14.48-3.1-14.58,5.43-26.45,20.25-28.06,7.15-.78,14.54.15,21.76.89,2.43.25,5.18,1.81,6.9,3.61,2.61,2.73,5.47,3.01,8.65,2.4,10.89-2.07,21.73-4.44,32.65-6.32,4.19-.72,8.56-.62,12.84-.56,7.43.11,14.86.56,22.29.7,6.3.11,12.61.04,18.91-.08,1.95-.04,3.92-.37,5.84-.77,6.2-1.29,12.37-2.7,18.57-4,.79-.17,1.78-.21,2.47.13,8.24,4.1,16.29,1.07,24.38-.55,4.04-.81,8.06-1.69,11.65-2.44-.89-9.49-1.59-18.43-2.68-27.31-.2-1.63-1.69-3.35-3.03-4.53-3.97-3.5-7.39-7.03-7.33-12.93.02-1.92-1.55-3.89-2.51-5.78-4.36-8.61-2.3-15.47,5.98-20.45.88-.53,1.51-2.07,1.63-3.2,1.59-14.93,7.93-28.07,14.95-41.02,1.42-2.62,2.01-5.86,2.35-8.88,1.22-10.7,2.2-21.44,3.21-32.17.12-1.26,0-2.58-.23-3.83-1.34-7.42-2.72-14.84-4.13-22.25-.15-.78-.32-1.64-.76-2.26-6.63-9.37-6.76-12.8-.52-22.79-6.08-3.68-11.24-8.41-11.96-15.93-.35-3.66.61-7.45,1.04-11.17.13-1.11.81-2.26.63-3.28-2.26-12.73,4.76-21.35,13.22-29,6.48-5.87,6.76-5.55,11.65-4.7-2.25,1.32-4.57,2.02-5.82,3.58-1.7,2.12-3.1,4.77-3.72,7.41-1.64,6.94,1.5,13.03,6.47,13.47,9.21.81,15-3.5,14.95-11.6-.07-12.33,6.19-19.88,17.31-23.97-1.26-14.98,2.67-22.82,14.49-26.63-2.32,1.86-3.58,2.88-4.84,3.88-6.54,5.14-9.72,12.97-7.38,19.82,2.53,7.38,8.27,11.06,15.92,11.6,6.63.47,13.38,1.47,19.92.77,21.67-2.33,38.29,12.52,42.83,31.66,3.04-5.5.29-18.8-5.49-26.17-6.03-7.69-14.3-11.58-24.89-13.56,19.22-2.06,32.41,13.36,34.07,38.18,9.83-17.56-1.24-38.35-21.79-39.96-6.63-.52-13.44,1.31-20.18,1.9-7.9.69-15.82,1.78-23.71,1.62-6.09-.12-11.18-5.55-12.53-11.32-1.28-5.47,1.01-10.68,6.36-14.53C363.21-.06,370.93,0,375.91,5.52c-3.65-.18-8.13-1.07-12.39-.45-7.08,1.03-11.02,6.45-10.17,12.55.77,5.52,6.43,10.45,12.84,9.32,6.54-1.16,13.1-3.51,18.98-6.62,5.52-2.92,10.04-7.67,15.21-11.32,20.92-14.73,43.06-11.22,58.17,9.36,5.47,7.45,11.95,11.96,21.66,11.97,8.98,0,17.36,2.73,24.37,8.87,1.7,1.48,4.02,2.26,6.08,3.33,10.64,5.52,18.89,13.23,21.58,25.34.85,3.85.13,8.06.13,12.37,7.08-7.81,5.27-20.14-4.12-30.1,8.74,3.08,12.88,15.22,9.17,28.04,9.94-2.11,18.44,0,24.82,8.33-6.87-5.23-14.37-7.26-23.73-5.31,23.04,9.49,32.83,26.76,30.09,50.86-.38,3.37,1.63,6.96,2.13,10.51.31,2.13.59,4.82-.4,6.49-3.2,5.36-3.75,11.12-2.38,16.76,1.62,6.67-.33,11.73-4.82,16.27-2.52,2.55-3.52,5.2-3.75,9.06-.28,4.83-2.8,9.53-4.49,14.69,10.64,9.58,14.02,24.45,6.61,38.54-4.11,7.81-10.02,14.85-15.97,21.47-5.31,5.91-9.97,11.78-12.5,19.52-3.67,11.26-9.91,14.68-22.33,13.01-.12,2.41-.24,4.78-.38,7.66,12.52,1.3,18.21,10.21,24.12,19.66,5.5,8.81,12.59,16.64,19.04,24.85.58.74,1.56,1.38,2.47,1.6,13.12,3.25,23.27,11.91,34.59,18.52,22.56,13.17,45.55,25.62,68.61,37.89,13.99,7.45,28.03,14.68,40.23,24.98,5.13,4.33,8.56,9.57,10.78,15.89,1.63,4.66,3.55,9.38,6.24,13.48,13.42,20.41,23.16,42.43,27.94,66.32,4.99,24.95,8.93,50.11,13.26,75.19.44,2.55.39,5.18.57,7.77-.44.1-.88.2-1.31.29-.47-1.78-1.03-3.53-1.38-5.33-4.51-23.03-8.03-46.31-13.75-69.03-5.97-23.7-13.45-47.07-26.25-68.33-4.08-6.78-6.5-14.55-10.44-21.43-2.49-4.36-5.68-9.05-9.79-11.62-15.34-9.62-30.94-18.9-46.91-27.43-23.94-12.78-48.31-24.73-70.03-41.32-5.85-4.47-12.64-7.71-19.77-11.97,1.82,11.09,3.92,20.73,4.83,30.48.66,7.05-.24,14.25-.46,21.38-.91,29.69-.02,59.31,3.53,88.83.73,6.1-.88,7.57-6.96,6.5-8.59-1.52-16.18-5.49-22.51-11.28-6.74-6.17-12.6-13.3-19.32-19.49-3.7-3.41-8.06-6.52-12.68-8.38-6.22-2.5-11.71.04-15.89,5.23-6.79,8.44-9.09,18.55-9.77,28.91-.61,9.27,0,18.62.19,27.93.07,3.49.22,7.02.8,10.46,2.14,12.62-3,21.86-12.74,29.41-6.58,5.1-12.76,10.71-18.98,16.25-1.21,1.08-2.74,3.06-2.5,4.32,3.94,21.24-2.85,40.87-8.58,60.73-3.27,11.34-6.75,22.75-8.51,34.37-1.38,9.07-.3,18.53-.2,27.81.02,2.4.46,4.79.88,8.89-3.25-1.96-5.33-2.85-6.95-4.25-7.21-6.25-12.13-14.21-15.47-23-3.96-10.42-7.22-21.1-10.93-31.62-1.54-4.38-3.46-8.62-5.62-13.97-4.24,5.09-8.3,9.27-11.54,14-5.81,8.49-11.43,17.14-16.54,26.06-3.16,5.52-3.24,11.75-1.21,17.95,2.44,7.43,4.85,14.88,6.91,22.43,2.05,7.55,1.3,15.15-2.78,21.75-4.26,6.9-4.75,13.58-1.74,20.88.64,1.55.65,3.35,1.1,5.9-6.78-5.89-9.08-16.78-4.88-23.76,6.11-10.15,7.04-20.68,2.14-31.06-7.95-16.85-7.06-33.09.89-49.47,1.77-3.64,2.06-7.13.2-11.3-3.24-7.25-5.42-14.97-8.4-23.5-2.62,3.31-4.7,5.8-6.63,8.4-6.95,9.36-13.5,19.05-20.91,28.02-4.06,4.92-9.47,8.76-14.46,12.85-.92.75-3.18.89-4.1.26-.74-.51-.94-2.84-.45-3.96,10.06-23.09,5.43-46.85,3.51-70.53-1.14-14.13-2.31-28.41,2.53-42.09,2.3-6.51,6.24-12.42,9.14-18.74.76-1.66,1.23-4.33.42-5.68-4.43-7.41-9.02-14.76-14.15-21.7-2.69-3.64-3.59-6.81-1.81-10.98,3.07-7.19,6.09-14.42,8.78-21.76,2.86-7.79,1.83-15.04-4-21.35-2.31-2.5-4.81-3.33-8.03-1.98-10.92,4.58-21.8,8.95-27,21.13-2.06,4.82-5.95,8.83-8.59,13.44-.96,1.69-1.31,4.19-.9,6.1,1.05,5.04,3,9.89,4.01,14.93,3.46,17.3-1.9,31.48-15.53,42.66-2.01,1.65-4.14,3.53-5.34,5.77-12.47,23.35-24.87,46.74-36.94,70.3-1.5,2.93-1.83,7.02-1.3,10.35,4.67,29.59,9.91,59.09,14.42,88.71,1.88,12.32,2.45,24.85,3.5,37.29.15,1.81-.34,3.67-.53,5.5-.63,0-1.27-.02-1.9-.02ZM510.77,192.18c.89.26,1.78.53,3.77,1.12-4.15-5.04-7.59-9.2-11.02-13.37-.22.12-.44.23-.66.35l6.51,11.07c2.57,11.3,11.06,19.53,16.51,17.16-4.91-5.3-10-10.81-15.1-16.32Zm-129.21,224.15c1.51-1.69,2.87-3.56,4.56-5.05,3.23-2.84,6.65-5.47,9.99-8.19-.42-.54-.83-1.09-1.25-1.63-6.25,4.73-12.72,9.2-18.61,14.34-1.71,1.5.28,2.81,2.41,2.3-2.01,1.87-2.11,3.35.88,4.16.54,4.55,3.31,2.77,5.72,2.02-.65.88-1.3,1.76-1.95,2.64,7.05,6.84,13.53,13.75,10.19,25.45-.71-1.07-1.17-1.45-1.17-1.82,0-11.76-9.25-17.34-16.38-24.27-.7-.68-2.34-.39-3.55-.54.29-1.04.57-2.09.86-3.13-1.18.25-2.86.1-3.44.83-1.63,2.05-2.59,4.64-4.24,6.66-1.14,1.39-3.04,3.1-4.5,3.01-1.52-.1-3.32-1.93-4.27-3.46-1.12-1.81-1.46-4.11-2.15-6.19-.53.14-1.07.29-1.6.43,1.66,6.18,3.31,12.36,4.97,18.54-.14.48-.55,1.08-.4,1.41,3.63,7.77,7.24,15.55,11.13,23.2.36.71,2.52.69,3.84.69,4.77,0,10.19-1.58,14.13.18,4.76,2.12,8.82,1.84,13.62,1.85,5.05,0,10.1,2.89,16.22,4.87,3.97-2.99,9.14-6.88,14.32-10.77,16.63-12.51,33.55-24.74,47.39-40.46,21.53-24.46,37.68-50.65,30-85.71-2.52-11.52-2.02-23.71-2.93-35.91-.75,2.78-1.47,5.43-2.17,8.08-4.62,17.32-11.29,33.46-25.98,44.97-5.1,4-10.62,7.57-15.23,12.08-7.71,7.54-14.77,15.73-22.26,23.5-3.01,3.12-6.42,5.84-9.65,8.75-.58-.6-1.15-1.2-1.73-1.8,9.95-9.52,19.89-19.03,29.86-28.58-6.17,3.58-12.3,7.12-18.41,10.68-1.68.98-3.32,2-4.98,3.01l-.1.11c-2.97,1.77-6.14,3.28-8.88,5.35-14.13,10.71-28.15,21.58-42.21,32.38.91-1.13,1.64-2.49,2.75-3.36,5.74-4.52,11.58-8.93,17.38-13.37,4.49-3.44,8.98-6.87,13.47-10.31-.26-.38-.52-.75-.78-1.13-2.33,1.43-4.75,2.75-6.98,4.32-9.33,6.59-18.6,13.25-27.9,19.88ZM398.31,15.5c4.2-1.52,8.32-3.38,12.62-4.51,16.42-4.3,32.02.45,38.74,12.91,5.83,10.8,8.72,22.71,6.66,35.18-.78,4.72-2.54,9.29-3.85,13.92,1.4-.21,1.89-1.08,2.52-1.84,16.35-19.6,9.03-51.79-14.59-64.03-13.32-6.91-33.46-3.01-42.86,8.29-2.03,1.33-4.06,2.66-6.09,3.98,15.4-3.81,30.57-6.83,43.31,5.84,11.89,11.83,14.26,26.32,9.78,42.29,4.68-6.7,6.55-14.15,7.71-21.95,1.31-8.73-3.58-14.77-9.26-20.62.5-.3.99-.61,1.49-.91,1.59,2.05,3.19,4.11,4.78,6.16.36-.27.73-.53,1.09-.8-1.2-2.05-2.15-4.31-3.65-6.12-7.23-8.73-16.74-12.5-27.87-11.41-6.9.67-13.71,2.37-20.55,3.61Zm-35.45,515.82c-.67.6-1.35,1.19-2.02,1.79-8.9,13.47-18.8,26.7-21.55,42.93-2.44,14.38-2.78,29.1-4.13,43.67-.32,3.49-.97,6.95-1.47,10.43-.79-12.88-1.02-25.59-.73-38.29.29-12.5,3.38-24.47,9.4-35.42,4.89-8.88,10.64-17.29,15.94-25.95.72-1.18,1.67-2.78,1.39-3.9-.81-3.25-2.19-6.36-3.19-9.1-8.89,10.5-17.83,20.97-26.67,31.54-6.99,8.37-12.27,17.96-12.72,28.8-.66,15.75-.29,31.59.62,47.33.93,16.02,2.41,31.94-2.79,47.54-.83,2.49-1.68,4.97-2.52,7.46.44.27.88.55,1.32.82,4.81-5.46,10.02-10.62,14.35-16.43,10.05-13.49,19.3-27.58,29.56-40.9,11.67-15.15,14.58-31.89,12.25-50.42-1.41-11.2-1.72-22.57-1.78-33.87-.02-4.43-1.07-6.95-5.28-8.03Zm55.03,105.35c1.35-10.22,2.76-20.43,4.05-30.66,2.85-22.48-5.27-42.24-15.45-62.41,0,1.4-.11,1.91.02,2.35,7.16,24.96,10.85,50.34,9.9,76.37-.17,4.73,1.01,9.51,1.57,14.26.56,3.43,1.12,6.87,1.67,10.3-.54.13-1.08.26-1.62.39-.9-3.7-2.38-7.37-2.6-11.12-.77-12.96,0-26.11-1.87-38.89-2.59-17.74-7.05-35.21-10.65-52.81-1.38-6.76-2.57-13.55-3.87-20.44-5.21,3.01-2.99,7.74-3.68,11.8-2.6,15.22-4.8,30.58-8.66,45.5-5,19.36-4.49,37.44,4.68,55.73,6.6,13.16,10.67,27.57,16.24,41.27,3.44,8.45,7.48,16.65,11.48,24.86,1,2.05,2.87,3.68,4.83,6.11,0-9.56-1.28-18.26.27-26.43,2.98-15.65,6.58-31.34,11.71-46.4,9.79-28.73,7.27-55.88-6.56-82.59-6.49-12.53-11.81-25.66-17.88-38.42-1.99-4.18-4.62-8.06-7.06-12.02-.5-.81-1.49-1.32-2.75-2.38,1.36,12.84.17,25.24,7.12,36.26,2.81,4.45,4.6,9.62,6.42,14.61,3.13,8.59,6.73,17.12,8.67,25.99,4.18,19.07-.12,37.74-4.38,56.29-.21.91-1.05,1.66-1.58,2.47ZM152.91,326.43c-5.29.77-10.58,1.54-15.11,2.2,3.06,5.9,6.07,11.83,9.18,17.7,2.96,5.59,11.92,9.73,17.33,8.15.17-.05.44.26.71.44-.83.69-1.63,1.34-2.27,1.88,1.84,2.06,3.48,3.88,5.2,5.81,3.23-1.93,6.14-3.66,8.96-5.34-3.18-4.79-7.04-7.39-12.55-7.53-3.56-.09-6.22-1.84-6.96-5.82-.15-.83-1.62-1.42-2.25-1.93.51-.75,2.22-2.41,1.92-2.94-1.85-3.32-4.16-6.38-6.5-9.79.5-.6,1.43-1.71,2.35-2.82.48,1.45.82,2.97,1.47,4.35,1.56,3.29,4.25,6.38,4.66,9.78.55,4.58,1.82,7.21,6.67,7.39,4.45.16,8.34,1.29,10.97,5.48.64,1.02,3.26,1.71,4.52,1.26,6.97-2.48,13.29.15,15.47,7,.69,2.18.87,4.52,1.01,5.32,5.67,3.23,10.37,5.91,15.45,8.81,1.03-.89,2.68-2.27,4.28-3.7,1.61-1.44,3.13-3,4.77-4.41,5.42-4.68,10.64-5.64,15.97-2.56,5.59,3.22,8.49,8.37,7.16,14.67-1.27,6.01-3.75,11.76-5.79,17.89,1.02.08,3.17-.32,4.75.44,6.8,3.29,13.47,1.42,20.14-.08,5.73-1.29,11-.99,16.2,2.18,2.61,1.59,5.83,3.11,8.76,3.08,9.4-.08,18.08.76,22.75,10.7,4.93-5.98,9.09-11.95,14.2-16.96,4.66-4.57,7.67-9.62,10.08-15.63,1.38-3.44,5.28-7.31,8.71-8.11,4.35-1.01,9.16,1.72,10.34,6.91,1.62,7.08,3.2,14.29,3.61,21.51.42,7.42-.88,14.93-.8,22.39.02,2.14,2.18,4.27,3.36,6.4.8-2.29,2.32-4.59,2.27-6.85-.2-8.3-1.4-16.59-1.32-24.87.08-8.45,1.26-16.89,1.9-25.35.43-5.76,2.14-10.89,5.82-15.55,6.4-8.09,12.22-16.63,18.64-24.7,2.97-3.73,7.06-6.56,10.1-10.25,2.99-3.63,6.74.6,10.91-2-2.23-1.5-4.23-3.78-5.31-3.4-3.92,1.35-9.34-.39-11.48,5.13-.68,1.76-1.72,4.36-3.07,4.71-5.2,1.34-6.39,5.21-7.76,8.95-1.58.46-3.25,1.15-3.87,2.38-2.59,5.14-4.71,10.47-9.5,14.24-1.71,1.34-2.58,3.75-3.44,5.06.03.11-.24-.88-.57-2.1-6.21,9.49-2.68,20.01-4.31,29.79-.43-1.65-.66-3.27-.71-4.89-.22-6.89-.96-13.84-.31-20.65.29-3.03,3.26-5.9,5.28-8.65,2.87-3.92,5.88-7.76,9.01-11.48,4.33-5.15,8.81-10.17,13.25-15.22,1.18-1.34,2.97-2.38,3.59-3.92,2.06-5.05,12.65-9.41,17.35-6.55,1.36.82,2.04,2.98,2.69,4.66.42,1.08.24,2.4.41,4.76,4.91-7.76,3.8-12.49-3.02-15.57-2.49-1.12-5.43-1.65-8.18-1.72-7.26-.18-14.58.64-21.77-.04-10.83-1.02-22-.51-32.18-5.69-1.18-.6-3.32-.08-4.71.58-11.05,5.22-22.46,9.17-34.69,10.42-1.92.2-3.82.63-5.73.96.4.46.79.92,1.19,1.39-2.12,2.87-3.76,6.35-6.46,8.5-8.56,6.81-18.83,6.92-29.06,5.9-2.78-.28-6.15-1.48-7.94-3.44-2.73-3-5.54-3.04-8.89-2.54-1.3.2-2.63.24-3.94.35l-.17-1.12,12-2.9c-.05-.59-.11-1.18-.16-1.77-2.38.15-5.35-.54-7.01.62-3.43,2.41-6.74,2.93-10.65,2.2-1.2-.23-2.57.49-3.87.72-2.88.51-5.76,1.28-8.66,1.42-6.13.28-12.27.25-18.41.29-5.97.04-12.07.81-17.87-.18-7.84-1.33-15.12-.48-22.61,1.68-4.98,1.44-10.28,1.77-15.43,2.59ZM424.19,82.38c-1.53,1.37-3.06,2.73-5.09,4.55,2.87-15.16,2.26-20.82-2.99-26.66,2.33,8.42,2.81,16.33-.09,23.4-.56-6.64-.68-13.95-1.91-21.07-1.31-7.59-5.63-13.5-12.96-16.96,10.47,10.02,11.55,22.18,8.76,35.27-1.03-1.4-1.29-2.97-1.64-4.53-2.45-10.82-7.13-20.35-15.8-27.64-9.09-7.65-19.54-9.52-31.19-8.85-8.95.52-16.8,2.56-22.87,9.26-5.39,5.95-10.41,12.23-15.6,18.37-.52-.56-1.04-1.11-1.57-1.67,3.69-.7,7.67-.76,11-2.26,3.74-1.7,6.88-4.7,10.28-7.14-3.52,7.07-9.08,11.94-16.17,14.64-14.4,5.49-27.48-4.29-26.62-19.6.03-.51-.09-1.02-.18-1.91-6.35,8.24-4.75,19.32,3.23,24.99,10.36,7.36,27.77,4.95,36.4-5.04,11.58-13.41,25.92-16.37,41.47-8.59.35.18.87.02,1.64.02-4.85-7.48-11.73-10.76-19.8-8.55-7.24,1.98-13.95,5.88-20.22,8.63-.21.34.07-.26.48-.74,14.14-16.71,40.52-14.17,53.05,4.83,4.54,6.88,9.94,13.2,14.92,19.79.63.84,1.14,1.77,2.21,3.44-1.32-.61-1.84-.69-2.1-.99-5.55-6.33-11.12-12.64-16.59-19.04-2.99-3.5-5.8-7.14-8.7-10.72-.48.4-.97.8-1.45,1.2,5.24,11.8,10.25,23.79,24.95,29.48-12.8,2.11-21.9-1.28-29.42-9.62-4.53-5.03-10.67-6.33-17.08-5.18-9,1.62-16.76,6.09-22.12,13.4-5.17,7.06-9.79,14.66-13.64,22.52-5.85,11.93-10.83,24.29-16.15,36.48-.52,1.19-.84,2.46-1.57,4.66,10.06-10.79,19.61-19.73,34.84-13.63-.47-.87-.94-1.75-1.72-3.21,8.65.3,13.74,5.65,18.81,10.48,4,3.8,3.8,8.89,1.63,13.86-6.26-2.13-12.23-4.5-18.39-6.19-9.89-2.71-19.51-1.86-27.71,4.82-6.56,5.35-13.38,10.57-12.11,20.94,1.23,9.97-1.39,19.25-6.29,28.21-8.02,14.67-13.41,30.13-10.52,47.38.21,1.26-1.6,2.85-2.47,4.28-1.02-4.62-2.05-9.24-3.09-13.98-5.11,4.74-3.59,10.9,3.22,13.85,6.77,4.13,13.98,3.36,20.59.45,12.6-5.55,24.36-12.61,33.9-22.86.97-1.04,2.39-1.94,3.76-2.28,5.45-1.37,8.55-5.38,9.29-10.25,1.71-11.33,6.27-21.27,12.3-30.83,1.56-2.47,2.61-6.01,2.21-8.81-.96-6.63-2.93-13.11-4.31-18.9,8.04,8.25,9.89,21.46,3.56,31.62-5.08,8.15-8.78,16.74-10.74,26.19-.57,2.75-2.23,5.63-4.2,7.67-9.4,9.73-10.17,18.95-2.08,29.91,4.63,6.27,12.3,7.76,18.97,3.73,3.27-1.98,6.43-4.19,9.88-5.77,3.98-1.82,8.2-2.55,12.77.9-2.41,1.31-4.31,2.61-6.39,3.42-4.94,1.93-10.05,3.45-14.94,5.47-7.59,3.14-16.44,1.52-22.14-4.27-3.28-3.33-6.67-6.56-10.06-9.79-1.06-3.06-2.13-6.13-3.2-9.2-3.46,2.89-7.02,5.88-10.86,9.08h14.2c-1.1.78-2.09,1.99-3.3,2.27-6.05,1.4-12.15,2.55-18.24,3.79-1.05.55-2.11,1.1-3.16,1.64-2.75.49-5.48,1.27-8.24,1.39-5.72.24-11.58.86-17.16-.03-5.8-.92-10.21-4.71-12.32-10.79.56,3.46,1.31,6.75,2.99,9.46,5.92,9.57,20.46,12.74,32.25,7.38,1.59-.72,3.34-1.11,5.02-1.65.1.49.2.98.3,1.48-9.49,5.98-19.84,4.94-31.57,2.51,6.41,5.38,13.03,3.85,19.15,4.43-.02.43-.04.86-.07,1.3h-16.33c3.89,3.67,8.02,5.01,13.92,3.87,9.15-1.76,17.28-5.37,24.3-11.86,4.09-3.78,9.35-6.31,14.09-9.4.26.42.53.84.79,1.25-10.7,7.61-21.4,15.23-32.49,23.12,5.5-2.09,10.74-4.07,16.99-6.44-5.44,7.06-12.62,6.86-20.1,8.42,7.67,3.53,13.17.13,18.23-3.4,5.18-3.61,9.8-8.03,14.66-12.09.18.2.36.41.55.61-4.41,4.64-8.83,9.28-13.74,14.44,9.44-2.16,14.78-9.77,22.17-14.21-1.5,3.06-2.85,5.83-4.21,8.6.45.3.89.61,1.34.91l8.92-10.9c.34.24.68.48,1.02.72-2.86,4.61-5.72,9.21-8.58,13.82.24.19.48.39.72.58,3.76-4.6,7.53-9.2,11.29-13.79.29.14.57.29.86.43-1.99,4.12-3.98,8.24-5.97,12.37.36.2.71.41,1.07.61,2.85-4.55,5.7-9.1,8.35-13.31,2.31,5.6,4.55,11.03,6.79,16.46.39-.16.77-.32,1.16-.48-1.12-3.8-2.25-7.59-3.52-11.88,2.71,3.21,4.91,5.82,7.11,8.43.44-.18.87-.36,1.31-.54-.36-3.81-.72-7.61-1.08-11.42,3.91,8.36,5.75,17.9,15.28,22.16-2.1-3.31-4.78-6.22-7.09-9.39-1.19-1.64-3.32-4.02.84-5.04l-.15-.19c2.19,5.65,5.53,10.29,11.6,14.04-2.78-4.14-4.93-7.33-7.07-10.51,5.21,3.82,13.96,8.12,14.64,6.12-.62-1.24-1.23-2.47-2.43-4.87,2.87,2.61,4.73,4.3,6.58,5.99l.61-.59c-1.89-2.72-3.78-5.44-5.67-8.15.2-.14.4-.28.6-.42,4.83,4.27,9.66,8.55,14.49,12.83,1.57-1.81,2.39-2.75,3.4-3.9,6.87,5.47,13.34,11.14,22.19,13.55-4.82-3.71-9.25-7.11-13.67-10.51.26-.32.51-.64.77-.96,1.38.92,2.71,1.93,4.15,2.75,9.83,5.57,19.54,12.13,31.17,3.99.64-.45,1.87-.06,3.04-.06.38-6.05,5.2-5.46,9.09-6.3l-.17-.15c.32,4.24-1.83,6.71-5.61,8.27-3.55,1.47-5.79,3.54-6.73,8.01-1.22,5.75-4.46,11.06-6.83,16.56-.45-.19-.91-.39-1.36-.58,2.39-6.37,4.79-12.74,7.41-19.72-6.82,1.25-12.39,2.27-18.61,3.41-5.05-4.38-9.86-2.97-14.47,4.93-8.58,14.71-21.77,23.31-37.74,28.21-1.83.56-4.14,1.14-5.14,2.51-3.38,4.63-6.28,9.62-9.76,15.1h11.44c-2.64,2.08-5.46,3-8.17,4.16-5.86,2.51-11.53,5.45-12.37,12.69-.86,7.38-1.27,14.82-1.84,22.23-.02.25.33.53.62.96,16.05,1.71,31.54.36,44.97-10.01,6.19-4.78,12.33-9.67,18.08-14.96,5.89-5.42,11.26-11.39,16.86-17.12.32.31.64.62.96.93-6.21,7.27-12.41,14.54-18.62,21.81,10.07-4.84,19.53-10.55,29.03-16.21,22.17-13.22,36.82-31.8,41.74-57.58,1.31-6.85,3.4-13.56,5.31-20.28.46-1.62,1.61-3.04,2.45-4.56.45.15.9.3,1.34.45.22,1.61.07,3.38.72,4.79,1.32,2.84,2.5,6.95,4.78,7.82,2.86,1.1,7.18.29,10.1-1.2,2.3-1.17,4.09-4.39,4.98-7.08,2.96-8.96,8.03-16.31,14.95-22.66,3.66-3.35,7.13-7.1,9.87-11.21,6.1-9.15,9.29-19.27,6.77-30.33-2.42-10.61-11.54-15.4-21.41-11.03-4.62,2.04-9.5,4.83-12.61,8.63-5.68,6.95-10.14,14.91-15.83,23.54-3.03-4.26-6.19-8.69-9.34-13.13.45-.34.9-.68,1.35-1.02,2.51,3.19,5.03,6.38,7.54,9.56-1.07-5.85-6.62-9.32-7.37-15.08.38-.22.75-.43,1.13-.65,1.29,1.28,2.58,2.56,3.87,3.84-6.13-5.78-2.78-12.82-2.37-19.59,1.52,3.31,3.05,6.61,4.57,9.92.4-.17.81-.33,1.21-.5l-3.75-11.41c2.53,1.79,4.15,4.17,6.01,6.33,1.81,2.1,3.86,4,5.81,5.98.49-.4.98-.81,1.47-1.21-14.09-11.75-17.55-29.2-25.5-44.24.34-.23.68-.45,1.02-.68,1.84,2.35,3.69,4.7,6.13,7.8-1.99-5.5-3.66-10.1-5.32-14.7l1.45-.53c1.21,2.78,2.43,5.56,3.64,8.33.32-.11.63-.22.95-.33-.51-3.24-1.01-6.48-1.52-9.72,2.77,5.79,4.52,11.89,7.2,17.55,3.78,7.96,8.53,11.87,13.43,12.31-15.38-20.48-18.35-26.66-16.42-32.98,2.98,6.37,5.55,13.66,9.6,20.01,4.11,6.44,9.72,11.88,18.83,13.88-20.78-21.72-27.72-33.72-25.73-43.08,2.92,6.3,4.93,13.97,9.49,19.55,4.59,5.61,11.73,9.14,17.74,13.58.35-.46.71-.91,1.06-1.37-6.16-6.21-12.5-12.26-18.43-18.69-4.38-4.74-6.16-10.83-6.9-17.25l6.47,12.43c.37-.18.74-.37,1.12-.55-2.86-6.11-5.72-12.22-8.58-18.33.53-.27,1.06-.53,1.59-.8,3.19,6.1,7.15,11.93,9.38,18.36,3.31,9.53,9.63,15.5,18.56,19.23,2.56,1.07,5.29,1.75,7.95,2.6.5-.63.99-1.26,1.49-1.9-20.72-10.18-29.22-30.4-40.66-48.26,3.35,3.81,6.7,7.62,10.06,11.42.43-.38.86-.76,1.29-1.14-4.42-5.25-8.84-10.5-13.24-15.73,8.74,3.38,14.96,8.97,17.01,18.64.82,3.88,1.97,7.81,3.74,11.33,3.13,6.24,7.6,11.4,15.23,14.89-4.16-5.35-7.56-9.73-10.96-14.1,5.25,3.69,9.36,8.39,14.35,11.8,5.31,3.62,11.5,4.2,17.43.87-11.92,1.13-19.13-1.6-23.2-9,3.7,2,7.3,4.61,11.32,5.89,3.31,1.05,7.28,1.14,10.63.32,1.18-.29,1.4-4.55,2.01-7.01.07-.27-.15-.62-.36-1.43-11.72-1.24-15.33-10.43-18.39-20.05-.65-2.05-.89-4.24-1.32-6.36-3.38-16.85-16.49-25.78-33.45-22.73-3.99.72-7.94,1.6-11.91,2.41,2.23-1.9,4.65-3.31,7.2-4.39,9.51-4.05,19.33-5.22,29.25-1.88,12.26,4.12,16.67,13.86,17.77,25.84.34,3.75,1.22,7.44,1.85,11.16.7-.14,1.39-.28,2.09-.42-1.46-6.94-2.2-14.14-4.57-20.75-2.39-6.65-6.4-12.72-10.22-20.04,1.52.99,2.13,1.25,2.56,1.69,1.05,1.06,2.12,2.13,3.02,3.32,6.45,8.51,8.99,18.42,10.34,28.79.64,4.92,1.61,9.79,2.42,14.69.47-.11.94-.22,1.42-.32-.25-21.1-.13-42.33-21.75-55.39,13.73,3.89,19.51,14.45,23.39,26.67.42-7.83-5.62-20.23-12.62-25.67-6.78-5.27-14.17-8.81-23.11-5.92,3.04-8.14,3.12-15.99-2.26-23.58v23.6c.13,0,1.26-.07,2.38-.14,2.64.77,5.28,1.53,7.92,2.3-7.98.31-16.29-1.52-23.67,5.23,17.07-1.12,23.99.37,28.05,6.79-17.02-10.67-31.63-2-46.63,2.95,5.46-3.77,10.93-7.54,16.39-11.31l-.81-1.49c-6.63,5.51-14.35,7.54-22.79,7.95,18.05-11.99,28.79-26.86,19.3-49.11-4-9.39-18.36-16.34-27.44-14.62,11.44,8.28,15.16,13.77,7.97,35,.9-.72,1.64-1.31,2.45-1.95-2.12,7.93-11.83,16.59-20.84,17.94,1.09-1.54,2.63-2.68,3.9-4.07,4.13-4.5,8.94-8.62,12.09-13.75,8.57-13.97.3-32.61-14.69-34.24,14.31,24.32-6.1,48.15-24.45,51.69,10.78-6.22,20.39-12.26,24.8-23.56,4.32-11.09,1.83-23.99-6.27-31.39,4.2,14.09,5.05,28.1-3.82,40.01-7.97,10.7-19.21,17.31-32.99,16.48,3.29-3.96,7.43-8.1,10.57-12.9,7.82-11.94,7.16-28.81-1.05-40.57-7.52-10.76-20.02-15.11-35.15-11.29-10.09,2.55-19.92,6.17-29.86,9.31,2.34.5,4.66.59,6.85.11,5.03-1.11,9.95-2.76,15.01-3.73,14.2-2.72,26.49.63,35.7,12.31,9.39,11.91,9.85,24.77,2.85,37.83-1.38,2.57-4.85,4.01-7.35,5.97,2.99-6.28,6.58-12.36,8.71-18.91,1.19-3.65-.07-8.09-.22-12.18-1.37,5.2-1.5,10.41-2.73,15.34-1.35,5.41-3.73,10.57-5.66,15.84Zm-205.23,294.94c2.54,1.4,5.12,2.73,7.61,4.23,6.65,4,8.17,3.58,12.77-2.67,2.94-4,1.22-6.87-1.73-9.48-3.38-3-8.84-3.31-11.33-1.08-3.93,3.5-7.92,6.95-12,10.28-3.99,3.26-8.79,5.79-12.05,9.64-9.44,11.19-18.4,22.79-27.28,34.44-1.86,2.43-2.9,5.62-3.8,8.62-3.46,11.47-6.66,23.02-10.1,34.49-.62,2.05-1.92,3.9-2.9,5.85-.51-.19-1.02-.39-1.52-.58.67-2.79,1.04-5.69,2.06-8.35,4.39-11.48,6.66-23.01,1.35-34.79-1.45-3.21-3.51-6.15-5.42-9.45,5.8-5,9.72-12.65,12.84-20.72,1.14-2.95,2.55-4.79,5.53-6.33,9.54-4.94,17.7-11.5,20.15-22.75.53-2.43-.15-5.12-.27-7.68-2,2.59-2.49,5.32-4.02,7.23-4.58,5.73-10.2,5.64-16.59.57-1.36-1.08-3.84-1.95-5.33-1.47-12.17,3.93-21.54,11.35-27.98,22.61-4.66,8.16-9.96,15.95-15.27,24.38,4.07,1.57,7.12,2.76,10.18,3.94-.15.41-.3.82-.45,1.22-3.21-.95-6.41-1.9-9.6-2.85-2.42,9.12,6.2,6.57,10.87,10.08-4-.7-6.71-1.18-9.83-1.73.34,1.49.5,2.6.86,3.65,4.67,13.5,10.78,26.59,11.85,41.14.05.64.25,1.39.64,1.87,5.12,6.43,10.29,12.82,15.55,19.34.56-2.57,1.05-4.82,1.54-7.06.43-.1.85-.2,1.28-.3-.75,11.56,5.4,17.77,16.28,20.31-.33.43-.66.86-.99,1.28-3.96-.5-7.92-.99-11.91-1.49,4.61,9.36,9.12,18.44,13.55,27.56.98,2.01,1.29,4.42,2.54,6.19,7.91,11.2,18.98,18.39,31.19,24.05,1.27.59,2.46,1.37,3.69,2.05-20.65-3.24-33.34-16.63-42.98-34.08-.78.74-1.29,1.13-1.69,1.61-11.18,13-21.52,26.86-33.75,38.77-11.5,11.19-25.02,20.31-37.6,30.4-1.63,1.31-3.63,2.76-4.29,4.57-2.89,7.93-6.8,15.85-7.7,24.06-3.3,30.01,5.34,56.42,25.58,79.21,7.42,8.35,15.78,11.58,26.46,10.04,2.31-.33,4.63-.55,6.94-.89,12.79-1.87,22.3-6.71,28.07-20.07,9.55-22.13,21.39-43.27,32.37-64.78,2.35-4.6,5.16-8.97,7.76-13.44.11.07.22.15.33.22-14.88,29.9-29.77,59.8-44.83,90.05,11.69-3.57,19.44-10.42,23.08-21.61.72-2.21,1.72-4.33,2.52-6.52,12.25-33.76,27.43-66.12,46.18-96.78,2.83-4.62,5.62-9.26,8.66-14.26-3.1.41-5.64.74-8.17,1.08,9.48-7.12,19.46-13.01,25.5-23.3,5.69-9.68,6.22-25.44,1.26-33.17-1.73,2.26-3.47,4.53-5.2,6.79l-.96-.58c1.73-4.06,3.46-8.11,5.18-12.17-.29-.12-.58-.24-.88-.36-2.67,2.31-5.33,4.61-8,6.92,6.17-11.01,12.58-21.65,19.67-31.82,7.11-10.21,14.9-19.96,22.6-30.18-7.46-.48-13.48-.97-19.52-1.17-1.64-.06-3.87.23-4.88,1.27-12.82,13.31-25.47,26.79-38.18,40.21-.67.71-1.5,1.28-3.29,2.79,1.45-3.47,2.34-5.59,3.23-7.71-.26-.12-.51-.24-.77-.35-1.85,1.42-3.69,2.85-6.52,5.03,8.86-15.55,17-29.83,25.09-44.03-8.43-2-16.08-3.59-23.59-5.69-3.02-.84-4.91-.56-6.76,2.03-6.96,9.77-14.05,19.43-21.11,29.12-1.47,2.02-3.03,3.98-4.55,5.97-.3-.2-.6-.4-.91-.6.99-2.46,1.97-4.91,3.49-8.68-2.6,2.77-4.14,4.41-5.46,5.81,2.92-10.52,5.82-20.91,8.68-31.3.75-2.71.72-5.89,2.19-8.09,8.22-12.26,16.59-24.43,25.33-36.32,4.7-6.39,10.12-12.22,12.01-20.75-9.36,7.23-10.08,7.13-22.57-3.49Zm292.79-68.14c-1.49,6.59-1.68,11.26,2.31,15.76,5.34,6.03,4.58,14.02,4.36,21.5-.95,32.17-11.41,61.75-25.72,90.02-7.42,14.64-13.35,29.56-17.63,45.44-3.26,12.09-7.97,24.06-13.87,35.1-6.72,12.56-15.5,24.02-23.32,36-.85,1.31-2.14,3.21-1.75,4.31,2.88,8.06,6.13,15.98,9.41,24.29,7.84-7.29,15.34-14.62,23.23-21.49,6.73-5.86,9.07-12.83,8.7-21.69-.59-14.29-.73-28.64-.03-42.92.54-11.04,3.45-21.75,10.76-30.59,5.83-7.05,13.91-9.03,21.95-4.68,4.43,2.4,8.35,6,11.98,9.57,4.86,4.78,9.02,10.26,13.84,15.07,7.19,7.18,15.72,12.17,26.13,14.44,0-1.76.19-3.24-.03-4.66-3.75-24.95-4.5-50.04-4.16-75.24.21-15.64-.53-31.29-.87-46.93-.16-7.57-1.87-14.7-7.75-19.89-10.02-8.84-17.35-19.56-23.22-31.43-.94-1.91-2.23-3.89-3.88-5.15-3.29-2.53-6.95-4.58-10.45-6.83ZM107.09,585.11c-10.92-2.02-19.41-1.02-26.59,7.41-9.6,11.27-15.29,24.14-18.17,38.36-2.72,13.39-5.17,26.88-2.12,40.59,2.77,12.48,7.98,23.96,14.69,34.78,1.52,2.46,2.97,4.96,4.44,7.44-12.94-15.93-23.06-33.28-22.82-54.41.24-20.36,3.14-40.37,14.04-58.88-12.32,2.05-19.93,8.01-22.33,19.82-3.58,17.61-7.52,35.16-10.83,52.82-1.79,9.52-2.89,19.43,2.26,28.33,6.07,10.51,12.6,20.77,19.35,30.86,4.69,7,11.48,11.17,19.79,13.41,17.66,4.76,35.09,10.35,52.77,14.99,7.65,2.01,15.65,3.18,23.55,3.56,8.69.42,16.12-3.37,20.48-11.12,4.3-7.65,7.83-15.75,11.58-23.71.84-1.77,1.19-3.77,1.67-5.34-8.56,3.31-16.82,6.5-25.08,9.69-.25-.58-.49-1.17-.74-1.75,2.47-1.22,5.02-2.32,7.41-3.68,6.04-3.46,12.39-6.55,17.92-10.72,6.28-4.74,11.92-10.63,12.52-19.08.54-7.58.11-15.23.11-22.85-.64-.06-1.28-.13-1.92-.19-.64,2.97-1.78,5.93-1.82,8.9-.1,8.83-4.18,15.25-11.26,19.99-12.15,8.15-25.37,14-39.7,16.92-6.29,1.29-12.84,1.36-19.95,2.05,11.23,7.38,21.88,14.44,35.49,15.32-4.03.98-8.17,1.93-11.66.83-28.6-9.01-49.85-27.07-62.74-54.09-12.88-27-14.35-54.56.06-81.63,2.61-4.9,7.24-8.81,11.27-12.84,2.13-2.13,4.98-3.53,8.31-5.8Zm2.13,173.6c-2.37-.85-3.57-1.38-4.82-1.71-9.99-2.61-19.99-5.14-29.98-7.76-6.99-1.83-12.9-5.34-17.06-11.42-6.67-9.75-13.42-19.45-19.9-29.32-5.75-8.75-7.29-18.56-5.83-28.76,1.58-11.04,3.38-22.05,5.42-33.01,1.47-7.91,3.49-15.72,5.55-24.85-11.25,11.98-17.63,25.49-25.03,38.44.11-2.82.72-5.37,1.62-7.82,5.18-14.19,14.38-25.79,23.93-37.19,2.07-2.47,3.63-5.35,5.43-8.04-.39-.34-.78-.68-1.16-1.02-6.92,6.4-14.27,12.41-20.69,19.27-21.67,23.14-26.66,49.67-15.55,79.43,3.83,10.27,7.21,20.76,10.03,31.35,4.31,16.14,12.6,29.55,25.03,40.63,7.88,7.03,16.75,10.65,27.37,9.76,10.28-.86,20.56-2.01,30.87-2.35,14.63-.48,27.73-4.41,38.44-14.93-3.97-2.87-7.29-.68-10.73,1.48-3.38,2.13-6.9,4.04-10.37,6.02-3.25,1.86-6.52,3.69-9.78,5.53l-.75-1.38c7.46-4.49,14.92-8.97,22.37-13.46-.34-.71-.69-1.41-1.03-2.12-11.8,1.6-19.45,12.72-32.18,15.8,9.24-5.78,17.3-10.82,25.74-16.1-5.36-2.73-5.29-2.61-9.26-.16-8.38,5.17-16.85,10.2-25.28,15.28-.2-.33-.4-.67-.6-1,8.82-5.47,17.65-10.93,26.83-16.62-4.25-3.45-7.41-3.47-11.09-.85-3.61,2.56-7.7,4.46-11.58,6.64-.18-.33-.36-.67-.55-1,4.52-2.72,9.04-5.44,14.57-8.77Zm22.99-296.39c-8.9,9.63-12.98,17.56-13.83,27.87-.87,10.55-4.98,19.65-12.07,27.26-14.37,15.42-27.19,31.94-37.06,50.63-4.58,8.68-11.5,14.92-19.89,19.8-3.72,2.16-7.33,4.62-10.66,7.35-5.82,4.78-6.87,11.67-8.3,20.08,12.94-11.23,27.2-16.49,41.79-21.11,1.6-.51,3.24-1.85,4.18-3.26,7.66-11.38,18.49-13.31,30.81-10.34,2.92.71,4.94.41,7.24-1.42,18.73-14.93,34.41-32.8,49.48-51.24.99-1.21,1.01-4.13.28-5.68-3.21-6.76-7.27-13.12-10.28-19.96-6.13-13.91-19.42-23.81-21.69-39.97Zm78.66-29.49c16.69,7,58.49,14.29,74.62,15.29,16.59,1.03,26.74-6.51,33.77-20.3.15-.3.32-.59.49-.87,8.8-14.88,17.59-29.76,26.41-44.63,1.03-1.73,2.25-3.34,4.1-6.06-2.22.41-3.28.29-3.67.74-2.67,3.13-6.83,4.33-8.45,9.2-1.66,4.97-7.18,8.61-9.06,13.57-3.53,9.29-10.22,15.59-16.81,21.75-1-2.09-1.95-5.9-2.98-5.92-2.73-.05-6.42.75-8.04,2.64-2.47,2.89-4.19,6.85-4.98,10.62-.67,3.18-.35,7.12,1.03,10,.99,2.07,4.47,2.94,6.59,4.2-5.14,3.03-11.42-.06-11.58-6.94-.11-5.04.6-10.33,2.18-15.1,1.72-5.16,6.28-8.09,11.93-9.75-3.17-1.79-6.29-3.12-9.54-3.93-7.02-1.76-14.1-3.31-21.18-4.84-2.09-.45-4.29-.87-6.4-.72-10.18.74-20.34,1.68-30.58,2.55-.11-3.97-1.11-5.04-3.59-2.74-2.2,2.04-4.31,4.16-6.45,6.26-6.61,6.47-10.17,13.76-6.83,23.48-1.02-1.72-2.04-3.44-3.31-5.6-.68,2.11-1.17,3.66-1.67,5.21-.27-.39-.55-.78-.82-1.17-1.43.85-2.86,1.69-5.18,3.07Zm-71.52-97.29c-3.69-2.81-6.16-4.7-8.62-6.58,2.6-3.25-.91-4-2.57-4.8-7.17-3.46-14.75-2.8-22.48-2.24-19.42,1.42-22.4,23.68-13.41,34.46,11.55,13.85,25.12,25.54,39.91,36.83,8.09-13.05,16.92-25.08,34.09-28.71-9.75-8.61-20.06-11.95-30.99-14.28h10.06c-1.94-7.16-5.44-12.68-12.09-15.91,1.53.31,3.06.62,6.08,1.23Zm159.33,121.04c.38.45.76.9,1.13,1.35,8.71-1.69,13.57.75,17.94,8.63,5.3,9.57,4.51,19.17.48,28.85-2.37,5.69-4.93,11.3-7.04,17.07-.59,1.62-.59,4.17.31,5.51,5.53,8.2,11.39,16.18,17.26,24.4,2.61-2.97,5.76-6.82,9.22-10.38,2.14-2.2,2.44-4.09,1.31-7.03-4.31-11.15-6.48-22.8-5.54-34.74.48-6.15-.08-11.76-2.54-17.43-3.2-7.38-3.84-15.08-1.55-22.95,2.93-10.06,5.63-20.2,8.59-30.25,1.24-4.22,2.92-8.32,4.6-13.04-2.72,26.51.49,50.65,16.77,72.48,1.42-1.89,2.2-3.41,3.42-4.41,1.27-1.05,2.96-1.59,4.3-2.27-15.93-20.7-18.87-42.99-18.27-65.99.15-5.8-.78-9.12-7.19-10.01-7.31,12.84-14.42,26.02-22.27,38.73-2.96,4.8-7.57,8.61-11.59,12.71-2.98,3.05-6.22,5.85-9.34,8.77Zm156.11,12.31c.24.33.48.67.72,1-11.2,7.36-22.4,14.73-33.61,22.09,16.08-4.71,30.53-12.84,44.82-21.32-17.75,13.88-37.32,24.1-60.41,29.31,3.71,2.31,3.39,7.15,8.52,6.44,17.46-2.42,34.24-6.8,49.73-15.53,3.29-1.85,5.28-4.08,6.06-7.85,1.01-4.88,2.09-9.85,4.03-14.4,6.06-14.22,12.7-28.19,18.81-42.38,3.98-9.24,7.45-18.69,11.15-28.05-1.24-.03-1.69.25-1.93.66-14.72,24.17-34.92,43.09-57.37,59.86-11.47,8.57-23.01,17.05-34.38,25.76-3.9,2.99-7.12,6.68-7.9,12.95,19.12-7.56,35.21-18.47,51.76-28.53Zm-44.47,8.38c-3.7-3.83-9.78-5.15-15.06-2.34-13.05,6.96-23.11,16.24-17.15,33.67-3.6-6.64-4.64-13.19-2.96-20.1,1.68-6.93,4.54-13.07,11.43-16.8-12.33-3.32-22.55,1.76-24.32,13.53-1.59,10.56-1.57,21.56-.69,32.23.76,9.17,8.22,14.43,16.55,13.61-7.24-8.87-10.94-19.04-12.61-30.02,1.8,2.64,2.87,5.6,4.42,8.29,3.63,6.31,7.49,12.5,11.25,18.74.34.57.62,1.18.89,1.78,1.65,3.73,4.48,5.07,6.79,4.64,2.81-5.96,5.4-10.77,7.33-15.83,1.01-2.64,1.99-6.24.97-8.49-1.89-4.16-1.71-7.94.22-11.46,3.86-7.04,8.26-13.78,12.94-21.46Zm22.92,75.29c12.69-19.01,25.71-36.29,33.52-58.14-16.77,9.83-33.87,14.34-52.92,17.32,6.57,13.82,12.78,26.9,19.4,40.83Zm-93.49-130.42c-2.27,8.84-5.68,18.98-7.37,29.4-2.92,17.98,6.5,31.6,17.73,44.19,1.66,1.86,3.84,3.27,6.44,5.43.27-4.69.6-8.31.6-11.92,0-.92-.87-2.07-1.66-2.72-12.2-10-16.43-23.54-17.26-38.63,2.34,14.46,7.2,27.58,19.47,36.9.2-2.14-.24-4.01-1.04-5.7-3.87-8.23-9.04-16.09-11.45-24.72-3.05-10.89-3.88-22.41-5.45-32.23Zm-11.83-118.03c-1.22-4.08-1.79-6.7-2.79-9.14-.77-1.87-2.07-3.51-3.14-5.26-1.62,1.08-3.24,2.16-3.82,2.55-8.82-2.96-17.03-5.72-26.37-8.85,1.4,9.59,2.65,18.16,3.93,26.93,11.23-2.17,21.4-4.14,32.19-6.23Zm80.55-3.99c-.03-.42-.06-.84-.08-1.27-3.67.19-7.34.38-11.01.56-.64.03-1.32.17-1.91,0-12.13-3.52-24.33-6.82-36.34-10.72-7.66-2.49-13.73,2.76-21.02,3.02,1.56,2.12,3.15,3.78,5.09,4.73,6.82,3.35,13.92,5.24,21.65,6.15,9.28,1.08,18.27,3.24,27.24-.98.44-.21,1.18-.53,1.4-.34,5.53,4.73,10.04-.42,14.99-1.15Zm-238.81,115.16c-.61.02-1.23.04-1.84.06-.45-1.6-.9-3.21-1.5-5.37-1.35,2.21-2.42,3.95-3.68,6.02,2.2,1.25,3.98,2.47,5.93,3.3,1.02.43,2.34.17,3.52.22.02-1.29.1-2.59.05-3.88-.09-2.28-.26-4.56-.39-6.84.38,0,.76,0,1.14,0,.53,1.98,1.07,3.96,1.8,6.71,8.07-9.82,15.61-19,23.44-28.52-4.94-2.26-8.82-2.81-12.81.92-2.76,2.58-6.13,4.56-9.38,6.56-6.32,3.88-7.68,6.97-6.35,14.23.39,2.13.06,4.39.06,6.59Zm357.77-233.73c6.36,7.94,15.04,10.91,24,13.37-.1.42-.21.85-.31,1.27-5.62-.99-11.23-1.98-16.85-2.97-.16.46-.31.91-.47,1.37,4.58,2.31,9.16,4.61,13.73,6.92-.08.39-.16.78-.25,1.16-5.47-1.09-10.95-2.17-17.68-3.51,2.52,2.29,4.15,3.77,5.77,5.25-.25.37-.5.75-.75,1.12-6.09-3.81-12.18-7.62-18.28-11.43-.3.4-.61.81-.91,1.21,5.43,4.55,10.85,9.1,14.71,12.33,7.11-1.24,12.56-2.18,18.01-3.16,1.06-.19,2.75-.23,3.05-.85,1.94-4.1,3.57-8.34,5-11.8-5.63-2.56-9.86-4.83-14.32-6.41-4.48-1.59-9.21-2.51-14.46-3.88Zm-198.61-102.38c-8.2,3.1-15.75,2.81-23-.24-7.69-3.22-11.86-9.43-12.92-18.58-4.38,9.63-1.52,17.64,7.49,23.43,9.13,5.86,20.42,4.27,28.42-4.61Zm34.77,598.81c8.37-11.34,16.52-22.33,24.59-33.38.5-.68.9-1.95.6-2.61-1.43-3.18-3.12-6.24-5.37-10.59-6.97,16.37-13.37,31.41-19.83,46.58Zm9.92-117.36c4.15-4.35,7.93-8.31,11.72-12.28-1.79,3.7-4.56,6.51-6.89,9.64-2.19,2.94-7.03,5.08-3.86,10.56,3.57-3.78,6.49-7.78,10.27-10.65,6.42-4.87,6.1-11.5,6.35-18.25-6.36-.19-19.05,14.74-17.58,20.98Zm148.4-458.68c14.81,2.65,21.94,12.37,24.95,26.06.53,2.43,1.13,4.89,2.06,7.18,2.32,5.67,5.12,11.03,11.45,13.54-7.53-7.13-9.37-16.27-10.69-26.03-1.94-14.29-13.24-22.39-27.77-20.75ZM208.64,436.38c-2.5,9.85-4.89,19.24-7.27,28.64.22.05.45.11.67.16,6.18-7.97,12.35-15.94,18.74-24.18-4.07-1.55-7.86-2.99-12.14-4.62Zm34.51,38.45c7.03-6.61,15.91-14.95,25.17-23.65-2.83-.42-5.27-1.11-7.69-1.04-1.62.04-4,.69-4.69,1.86-4.94,8.37-9.53,16.94-12.79,22.83Zm-71.45-109.99c6.27,7.53,11.39,7.75,16.92,1.22,2.79-3.3.9-5.82-.97-8.38-1.92-2.62-4.04-1.45-6.03-.04-3.23,2.29-6.42,4.65-9.92,7.2ZM517.92,85.63c6.05-2.07,6.31-7.2,6.35-12.05.09-10.69-3.1-20.01-11.35-26.24,1.49,6.32,4.29,12.93,4.25,19.53-.04,6.69-2.88,13.37-4.27,19.1,6.82-5.86,5.95-15.53,7.79-24.35,1.95,8.34,1.59,16.31-2.77,24Zm-226-5.96c3.52,9,13.19,14.47,24.01,13.58,8.72-.72,18.29-8.43,19.84-15.99-18.22,17.72-32.42,13.86-43.85,2.41Zm60.07,422.81c-10.12,10.88-11.3,12.75-10.28,16.98,1.01-1.44,1.82-2.6,2.62-3.76.03,3.35-4.41,5.84-.46,9.71,3.71-4.76,7.4-9.22,10.79-13.91,3.07-4.24,2.41-6.22-2.68-9.02Zm-94.03-182.36c-.01.48-.02.97-.03,1.45,12.6,6.53,37.51,2.24,39.24-7.98-3.3,1.48-6,2.67-8.68,3.9-4.17,1.9-7.95,6.62-13.05,1.66-.4-.39-2.02-.31-2.31.1-2.27,3.2-5.09.51-7.59.8-2.49.3-5.05.06-7.58.06Zm105.25,305.7c-.55-.21-1.1-.41-1.64-.62-1.44,3.08-4.64,6.6-4.01,9.18,2.19,8.9,5.71,17.46,8.72,26.16.78-11.67-2.13-23.11-3.07-34.71ZM512.34,55.56c-1.02,5.91-1.17,13.21-3.69,19.57-2.57,6.49-7.47,12.06-10.97,17.45,14.38-4.72,22.26-25.21,14.66-37.03ZM192.91,380.75c5.83,1.68,12.17,3.36,17.76-4.22-4.28-2.27-8.39-4.45-12.66-6.71-2.11,4.52-3.66,7.85-5.1,10.93ZM325.3,94.14c-16.88,4.26-23.52,2.01-37.16-12.29.76,3.52,1.5,7.32,3.67,9.96,6.87,8.33,23.47,7.59,33.49,2.33Zm82.46-28.86c-.44-7.52-4.89-12.79-8.97-18.69-4.08-5.88-9.21-5.26-14.71-5.87,11.11,5.15,18.25,13.93,23.68,24.55Zm-38.07,578.29c4.01-7.48,12.83-11.23,10.25-20.86-3.67,6.41-13.78,9.5-10.25,20.86Zm175.63-474.86c-.36.43-.73.86-1.09,1.28,3.68,2.29,7.21,6.11,11.07,6.47,4.28.4,7.88-3.3,8.67-7.75h-18.65Zm-5.61,9.25c-.22.53-.44,1.05-.66,1.58,5.43,3.15,10.86,6.31,14.97,8.7,3.67-4.52,6.4-7.87,9.13-11.22-7.62,6.72-15.53,3.83-23.44.95Zm-161.72,424.49c-8.18,8.15-11.92,15.57-10.46,20.32,11.3-10.79,11.84-11.81,10.46-20.32Zm-9.44,29.68c3-6.28,12.99-8.72,9.77-18.43-3.26,6.14-12.52,8.98-9.77,18.43Zm2.64-572.27c3.54,5.27,6.76,10.8,10.7,15.75,5.38,6.76,11.17,10.11,13.85,10.08-4.69-5.29-10.95-10.93-15.3-17.78-2.5-3.94-5.77-5.85-9.26-8.05Zm-18.25,321.07c-2.78,3.73-5,6.72-7.87,10.57,3.88,1.74,7.21,3.22,10.53,4.71.33-.4.65-.81.98-1.21-1.14-4.42-2.29-8.84-3.64-14.07Zm35.72,175.39c-12.24,10.67-14.98,14.63-13.08,19.28,4.33-6.37,12.65-9.55,13.08-19.28Zm-59.89-502.3c5.81-7.91,13.08-13.61,23.29-15.77-8.22-4.23-21.04,4.66-23.29,15.77Zm52.77,482.83c-3.25,5.25-9.93,7.81-9.11,16.24,4.7-4.92,8.72-9.12,12.95-13.54-1.17-.82-2.2-1.55-3.84-2.7Zm29.95-209.52l-.36-1.55c-3.23,1.27-6.39-.85-10.23,2.94-4.64,4.58-5.89,3.31-6.8,7.52,6.19-3.17,11.79-6.05,17.38-8.92Zm-251.79,90.99c2.3,5.55,4.22,10.19,6.33,15.27,1.18-3.23,2.28-6.24,3.35-9.14-3.22-2.04-6-3.8-9.68-6.12ZM347.96,34.71c-2.58-1.11-4.63-2.85-6.05-2.44-5.46,1.6-9.25,5.39-12.44,11.45,3.55-2.42,5.84-4.38,8.46-5.65,2.76-1.33,5.84-2,10.02-3.37Zm-24.2,72.49c-11.79,3.56-18.22,9.24-18.87,14.54,5.9-4.55,12.38-9.54,18.87-14.54Zm-23.16,13.64c4.27-4.68,9.14-10.01,13.79-15.11-6.86.6-13.93,8.76-13.79,15.11Zm84.66,447.54c-8.57,6.87-10.33,9.44-9.18,13.54,3.28-4.28,9.02-6.49,9.18-13.54Zm-1.51,10.41c-.45-.25-.91-.51-1.36-.76-3.28,3.43-8.13,5.97-5.37,12.81,2.24-4.02,4.49-8.03,6.73-12.05Zm-33.89-77.17c-.06-.46-.12-.93-.17-1.39-1.08.2-2.49.04-3.2.67-5.05,4.44-7.08,8.86-5.65,11.72,3.01-3.67,6.01-7.33,9.02-11Zm93.76-424.52c6.68-6.15,10.2-13.82,10.82-23.21-3.72,7.99-7.29,15.64-10.82,23.21Zm-99.65,157.86c-6.26,4.99-7.48,12.6-3.49,15.96,1.08-4.96,2.23-10.18,3.49-15.96Zm-29.87-134.5c-6.11-.79-13.29-1.73-19.49-2.53,4.14,5.16,13.42,6.38,19.49,2.53Zm66.78,490.26c-.87-.3-1.74-.59-2.61-.89-1.76,4.42-3.51,8.84-5.27,13.26l2.23.93c1.88-4.43,3.77-8.86,5.65-13.3Zm-84.1-472.58c2.63-4.06,5.08-7.86,7.51-11.61-4.62-1.46-8.09,3.79-7.51,11.61Zm19.95,5.33c-5.41,4.61-11.28,9.09-11.63,16.42,3.73-5.27,7.68-10.84,11.63-16.42Zm57.15,289.1c.49.61.98,1.22,1.47,1.84,3.76-2.99,7.51-5.98,11.27-8.96l-1.22-1.6c-3.84,2.91-7.68,5.82-11.53,8.73Zm-16.76-3.99c-4.05.6-5.21,5.97-2.67,12.4.94-4.36,1.79-8.33,2.67-12.4Zm6.48-122.42c-.74-3.65-1.29-6.31-1.9-9.32-1.62,2.53-3,4.69-4.69,7.35,2.21.66,3.95,1.18,6.59,1.97Zm202.4-146.8c-.49.09-.97.18-1.46.26.17,3.25.35,6.49.52,9.74,4.91-3.65,2.19-6.78.94-10Zm-226.98,367.71c3.09-3.59,5.43-6.32,8.4-9.77-1.64-.22-3.1-.76-3.39-.39-2.12,2.7-5.66,4.71-5.02,10.16Zm33.08,37c2.94-2.87,5.4-5.26,8.13-7.92-6.29-1.12-7.23,2.77-8.13,7.92Zm146.71-325.07c-2.21-2.02-4.21-3.85-6.21-5.67-.33.2-.66.4-.99.59,1.41,2.99,2.81,5.98,4.57,9.71,1.1-1.95,1.74-3.06,2.63-4.63Zm-189.96-151.98c-5.72.41-11.45.82-17.57,1.26,6.28,2.49,12.02,2,17.57-1.26Zm21.5-50.43c-1.68,4.06.65,8.9,5.65,11.04-1.8-3.51-3.9-7.62-5.65-11.04Z"/>
  <path class="cls-2" d="m595.71,522.83c-9.43,34.13-10.48,68.34-1.26,102.84,1.14-54.62,23.05-101.01,55.5-143.57-9.18,16.18-18.97,31.81-27.18,48.23-17.31,34.64-26.71,71.35-25.35,110.36.25,7.12,1.62,14.21,2.5,21.31.59,4.79,1.18,9.58,1.81,14.37,1.26,9.55,2.57,19.1,3.8,28.65.28,2.17.3,4.38.45,6.56-.61.2-1.22.4-1.83.6-.96-2.03-2.5-3.98-2.78-6.1-1.46-11.2-3.01-22.42-3.69-33.69-.38-6.26-2.36-11.55-5.41-16.81-10.57-18.22-19.29-37.24-24.34-57.8-.31-1.26-.5-2.55-.4-3.93,8.58,19,17.16,38.01,25.74,57.01.75-.27,1.5-.55,2.24-.82-2.23-9.08-4.57-18.14-6.67-27.25-7.4-32.06-5.84-63.82,3.49-95.28.51-1.7,1.27-3.33,1.92-4.99.49.09.99.19,1.48.28Z"/>
  <path class="cls-2" d="m383.11,753.82c37.27-9.8,75.58-19.88,113.89-29.95-37.4,13.62-75.33,25.19-113.89,29.95Z"/>
  <path class="cls-2" d="m560.16,713.28c-1.24,1.36-2.48,2.71-3.73,4.07-.21-.13-.42-.26-.63-.39.17-.49.34-.98.96-2.79-11.13,4.33-21.42,8.38-31.75,12.32-10.57,4.03-21.11,8.14-31.79,11.86-10.63,3.7-21.42,6.96-32.32,9.79,32.81-12.09,65.63-24.17,98.44-36.26.27.46.54.92.81,1.39Z"/>
  <path class="cls-1" d="m603.49,632.77c9.05-33.98,28.23-62.12,50.92-88.24-20.71,27.26-40.12,55.26-50.92,88.24Z"/>
  <path class="cls-2" d="m673.07,455.3c-6.56-6.09-13.7-10.82-21.98-14.84-20.75-10.08-40.75-21.75-60.72-33.34-5.03-2.92-8.83-7.94-12.89-12.59,1.65,1.1,3.65,1.89,4.91,3.33,8.88,10.23,21.05,15.51,32.5,21.87,11.33,6.29,22.67,12.58,34.09,18.71,3.04,1.63,6.88,2.04,9.54,4.07,5.11,3.91,9.63,8.58,14.4,12.93l.16-.13Z"/>
  <path class="cls-1" d="m248.53,741.23c-10.95-27.25-17.35-55.65-20.87-84.75,3.04,14.23,5.73,28.54,9.2,42.66,3.48,14.13,7.75,28.07,11.67,42.09Z"/>
  <path class="cls-1" d="m249.45,661.72c9.07,24.17,20.25,47.21,35.99,67.8-17.4-19.71-28.6-42.74-35.99-67.8Z"/>
  <path class="cls-1" d="m481.88,657.79c21.02-18.72,41.9-37.56,58.71-60.37-15.58,23.99-36.6,42.7-58.71,60.37Z"/>
  <path class="cls-2" d="m672.91,455.43c1.78-.45,3.68-.64,5.33-1.39,4.96-2.23,9.7-5.03,14.79-6.87,2.46-.89,5.51-.15,8.34.67-12.58-.66-21.06,7.41-30.01,13.97-5.56,4.07-10.35,9.2-15.48,13.85-.31-.28-.61-.57-.92-.85,5.14-5.13,10.31-10.21,15.37-15.41,1.13-1.16,1.84-2.72,2.73-4.1,0,0-.16.13-.16.13Z"/>
  <path class="cls-2" d="m367.11,697.86c-.07-5.77,3.27-10.48,7.6-10.7,3.96-.2,7.27,3.62,7.31,8.43.05,5.23-3.54,9.85-7.78,10.04-4.26.19-7.07-2.87-7.13-7.77Zm2.75,1.05c.75.75,2.46,3.84,4.07,3.79,4.04-.11,5.35-3.93,5-7.28-.23-2.17-1.96-4.98-3.83-5.95-2.22-1.16-5.24,3.44-5.25,9.44Z"/>
  <path class="cls-2" d="m521.68,737.7c10.61-6.29,21.22-12.59,31.83-18.88-9.01,8.98-19.68,15.2-31.83,18.88Z"/>
  <path class="cls-2" d="m362.86,531.32c-1.93,7.33-3.27,14.89-5.92,21.95-4.38,11.64-9.57,22.97-14.52,34.4-.61,1.41-1.79,2.58-2.98,3.45,7.13-19.34,14.26-38.68,21.4-58.01.67-.6,1.35-1.19,2.02-1.79Z"/>
  <path class="cls-2" d="m385.09,424.44c8.5-6.83,17.12-13.5,25.45-20.53,8.21-6.93,16.12-14.22,24.16-21.36,0,0,.1-.11.1-.11-.19,1.1.03,2.7-.62,3.21-16.31,13-32.71,25.88-49.09,38.79Z"/>
  <path class="cls-2" d="m316.26,258.91c.34.24.69.48,1.03.72-6.31,8.55-26.53,10.69-34.58,3.65-.07-.06-.04-.25-.15-1.23,10.76,7.13,20.71,3.97,30.51-1.47,1.08-.58,2.13-1.12,3.18-1.67Z"/>
  <path class="cls-1" d="m382.09,278.7c-1.47-3.84-2.95-7.69-4.42-11.53.42-.15.84-.3,1.26-.46,1.56,4.2,3.11,8.4,5.09,13.74-1.28-1.2-1.69-1.57-2.09-1.95,0,0,.15.19.15.19Z"/>
  <path class="cls-2" d="m480.99,183.95c-2.91-1.94-7.02-1.63-8.57-6.29-.5-1.49-3.3-2.08-4.77-3.39-9.62-8.55-20.52-13.33-33.61-14.44-7.06-.6-13.48.65-20.18,1.64-1.7.25-3.56-.55-5.31-.85-.77-8.4,4.35-15.53,14.13-19.26-.41,1.07-.7,1.82-1.02,2.68,4.31-1.25,8.57-2.48,12.84-3.72.17.43.34.85.52,1.28-1.01.74-2.02,1.48-3.36,2.46,20.21,1.33,37.68,5.29,48.51,34.59h-3.97c2.05,1.46,3.86,2.75,5.67,4.04-.29.42-.57.84-.86,1.26Z"/>
  <path class="cls-2" d="m475.43,291.49c-.6-.78-1.21-1.56-1.82-2.34,2.65-2.44,5.3-4.87,7.95-7.3-.3-.33-.6-.66-.91-1-1,.92-2,1.84-3.12,2.88-.38-.73-.69-1.35-.87-1.7-16.8,7.09-32.05,4.21-46.09-7.6l-.69,1.55c1.64,2.1,3.28,4.21,4.93,6.31-10.31-6.93-17.23-19.08-31.18-19.66,4.27,4.61,8.68,9.37,13.1,14.14l-.97,1.02c-6.62-6.13-11.41-14.97-21.32-16.26-.27.38-.54.75-.82,1.13,2.37,1.86,4.75,3.72,7.12,5.58-.29.41-.57.82-.86,1.23-1.77-1.17-3.57-2.31-5.3-3.53-1.9-1.33-3.74-2.74-5.61-4.12,13.29-9.52,13.89-11.68,7-25.01,8.09,4.68,9.31,12.32,4.01,22.33,6.51,1.63,13.19,3.3,18.52,4.64-3.56-4.77-8.05-10.78-12.54-16.8.41-.35.82-.69,1.23-1.04,1.59,1.72,3.34,3.31,4.73,5.18,9.76,13.05,23.2,21.52,37.35,28.61,5.14,2.58,11.89,2.17,17.95,2.59,1.92.13,4.23-1.09,5.89-2.33,3.36-2.5,6.07-6.18,4.29-10.23-.97-2.21-4.75-3.19-7.28-4.73,1.44-2.22,5.39-2.79,8.82-.31,6.96,5.02,5.5,22.87-2.22,26.83-.35.18-.96-.15-1.44-.23,0,0,.18.16.18.16Z"/>
  <path class="cls-2" d="m500.1,110.56c8.84-3.06,16.95-.84,24.65,3.47,7.86,4.4,12.74,11.48,16.71,19.32,2.7,5.32,5.55,10.56,7.59,16.7-2.14-2.35-4.62-4.48-6.35-7.1-4.2-6.35-7.61-13.27-12.16-19.34-4.68-6.24-11.39-9.9-19.3-11.58.05.7-.02,1.15.1,1.2,11.03,5.32,18.19,14.12,23.23,25.08,4.78,10.38,12.19,17.75,25.53,18.65-7.13,2.1-16.3-1.28-21.66-7.25-1.66-1.85-3.49-3.73-4.51-5.94-5.24-11.36-14.21-18.88-24.82-24.81-1.11-.62-2.14-1.41-3.2-2.12.22-.39.43-.79.65-1.18,4.06,2.19,8.12,4.39,12.18,6.58-4.61-6.38-11.71-8.69-18.64-11.69Z"/>
  <path class="cls-2" d="m407.53,203.73c4.19-4.35,9.55-4.83,14.74-4.79,10.4.07,19.96,2.89,28.11,9.79,1.3,1.1,3.48,1.43,5.29,1.56,1.82.13,3.7-.43,6.32-.79-5.55,5.15-9.07,6.12-13.81,3.36-11.59-6.76-24-9.43-37.3-8.24-.8.07-1.61.03-2.41,0-.12,0-.24-.21-.94-.88Z"/>
  <path class="cls-2" d="m526.99,237.43c-3.51,4.01-5.41,7.93-1.46,13.08,3.03,3.96,1.69,8.32-1.22,11.98-2.05,2.58-4.45,4.89-6.8,7.2-.46.45-1.86.72-2.12.43-.55-.6-1.12-1.95-.81-2.42,1.25-1.9,2.65-3.79,4.33-5.31,5.28-4.76,5.97-7.02,2.79-13.43-1.73-3.5-2.05-6.72.45-9.76,5.13-6.26,10.05-12.74,15.74-18.46,3.6-3.63,8.6-4.77,14.03-1.76-12.06,1.43-19.5,8.78-25.07,18.58l.14-.12Z"/>
  <path class="cls-2" d="m309.38,188.87c5.94,4.71,11.05.83,16.58-.74,9.29-2.63,18.11-1.06,25.83,5.11.9.72,1.67,1.62,2.41,2.5.38.46.57,1.07,1.27,2.44-4.57-1.22-8.3-2.8-12.14-3.12-6.86-.58-13.99-1.5-20.63-.24-6.44,1.22-9.82-1.38-13.32-5.96Z"/>
  <path class="cls-2" d="m478.92,89.94c5.95-5.25,11.67-8.89,13.47-16.95-6.06,6.16-9.89,13.73-19.75,14.32,16.93-12.42,25.71-19.95,19.87-38.34,10.58,10.37,2.88,36.29-13.6,40.97Z"/>
  <path class="cls-2" d="m410.51,211.05c12.41,9.69,25.9,14.23,41.57,8.93-13.88,9.57-34.31,5.28-41.57-8.93Z"/>
  <path class="cls-2" d="m461.24,135.21c-1.51-.85-3.09-1.6-4.51-2.58-11.54-7.85-24.15-8.44-37.36-5.87-7.39,1.44-14.86,2.48-22.39,2.98,15.79-3.19,31.52-8.89,47.84-4.2,6.01,1.73,11.46,5.4,17.17,8.19-.25.5-.5.99-.75,1.49Z"/>
  <path class="cls-2" d="m479.79,49.85c5.44,13.51-8.03,32.56-24.52,33.03,13.08-8.17,26.37-15.17,24.52-33.03Z"/>
  <path class="cls-2" d="m393.78,112.3c7.39-.58,14.79-1.16,22.18-1.73,12.46-.97,24.63-.13,36,5.71,1.18.61,2.36,1.23,3.5,1.91.36.21.61.62.77,1.6-19.58-13.43-41.67-5.44-62.45-7.48Z"/>
  <path class="cls-2" d="m317.13,201.52c10.1,10.08,20.84,4.35,31.35,2.59-7.26,8.83-28.26,8.09-31.35-2.59Z"/>
  <path class="cls-2" d="m482.45,93.07c9.67-6.93,15.8-15.42,18.06-27.18,2.37,11.49-7.7,26.94-18.06,27.18Z"/>
  <path class="cls-2" d="m435.49,180.89c-10.8-.05-12.53,1.17-22.91,15.65.98-13.38,11.8-21.16,22.91-15.65Z"/>
  <path class="cls-2" d="m526.85,237.55c6.09-2.51,9.5-.69,10.99,5.86,1.41,6.24-.2,11.71-4.24,15.7.54-4.16,1.4-8.88,1.7-13.64.36-5.64-2.79-8.19-8.3-8.05,0,0-.15.13-.15.13Z"/>
  <path class="cls-2" d="m452.34,299.17c-6-.49-11.83-2.32-16.44-7.3,1.55.64,3.09,1.28,4.64,1.91.11-.17.22-.34.33-.5-2.82-2.34-5.63-4.67-8.45-7.01l1.48-1.64c6.08,4.79,12.17,9.59,18.44,14.53Z"/>
  <path class="cls-2" d="m467.5,293.3c-10.36,4.26-17.5-.91-24.51-4.28,7.43,1.3,15.31,2.67,24.51,4.28Z"/>
  <path class="cls-2" d="m412.99,266.37c5.48,7.13,10.96,14.27,16.44,21.4-.53.42-1.07.84-1.6,1.26-2.56-3.56-5.09-7.16-7.7-10.68-2.75-3.7-5.59-7.34-8.4-11.01.42-.32.84-.65,1.26-.97Z"/>
  <path class="cls-2" d="m462.42,215.69c7.73-.38,14.52,2.11,20.46,7.21-6.82-2.4-13.64-4.81-20.46-7.21Z"/>
  <path class="cls-2" d="m443.43,184.43c7.71,4.34,11.6,10.45,14.42,19.06-5.16-6.82-9.51-12.57-14.42-19.06Z"/>
  <path class="cls-2" d="m404.82,171.95c-6.08,7.57-11.42,14.23-16.37,20.38.55-4.61,7.8-14.18,16.37-20.38Z"/>
  <path class="cls-2" d="m523.42,274.93c2.4-9.49,11.19-11,15.53-16.98l1.04,1.1c-2.81,2.37-5.73,4.62-8.39,7.14-2.6,2.47-4.92,5.22-8.19,8.74Z"/>
  <path class="cls-2" d="m478.46,231.46c-6.33-4.39-11.73-8.14-18.25-12.67,8.37,1.82,13.36,6.28,18.25,12.67Z"/>
  <path class="cls-2" d="m505.49,243.12c-1.87-3.12-3.75-6.23-5.98-9.94,4.2,3.77,7.74,6.96,11.29,10.15-.12.33-.23.66-.35.99-1.71-.45-3.42-.9-5.13-1.34,0,0,.17.15.17.15Z"/>
  <path class="cls-2" d="m552.91,231.59c2.57,6.67-1.64,11.57-4.93,16.73,1.65-5.6,3.3-11.19,4.93-16.73Z"/>
  <path class="cls-2" d="m465.1,211.81c4.88-.63,9.77-1.25,14.65-1.88.09.7.17,1.4.26,2.09-4.92.59-9.84,1.18-14.76,1.78-.05-.66-.1-1.33-.14-1.99Z"/>
  <path class="cls-2" d="m505.49,243.12s-.17-.15-.17-.15c.89,1.16,1.78,2.33,2.67,3.49-.12.35-.23.69-.35,1.03-3.11-.78-6.22-1.55-9.34-2.33l.38-1.65c1.41.29,2.82.59,4.58.96-1.48-1.84-2.78-3.47-4.09-5.09.21-.19.41-.37.62-.56l5.69,4.29Z"/>
  <path class="cls-2" d="m318.98,181.04c.95-3.36,5.65-7.91,11.91-9.35-.51-.51-1.02-1.01-1.53-1.52-4.09,4.28-8.18,8.56-10.38,10.86Z"/>
  <path class="cls-2" d="m405.59,161.9c-1.84-6.42-.29-11.34,3.88-15.89-1.29,5.29-2.51,10.29-3.88,15.89Z"/>
  <path class="cls-1" d="m384.51,265.73c3.1,5.2,6.2,10.41,9.3,15.61-.38.22-.76.45-1.15.67-3.1-5.28-6.2-10.56-9.3-15.84l1.15-.44Z"/>
  <path class="cls-2" d="m335.51,257.14l-15.56,7.8c-.18-.36-.35-.72-.53-1.08,5.21-2.67,10.42-5.33,15.63-8,.15.43.31.85.46,1.28Z"/>
  <path class="cls-2" d="m362.09,260.66c4.19-1.97,8.38-3.94,12.57-5.91.21.46.43.91.64,1.37-4.2,1.93-8.41,3.87-12.61,5.8-.2-.42-.4-.84-.6-1.26Z"/>
  <path class="cls-2" d="m171.37,539.79c7.77,11.71,16.95,20.31,29.2,26.46-11.69-1.25-26.82-14.75-29.2-26.46Z"/>
  <path class="cls-1" d="m261.08,532.19c1.1,13.13-6.67,24.79-19.76,29.75,10.8-7.11,18.6-16.18,19.76-29.75Z"/>
  <path class="cls-2" d="m203.4,514.88c-4.18,1.32-8.25,1.99-11.54-1.3-2.44-2.44-3.59-5.42-.69-10.6-.05,9.76,5.74,11.09,12.23,11.9Z"/>
  <path class="cls-2" d="m151.45,709.92c4.28-6.41,8.55-12.82,12.83-19.23.33.22.66.44.99.66-4.25,6.48-8.49,12.96-12.74,19.44-.36-.29-.72-.58-1.08-.87Z"/>
  <path class="cls-2" d="m225.08,517.9c2.66,1.55,5.33,3.11,9.54,5.56-2.82,0-5.03.66-6.26-.15-1.84-1.23-3-3.5-4.44-5.32.39-.03.77-.06,1.16-.09Z"/>
  <path class="cls-2" d="m189.3,434.13c-4-1.85-8.01-3.71-12.01-5.56.22-.49.44-.97.67-1.46,3.95,1.78,7.89,3.56,11.84,5.34-.17.56-.33,1.12-.5,1.67Z"/>
  <path class="cls-1" d="m238.15,454.05c-3.7-2.43-7.4-4.86-11.1-7.28.27-.42.55-.85.82-1.27l11.25,7.06c-.32.5-.64,1-.97,1.5Z"/>
  <path class="cls-1" d="m159.28,451.5c-.46-5.92-.93-11.84-1.39-17.75.39-.04.78-.09,1.17-.13.6,5.98,1.19,11.96,1.79,17.95-.52-.02-1.05-.04-1.57-.06Z"/>
  <path class="cls-2" d="m301.96,345.42c6.3,1.31,11.09,1.95,15.65,3.35,4.77,1.47,7.89,4.96,8.55,10.08.68,5.34-.64,10.57-5.5,12.98-5.99,2.97-12.55,5.95-19.06,6.45-7.91.61-16.18-.69-24.01-2.45-6.36-1.42-8.91-6.79-8.93-13.4-.02-6.06,3.98-8.74,8.64-10.24,8.48-2.72,17.18-4.77,24.65-6.78Zm.25,2.73c-8.15,2.13-17,4.15-25.61,6.92-2.21.71-4.99,3.78-5.05,5.85-.07,2.08,2.5,4.94,4.65,6.26,7.23,4.47,15.39,5.01,23.61,3.9,7.83-1.06,15.46-2.9,20.54-9.77,3.05-4.13,2.53-7.23-2.21-9.1-4.7-1.85-9.83-2.56-15.92-4.06Zm-29.77,19.22c1.18,4,4.75,6.26,10.44,5.9-3.76-2.12-7.27-4.11-10.44-5.9Z"/>
  <path class="cls-2" d="m208.12,352.03c-6.07-.89-12.3-1.22-18.14-2.91-3.14-.91-6.39-3.68-8.19-6.5-3.11-4.87-1.73-9.53,3.39-12.26,4.49-2.4,9.4-5.04,14.3-5.42,8.86-.7,17.87-.08,26.78.59,2.75.21,5.71,1.94,7.96,3.74,5.8,4.63,5.33,12.23-.74,16.49-7.63,5.34-16.32,6.22-25.36,6.28Zm2.24-7.06c5.14-1.38,12.09-2.83,18.7-5.22,2.43-.88,4.05-3.99,6.04-6.09-2.4-1.89-4.52-4.76-7.23-5.5-13.33-3.64-26.67-4.21-39.21,2.92-2.22,1.26-3.68,3.86-5.49,5.84,2.13,1.7,4.04,4.34,6.43,4.91,6.11,1.44,12.44,1.96,20.76,3.14Zm-5.64,1.97c11.33,4,28.36-1.04,29.54-9.61-7.89,10.45-19,9.02-29.54,9.61Z"/>
  <path class="cls-2" d="m367.84,318.32c-2.19-2.37-3.66-3.96-5.13-5.55.74-.6,1.72-1.87,2.17-1.7,2.51.94,5.69,1.6,7.17,3.51,3.28,4.23.47,11.32-5.75,12.93-7.44,1.93-15.26,2.53-22.96,3.25-2.53.24-5.24-.77-7.78-1.51-3.71-1.08-7.5-2.37-8.3-6.89-.84-4.73,1.27-8.53,4.7-11.45,4.06-3.45,8.97-4.71,13.53-4.53-3.86,1.83-8.63,3.35-12.4,6.18-2.08,1.56-3.21,5.27-3.45,8.12-.19,2.24,1.49,4.63,4.8,2.32.78-.55,3.34-.19,3.59.38,2.33,5.54,7.53,3.66,11.35,4.07,6.34.68,12.43-1.26,18.7-5.49-5.26,1.39-9.46,2.97-13.8,3.53-4.33.57-8.8.12-14.16.12,1.3-1.56,1.87-2.24,1.79-2.15-1.02-2.03-1.83-3.67-3.05-6.1,3.45.53,5.25.8,7.32,1.12-.59,1.14-1.22,2.37-2.19,4.26,8.59.92,16.29-.08,23.86-4.45Z"/>
  <path class="cls-2" d="m247.76,386.35c1.61.24,3.23.68,4.84.67,4.56-.03,9.13-.41,13.69-.33,6.45.11,12.98.04,19.32,1.02,2.53.39,5.13,3.01,6.84,5.27,2.46,3.24,5.12,4.57,9.22,4.57,2.94,0,5.87,1.6,8.38,3.11-3.25-.24-6.51-.37-9.74-.76-3.81-.46-7.41-1.19-9.32-5.37-1.85-4.06-5.39-5.29-9.84-5.38-7.04-.15-13.79-1.29-20.92,1.68-3.19,1.33-8.36-2.07-12.63-3.32.05-.38.1-.76.15-1.15Z"/>
  <path class="cls-2" d="m250.65,372.35c-3.54-3.36-7.53-5.38-8.04-8.06-.78-4.12,3.73-4.29,6.83-4.33,3.6-.04,7.13,1.25,6.67,5.5-.22,2.03-2.89,3.79-5.46,6.89Zm-6.9-8.08c3.64,3.87,7.66,5.06,9.49,2.67.72-.94.75-3.28.07-4.26-1.77-2.55-6.34-1.73-9.55,1.59Z"/>
  <path class="cls-2" d="m351.74,342.29c-.24,1.63-.49,3.25-.82,5.47,5.76-4,10.43-7.23,15.09-10.47-.29,1.12-.3,3.02-.91,3.24-4.42,1.57-8.36,3.44-11.01,7.74-.54.88-3.72.13-5.68.13-.22-.63-.44-1.27-.66-1.9,1.33-1.4,2.65-2.8,3.98-4.21Z"/>
  <path class="cls-2" d="m308.01,342.7c4.97-3.31,9.9-3.52,16.4-.97-6.26.37-11.16.66-16.4.97Z"/>
  <path class="cls-2" d="m285.9,333.78c-4.1-.44-8.2-.88-12.3-1.33.04-.41.08-.83.13-1.24,4.16.21,8.32.42,12.48.63-.1.65-.2,1.3-.31,1.94Z"/>
  <path class="cls-2" d="m352.46,310.23l10.24-2.06c.12.6.25,1.2.37,1.8-3.41.68-6.82,1.36-10.23,2.04-.13-.59-.26-1.18-.38-1.77Z"/>
  <path class="cls-2" d="m538.65,406.47c-.79-17.8-1.59-35.59-2.38-53.39.54-.03,1.07-.06,1.61-.09.89,17.76,1.78,35.51,2.67,53.27-.63.07-1.26.14-1.89.21Z"/>
  <path class="cls-2" d="m544.04,413.79c-.62-14-1.23-27.99-1.85-41.99l1.64-.08c.65,13.99,1.3,27.99,1.95,41.98l-1.74.09Z"/>
  <path class="cls-2" d="m470.9,547.17c-3.75,4.33-7.5,8.67-11.24,13-.4-.34-.81-.68-1.21-1.02,3.7-4.41,7.39-8.81,11.09-13.22.46.41.91.83,1.37,1.24Z"/>
  <path class="cls-2" d="m62.06,695.34c-11.67-12.08-13.46-35.17-6.64-56.23-3.69,19.42-4.03,38.43,6.64,56.23Z"/>
  <path class="cls-2" d="m88.32,734.87c-8.37-.35-28.09-14.39-34.43-23.61,10.68,7.33,22.25,15.26,34.43,23.61Z"/>
  <path class="cls-2" d="m465.6,370.9c-16.56,16.26-33.12,32.53-46.36,45.53,12.85-13.38,28.91-30.1,44.97-46.82.46.43.92.86,1.39,1.29Z"/>
  <path class="cls-2" d="m399.39,419.98c10.23-8.65,20.18-17.06,30.14-25.47-1.79,4.43-23.39,22.8-30.14,25.47Z"/>
  <path class="cls-2" d="m406.39,419.51c6.65-6.04,13.29-12.09,19.94-18.13l.78.84c-6.62,6.07-13.25,12.13-19.87,18.2-.28-.3-.56-.61-.85-.92Z"/>
  <path class="cls-2" d="m64.65,581.79c14.89-11.75,33.98-17.65,45.92-10.58-17.36-5.24-31.5,3.27-45.92,10.58Z"/>
  <path class="cls-2" d="m124.5,501.02c8.35,10.97,16.7,21.94,25.06,32.91-10.86-8.98-18.31-20.59-25.06-32.91Z"/>
  <path class="cls-2" d="m128.92,514.68c4,4.62,8,9.24,12,13.86-.39.33-.78.67-1.16,1-3.99-4.63-7.98-9.26-11.97-13.88.38-.32.76-.65,1.13-.97Z"/>
  <path class="cls-2" d="m308.82,426.67c.74,4.72-.46,7.36-3.87,8.48-1.02.34-3.02-.34-3.66-1.22-1.81-2.5-1.23-5.02,1.16-8.2v8.27c4.99.41,5.01-3.43,6.37-7.34Z"/>
  <path class="cls-2" d="m309.45,360.79c2.52-.66,4.82-1.26,6.96-1.81-.57,3.06-5.74,8.04-9.09,8.21-.72.04-1.48-.78-2.21-1.21.69-.64,1.28-1.58,2.1-1.86,1.04-.36,2.26-.2,3.4-.26-.4-1.07-.8-2.14-1.14-3.06Z"/>
  <path class="cls-2" d="m279.81,363.39c.84-1.4,1.68-2.81,3.1-5.18-2.69.85-4.27,1.35-5.85,1.85-.19-.41-.38-.82-.57-1.23,1.85-.82,3.66-1.79,5.59-2.35.48-.14,2.03,1.32,1.92,1.62-.79,2.16-1.88,4.2-2.88,6.29-.44-.33-.88-.66-1.32-1Z"/>
  <path class="cls-2" d="m191.43,337.89l5.93,1.63c-.18.34-.37.67-.55,1.01l-6.16-3.14c1.36-1.96,2.52-4.13,4.16-5.82,1.12-1.15,2.85-1.85,4.43-2.38,1.67-.55,3.48-.66,5.88-1.07-5.09,2.98-9.5,5.56-13.91,8.15.07.54.15,1.09.22,1.63Z"/>
</svg>