<svg xmlns="http://www.w3.org/2000/svg" id="Livello_1" data-name="Livello 1" viewBox="0 0 902.14 1069.56"><defs><style>.cls-1{stroke-width:0}</style></defs><path d="M626.57 806.8c-1.48-2.1-3.48-4-4.35-6.32-4.52-12.17-8.74-24.44-13.1-36.67-.38-1.06-.94-2.06-1.84-4-5.46 7.25-10.58 13.93-15.57 20.7-9.97 13.55-19.81 27.2-29.84 40.7-2.37 3.19-4.95 6.43-8.06 8.83-4.61 3.56-5.52 7.7-5.41 13.36.69 36.51 8.31 71.69 19.1 106.37 1.92 6.16 3.16 12.62 3.97 19.03 1.22 9.55-1.79 13.44-10.8 16.34-1.54.5-3.25 2.48-3.63 4.08-.65 2.68-.51 5.61-.32 8.41.68 10.09-.84 19.61-6.78 28.08-2.93 4.18-6.61 7.05-12.08 6.57-5.57-.49-9.33-4.09-10.31-8.88-1.67-8.22-3.37-16.84-2.6-25.06 1.47-15.88 4.32-31.67 7.2-47.38 4.83-26.33 3.38-52.79 2.52-79.26-.3-9.3-1.04-18.58-1.61-28.27-3.98-.02-6.96-1.58-4.91-5.64 5.52-10.96 2.79-22.27 1.57-33.35-4.4-39.97-6.63-79.92-5.08-120.21.91-23.71-1.86-47.54-2.61-71.33-.86-26.96-1.34-53.94-1.93-80.91-.37-17.16-.6-34.31-1-51.47-.06-2.79-.64-5.57-.97-8.36-8.17 1.18-8.86 1.76-8.91 9.18-.11 19.16.79 38.37-.31 57.47-1.51 26.05-.28 51.95 1.27 77.89.34 5.65 1.31 11.35.9 16.95-.44 6.02-2.26 11.94-3.31 17.93-.82 4.67-1.72 9.37-1.95 14.08-.27 5.46.69 11.01.05 16.39-.29 2.4-2.96 5.97-4.98 6.29-2 .31-5.38-2.3-6.67-4.51-3.4-5.8-3.78-12.45-2.39-18.93 6.17-28.66 7.98-57.75 8.07-86.93.05-13.78-1.92-27.55-2.37-41.34-.39-12.12-.02-24.27.18-36.4.1-6.14.56-12.27.89-18.93-6.15 1.7-11.27 3.12-14.79 8.69-8.8 13.93-18.25 27.46-27.25 41.27-.76 1.17-.52 3.35-.11 4.88 3.09 11.38 7.6 22.53 9.3 34.11 4.2 28.48-6.76 51.04-29.49 68.31-3.07 2.33-5.9 5.41-7.87 8.72-21.77 36.48-42.48 73.54-61.33 111.64-4.33 8.75-4.82 16.83-3.22 26.2 5.52 32.33 8.97 65.06 15.72 97.11 7.04 33.41 10.47 67.08 13.05 100.95.29 3.81.31 7.67.14 11.49-.08 1.75-.93 3.47-1.43 5.2-.6.04-1.21.07-1.81.11-.8-2.17-1.99-4.29-2.35-6.53-3.22-20.23-5.92-40.55-9.5-60.71-4.28-24.09-9.28-48.06-13.93-72.09-.66-3.43-1.1-6.91-1.75-10.34-.3-1.58-.44-3.85-2.93-1.63 4.03-6.4.42-12.68.36-19.62-7.97 8.15-7.85 17.58-7.25 27.09.03.43.85.81 1.31 1.22-.92 2.28-2.17 4.48-2.71 6.84-2.26 9.94-7.49 17.99-14.74 25.03-1.96 1.9-3.26 4.83-4.05 7.53-5.99 20.52-12.85 40.72-24.35 58.9-9.38 14.82-22.79 23.52-40.74 24.44-1.63.08-3.45 1.09-4.76 2.17-21.37 17.66-45.08 29.16-73.44 30.18-19.64.7-39.29 2.06-58.82 4.21-28.4 3.12-49.94-8.72-68.58-28.64-17.92-19.15-29.06-41.71-34.94-66.99-4.32-18.56-11.12-36.21-17.67-54.05-17.58-47.9-8.11-91.01 25.57-128.93 3.55-3.99 6.15-7.89 7.29-13.2 2.1-9.76 4.7-19.43 7.52-29 3.21-10.88 9.95-19.06 20.11-24.37 4.43-2.31 8.71-4.9 13.07-7.35 11.91-6.71 21.41-15.9 27.73-28.05 17.98-34.55 42.01-64.34 70.47-90.75 2.55-2.37 4.73-5.82 5.63-9.16 2.53-9.46 5.34-19.03 6.16-28.71 1.5-17.71 10.16-31.83 21.57-44.04 7.19-7.69 8.49-14.08 4.6-23.58-5.35-13.07-9.21-26.76-13.74-40.17-3.57-10.58-2.68-20.65 3.27-30.2 4.21-6.75 8.36-13.54 12.36-20.02-11.38-9.22-23.09-17.57-33.4-27.38-12.04-11.45-23.28-23.83-34.09-36.47-9.33-10.91-12.66-24.03-9.91-38.36 3.38-17.64 14.39-29.39 32.11-31.63 11.26-1.43 22.89-.69 34.3 0 7.77.47 14.73 3.82 20.2 9.86 1.13 1.25 3.42 1.69 5.25 2.01 1.59.28 3.37.09 4.96-.29 17.16-4.19 35.19-3.3 52.07-9.34 10.91-3.91 22.14-4.04 33.45-.9 12.2 3.4 24.49.66 36.77.05 9.6-.48 19.27.35 28.9.32 3.73-.01 7.45-.81 11.18-1.24 4.54-.53 9.1-.97 13.63-1.6 3-.42 6.38-.38 8.87-1.81 6.86-3.95 13.23-3.63 19.79.41 1.47.91 3.43 1.86 5.01 1.65 17.1-2.36 34.17-4.95 50.14-7.31-1.23-16.29-2.23-31.54-3.68-46.74-.19-2-2.5-3.89-4.05-5.65-3.91-4.44-8.16-8.6-11.77-13.26-1.12-1.44-.54-4.14-.88-6.25-.2-1.26-.52-2.54-1.06-3.68-1.72-3.61-3.75-7.07-5.33-10.74-3.34-7.76-3.41-15.64.51-23.17 2.69-5.17 6.47-9.34 13.38-9.23.34-3.74.52-7.38 1.02-10.98 3.29-23.65 15.11-43.89 25.72-64.64 2.02-3.95 2.54-8.68 3.75-13.04h7c-.42 12.69-7.65 22.74-12.98 33.53-2.21 4.47-4.18 9.06-6.4 13.52-9.21 18.54-12.21 38.17-10.51 58.68.69 8.32.57 8.33-6.8 10.01-.21-7.61-.44-15.2-.7-23.64-6.64 5.22-8.28 13.42-4.46 18.6 1.41 1.91 3.45 3.36 5.21 5.02 16.31 8.55 32.16 6.46 47.55-2.37 8.8-5.05 17.4-10.44 26.02-15.79 4.24-2.63 8.04-6.28 12.59-7.99 2.76-1.04 3.74-2.41 4.84-4.58 3.72-7.39 8.47-10.17 14.4-8.75 2.87-3.36 5.91-6.48 8.41-9.99 1.67-2.35 3.36-5.16 3.68-7.92 2.14-18.33 8.92-34.7 19.65-49.62 1.89-2.62 3.02-5.79 4.51-8.7h5c-2.52 5.35-4.59 10.98-7.65 16-6.19 10.18-11.97 20.59-14 32.37-1.82 10.58-5.91 19.14-13.89 26.69-10.35 9.8-11.5 22.52-5.08 35.18.44.87.7 1.84 1.06 2.75 5.38 13.65 25.11 24.57 38.36 13.1 4.82-4.17 10.78-7.44 16.75-9.74 6.59-2.53 13.8-3.45 20.41 1.97-6.47 7.65-15.97 7.05-23.74 10.33-8.06 3.4-16.35 6.24-25.13 9.55 1.68 10.43 3.38 21.4 12.19 29.53-1.39-4.36-3.7-8.38-5.06-12.7-1.35-4.28-1.73-8.86-2.54-13.31l1.12-.22c1.36 4.67 2.71 9.35 4.07 14.02.55-.1 1.1-.2 1.65-.31v-16.84c2.09 4.44 3.51 7.59 5.05 10.68 1.46 2.92 3.04 5.77 4.48 8.48-1.26-6.92-2.52-13.79-3.77-20.66.53-.1 1.06-.21 1.58-.31 1.01 3.49 2.07 6.98 3.03 10.49 2.71 9.87 6.05 19.51 13.45 26.91 2.73 2.73 6.63 4.29 9.99 6.39.29-.43.58-.86.86-1.28-8.75-9.17-17.64-18.25-20.5-31.28 1.51 2.85 3.03 5.7 5.17 9.74-1.64-8.95-3.02-16.51-4.41-24.07.51-.09 1.01-.18 1.52-.28 2.71 8.33 5 16.83 8.24 24.94 3.33 8.33 8.31 15.64 17.08 19.46-6.27-6.58-11.27-13.87-13.46-22.95 2.77 3.62 5.54 7.25 8.32 10.87.19-.16.37-.32.56-.47-.54-1.44-1.08-2.88-1.62-4.31 8.47 9.38 16.68 18.71 29.47 22.21-5.02-5.35-9.92-10.56-14.82-15.77.48-.17.95-.33 1.43-.5.22-1.27.43-2.54.69-4.09 2.45 2.65 4.89 5.29 7.32 7.93.17-.16.34-.33.5-.49-3.32-5.07-6.63-10.13-9.98-15.25 7.42 6.79 14.57 13.33 21.7 19.88-.64 1.04-1.28 2.07-2.32 3.77 5.08 3.31 10.2 6.65 15.31 9.98.28-.41.56-.83.84-1.24l-13.95-12.42c1.22-.16 2.58-.73 3.65-.4 3.06.96 6.01 2.28 9.01 3.46l.54-.96c-2.26-3.39-4.52-6.78-6.78-10.16 18.32 16.56 36.98 29.47 44.64 27.02-9.29-4.19-18.3-8.47-23.38-17.84 15.3 8.84 29.63 20.36 49.16 15.62-14.23-1.46-27.89-4.14-37.31-16.36 2.38.68 4.44 2.06 6.66 3.07 3.86 1.76 7.82 3.29 11.74 4.92l1.1-.06c6.67 2.09 13.24 4.61 20.04 6.09 3.31.72 7.04-.49 10.58-.83-.01-.42-.02-.85-.04-1.27-2.18-.4-4.37-.79-7.62-1.39 4.87-1.07 8.63-1.9 12.38-2.73-17.14 2.3-32.01-2.92-45.77-12.55 17.8 7.72 35.76 11.6 54.41 3.32-10.64 1.29-21.24 2.95-31.91-.54-10.38-3.39-18.85-9.78-27.23-16.4 5.24 2.24 10.49 4.47 15.73 6.71.19-.43.39-.87.58-1.3-9.32-4.75-18.63-9.5-27.95-14.25-.26.28-.51.56-.77.83l8.7 12.81c-4.23-2.39-7.8-5.47-11.24-8.7-5.82-5.47-11.3-11.35-17.4-16.48-6.83-5.75-19.59-9.78-25.47-8.79 14.08 9.01 21.75 22.82 28.79 37.1-1.93-1.85-3.5-3.99-4.92-6.21-7.88-12.31-16.79-23.59-29.57-31.32-3.86-2.33-7.46-2.71-12.11-.78 1.36.8 2.22 1.21 2.99 1.76 14.41 10.5 26.73 22.91 35.36 38.7-2.99-3.49-5.86-7.09-8.98-10.46-7.12-7.7-14.37-15.28-21.56-22.91-.35.33-.7.65-1.05.98 1.53 2.16 3.07 4.31 4.6 6.47-.13.05-.27.1-.4.15-6.13-5.65-12.25-11.3-18.41-16.99.41-.17 1.13-.58 1.91-.76 11.41-2.73 18.36-11.74 18.06-23.48-.31-11.89-8.59-18.17-20.06-15.23-.38.1-.85-.2-1.36-.34 3.87-4.76 9.7-5.14 15.85-.97 5.52 3.74 8.5 9.36 10.25 15.54 2.62 9.24-1.59 16.71-7.88 24.25 13.94-2.5 25.55 1.4 36.81 7.74-9.76-9.47-17.25-20.29-23.48-31.99l2.49-2.31c1.5 2.39 2.85 4.89 4.53 7.14 17.72 23.61 41.31 39.94 67.07 53.4 9.99 5.22 20.85 7.04 31.99 3.98 9.12-2.5 15.43-9.73 15.69-17.38.24-6.92-4.58-10.94-11.32-9.39-1.48.34-2.93.8-4.39 1.21-.32-.58-.63-1.16-.95-1.75 2.41-1.57 4.64-3.95 7.27-4.54 5.8-1.3 10.89.63 14.35 5.76 3.59 5.32 4.97 11.27 4.21 17.61-2.29 19.18-12.38 32.87-29.4 41.76-1.59.83-3.3 2.84-3.57 4.53-1.93 11.95-6.77 22.6-13.68 32.38-1.24 1.76-2.92 3.21-4.4 4.8 2.11-6.74 5.39-12.66 7.96-18.87 2.54-6.14 4.38-12.58 6.45-18.66-9.93 1.65-18.87 3.14-28.04 4.67-.21 1.08-.54 2.76-.84 4.31-2.09-2.24-3.69-4.67-5.93-6.13-1.84-1.2-4.54-1-6.68-1.86-3.78-1.52-5.79.05-7.59 3.25-2.53 4.49-5.12 9.01-8.24 13.1-16.93 22.24-37.85 38.69-65.89 44.59-1.5.32-3.31 1.1-4.15 2.26-5.92 8.14-11.63 16.43-17.82 25.28h21.3c.16.61.33 1.22.49 1.83-4.95 1.96-9.76 4.88-14.9 5.68-11.07 1.72-16.16 10.06-22.01 17.8-.1.13.19.57.46 1.28 3.45-3.22 6.78-6.31 10.1-9.41-2.44 3.57-5.71 6.39-8.15 9.8-1.49 2.08-1.99 5.02-2.43 7.66-.76 4.57-1.2 9.2-1.63 13.82-.61 6.64-1.1 13.3-1.75 21.43 11.56 0 22.34.41 33.08-.1 15.83-.75 30.37-5.71 43.21-15.2 28.43-21.01 54.05-44.89 74.97-73.57.94-1.29 1.98-2.49 2.98-3.74.36.31.72.61 1.08.92-15.93 21.32-31.86 42.64-51.02 61.41 1.03-.01 1.79-.28 2.49-.65 24.77-13.08 48.67-27.45 71.2-44.23 20.34-15.15 33.88-34.75 41.26-58.61 5.9-19.08 10.65-38.51 16.2-57.7.73-2.53 3.16-4.57 4.8-6.84.76 2.46 2.05 4.89 2.17 7.38.4 8.13 3.81 13.89 10.21 16.29 5.98 2.24 14.15-.2 18.93-5.81 1.71-2 3.11-4.25 4.65-6.39v13c-9.07 6.77-18.64 10.69-30.31 4.63v15.06c7.8-.18 14.35 2.4 20.03 7.03 3.57 2.91 6.86 6.17 10.27 9.28v15c-3.2-4.6-6.19-9.36-9.64-13.77-5.23-6.68-12.12-10.56-20.82-11.44 0 6.2-.1 11.99.08 17.77.04 1.15.85 2.6 1.76 3.36 8.52 7.1 11.08 16.76 11.67 27.17 1.15 20.08-.97 39.98-4.76 59.62-7.57 39.18-21.66 76.18-39.92 111.52-11.35 21.96-22.25 43.93-27.16 68.41-6.21 30.98-19.36 59.08-36.52 85.34-9.37 14.35-19.59 28.15-29.57 42.09-1.98 2.76-2.15 4.95-.73 8.12 3.54 7.88 6.66 15.96 9.7 24.05 1.66 4.42 2.82 9.03 4.57 14.72 16.52-15.8 32.51-30.82 48.14-46.21 4.62-4.55 6.58-10.72 6.32-17.39-.57-14.48-1.41-28.95-1.6-43.44-.25-18.99.14-37.98 4.48-56.62 3.01-12.95 7.79-25.14 16.75-35.27 9.88-11.18 22.98-14.21 36.03-7.05 6.86 3.77 12.77 9.41 18.68 14.7 4.52 4.04 8.37 8.85 12.52 13.31v13c-4.03-4.36-8.05-8.72-12.1-13.06-4.08-4.38-7.92-9.05-12.34-13.07-16.93-15.43-36.37-12.2-47.29 7.92-7.59 13.99-11.63 29.28-12.1 45.01-.52 17.59.71 35.23 1.32 52.85.21 6.16.81 12.3 1.3 18.44.93 11.76-2.93 21.78-11.64 29.59-14.01 12.56-28.16 24.98-42.58 37.07-3.95 3.31-4.97 6.1-4.05 11.29 4.24 23.83.26 47.09-6.22 70.06-7.24 25.64-14.84 51.18-21.48 76.97-5.39 20.94-5.53 42.19-.41 63.37.39 1.63-.23 4.81-1.17 5.17-1.64.62-4.34.22-5.83-.83-11.39-8.09-19.36-19.11-25.95-31.23-9.07-16.67-13.89-34.9-19.52-52.85-3.62-11.55-8.01-22.86-12.34-35.07-1.89 1.62-2.9 2.34-3.74 3.22-15.48 16.31-28.26 34.54-38.15 54.71-2.83 5.76-8.29 9.69-9.52 16.69-1.42 8.07-2.04 15.75.59 23.61 3.96 11.84 8.02 23.66 11.48 35.64 4.12 14.25 2.92 28.34-4.97 40.98-6.74 10.79-7.5 21.27-2.49 32.7 1.26 2.89 1.28 6.32 1.86 9.5-.53.15-1.06.31-1.59.46-.69-.36-1.69-.55-2.01-1.11-6.93-12.24-12.6-25.07-4.4-38.59 10.55-17.41 10.12-34.97 3.35-53.23-2.89-7.81-5.54-15.7-8.33-23.54-3.05-8.59-3.59-17.32-.79-26.01 5.04-15.68 10.35-31.28 15.54-46.94.83-3.84 2.69-7.75 2.32-11.43-1.19-11.73-3.21-23.38-4.92-35.06-.87-5.95-1.78-11.89-2.85-18.96-3.33 4.69-5.76 8.44-8.53 11.93-1.82 2.3-1.62 4.01-.33 6.63 7.35 14.84 12.51 30.41 14.29 46.97Zm1.8-428.5v-8.21c-5.17 1.7-2.81 5.02-3.08 7.47-.02.14 1.99.51 3.05.78-.91 2.3-1.83 4.61-2.74 6.91.48.23.97.45 1.45.68 1.25-1.19 2.76-2.22 3.66-3.64.56-.89.38-2.4.12-3.54-.07-.32-1.6-.31-2.46-.44Zm-18.64 1.53c-2.53 2.74-5.11 5.47-3.08 9.74 4.53-3.13 5.57-6.5 3.24-10.1.82-2.18 1.63-4.35 2.45-6.53l-1.01-.68c-1 .72-2 1.45-2.99 2.17.71-1.27 1.32-2.61 2.14-3.8 3.19-4.65 2.46-6.48-3.85-7.97-.22 3.3-.57 6.51-.51 9.71.01.62 1.61 1.2 2.48 1.8-1 1.96-2.01 3.92-3.01 5.88.38.27.76.54 1.13.81 1.01-.35 2.02-.7 3.02-1.05Zm-169.98-29.17 2.59-3.64c-.33-.31-.65-.63-.98-.94l-12.53 8.34c.17.38.34.75.51 1.13l6.78-2.37c-.47.69-.94 1.37-1.99 2.91 5.61-1.23 10.19-2.23 14.77-3.23-3.13-1.01-5.39-5.58-9.16-2.18Zm167.28-15.56v-7.77l-1.55-.39c-4.52 5.76-9.04 11.53-14.45 18.42 3.19.67 5.2 1.1 7.21 1.52 2.72 5.63 8.57 4.91 14.24 7.55-1.22-5.37-2.09-9.61-3.19-13.78-.51-1.92-1.49-3.71-2.25-5.55Zm-62.67-216.19c-3.29 1.04-6.72 1.77-9.85 3.18-14.78 6.66-29.8 6.55-44.79 1.34-8.42-2.92-12.63-9.88-14.52-18.45-.99 5.75-.64 11.16 2.93 15.98 2.68 7.98 8.99 12.12 16.36 14.66 18.47 6.37 35.71 2.98 52.03-7.12 5.51-3.41 11.07-6.8 16.87-9.67 5.12-2.53 10.68-3.81 16.5-2.63-13.65 3.73-25.95 10.03-37.59 17.89-7.6 5.13-16.32 7.38-25.43 8.04-9.88.71-19.45-.74-28.61-4.67 10.27 10.22 22.93 9.36 36.44 7.28-8.94 7.23-20.54 6.24-40.16-3.2 1.69 1.83 2.48 3.14 3.63 3.85 9.78 6.07 20.22 10.73 31.95 8.43 13.52-2.65 26.05-7.82 36.35-17.62 4.55-4.33 9.77-8.03 14.98-11.59 4.01-2.74 8.65-3.9 14.96-3.22-6.25 2.5-11.12 4.45-15.99 6.39.14.33.28.66.42.98.86-.13 1.72-.25 2.58-.38-16.16 9.72-28.85 24.83-47.95 29.62 11.88.04 21.94-5.62 32.97-10.57-9.61 12.78-22.99 14.14-36.54 15.4 6.62 2.13 13 4.72 20 1.16 13.06-6.64 24.39-15.46 34.68-25.83 3.63-3.66 8.15-6.44 12.26-9.62.33.43.66.86.99 1.28-14.47 10.44-23.37 27.26-40.6 34.61 18.46-2.24 30.71-15.06 44.86-25.24-2.85 4.1-5.69 8.2-8.54 12.3.25.2.51.39.76.59 3.1-2.89 6.19-5.79 10.19-9.52-5.54 12.94-15.95 17.89-27.64 21.47 4.21 4.07 8.02 3.78 11.17.4 7.33-7.88 14.38-16.01 21.46-24.12 1.72-1.97 3.1-4.24 4.64-6.38-1.79 5.06-2.96 10.47-5.56 15.07-2.76 4.89-6.89 9.01-11 14.19 11-5.87 16.89-15.13 22.78-24.54-.68 11.9-7.47 20.26-15.91 27.73 11.77-6.53 18.24-17.08 23.27-29.56-5.03-1.02-9.37-1.9-13.7-2.78-6.48-4.83-12.8-9.6-16.54-17.33-1.16-2.4-5.93-4.39-8.98-4.3-10.13.3-20.1 2.08-28.84 7.91-1.81 1.2-3.76 2.19-5.64 3.28-.2-.37-.4-.75-.6-1.12 4.85-2.76 9.7-5.52 14.55-8.27l-.21-.72c-5.21 1.78-10.42 3.56-15.62 5.34l.23.02ZM355.16 315c-.75-1.69-1.08-3.86-2.34-4.98-4.93-4.37-10.88-5.28-16.62-4.42-2.87 6.24-5.52 12-8.7 18.92 4.21-2.47 7.86-4.68 11.58-6.77 3.57-2.01 7.2-3.89 10.8-5.83.3.53.59 1.07.89 1.6-5.02 3.27-10.05 6.53-15.07 9.8.16.39.31.78.47 1.16 2.21-.7 4.42-1.4 6.64-2.09.02.88-.12 2.47.1 2.52 1.24.29 2.85.72 3.8.17 3.81-2.19 7.42-4.72 11.51-7.39-1.22-1.07-2.15-1.88-3.07-2.69Zm281.05 83.83c-2.95 4.59-5.57 9.44-8.98 13.65-1.88 2.32-5.11 4.98-7.67 4.91-2.57-.07-6.01-2.8-7.37-5.29-2.01-3.67-2.5-8.17-3.65-12.31l-1.61.24c-.06 11.43 2.95 22.46 5.49 34.9 10.17-11.57 19.52-22.22 29.44-33.51-2.38-.38-1.7-5.45-5.69-2.31 2.17-2.72 1.41-5.01-.8-7.21-7.11 4.67-7.52 5.62-5.86 13.26 2.25-2.13 4.47-4.23 6.7-6.33M297.5 277.26l.12.05c-2.87-7.58-9.67-7.31-16.05-8.56-3.8-.74-7.72-2.69-10.7-5.17-2.18-1.81-2.92-5.35-4.33-8.19-.75.11-1.72.25-2.69.39l.13.11c.36-.34.67-.79 1.1-.99 3.74-1.73 3.83-4.32 2.29-7.76-1.75-3.91-4.17-1.98-6.59-1.2-2.15.69-4.33 1.3-6.5 1.94-.09-.32-.19-.63-.28-.95l11.86-4.09c-3.15-1.69-5-2.68-6.38-3.42-.19-1.16-.3-3.35-.61-3.38-2.82-.27-5.68-.16-9.34-.16 3.71-1.58 6.86-2.92 10-4.27 1.23 1.65 2.24 3.54 3.74 4.9 5.28 4.77 9.2 9.82 7.78 17.72-1.02 5.69 2.47 10.33 8.33 10.92 9.17.92 17.77 2.18 22.8 11.37 1.05 1.92 3.08 2.85 5.92 1.33 11.74-6.31 25.9.83 27.95 14.04.55 3.53.08 7.21.08 11.17 10.94-1.06 19.93 1.06 23.43 12.93 2.27-1.3 4.2-2.04 5.68-3.31 5.3-4.56 10.43-9.31 15.65-13.97 8.09-7.22 16.15-8.51 25.75-3.85 9.2 4.46 13.68 12.18 13.27 22.18-.43 10.46-3.45 20.31-9.64 28.98-1 1.4-1.91 2.87-3.16 4.75 10.13 1.62 19.69 5.69 28.01-2.84.56-.58 1.5-.77 2.11-1.31 2.38-2.12 4.7-4.31 7.85-7.22-9.28-2.22-16.83-4.02-24.39-5.82.07-.48.15-.97.22-1.45 4.19.48 8.42.77 12.57 1.5 6.89 1.21 13.42 1.49 20.59-.1 16.4-3.64 32.82-2.61 48.16 5.28 5.86 3.01 10.89 7.12 14.2 13.02-1.1-.14-1.99-.54-2.68-1.16-11.94-10.68-26.1-15.68-41.93-16.38-7.54-.33-15.16-.48-21.82 3.64-2.14 1.32-4.28 4.04-4.59 6.37-.17 1.27 3.38 3.29 5.52 4.49 1.54.86 3.52.92 5.31 1.3 18.25 3.95 28.5 13.9 32.1 36.48 1.75 10.98 2.08 22.33 5.04 32.96 6.93 24.85 9.26 50.15 8.29 75.66-.73 19.14-1.27 38.07.17 57.3 2.71 36.11 1.48 72.26-6.11 107.94-1.57 7.36-2.1 14.93 1.56 22 .6 1.16 2.07 1.88 3.13 2.8.95-1.22 2.68-2.4 2.73-3.66.2-4.79-.48-9.62-.19-14.4.34-5.55.45-11.38 2.3-16.49 2.33-6.44 3.65-12.72 3.18-19.49-1.15-16.62-2.96-33.23-3.16-49.86-.34-28.31.14-56.63.71-84.94.34-16.64 1.44-33.27 2.39-49.9.16-2.8 1.32-5.53 2.02-8.3.69-.1 1.39-.19 2.08-.29 1.28 2.85 2.93 5.59 3.78 8.55 7.91 27.62 7.99 55.96 7.14 84.3-.79 26.19-1.22 52.36 2.41 78.34 3.7 26.5 4.91 53 3.9 79.74-.8 21.29-.92 42.65-.24 63.94.68 21.13 2.7 42.22 4.2 63.32.8 11.28 1.74 22.55 2.61 33.82.47-.02.95-.03 1.42-.05-.64-27.92-1.27-55.85-1.91-83.77.91 8.26 1.98 16.53 2.15 24.83.75 36.15 1.58 72.3 1.69 108.45.06 19.12-.86 38.23-5.2 57.09-2.83 12.3-4.29 24.94-5.81 37.5-1.14 9.45-1.24 19.03 2.54 28.08 3.26 7.8 10.97 9.09 15.36 1.93 3.35-5.46 5.1-12.13 6.53-18.49 1-4.45.11-9.29.29-13.95.25-6.55 2.19-8.26 8.52-10.12 2.12-.62 4.42-3.04 5.2-5.17.97-2.66 1.03-5.98.47-8.82-1.66-8.49-3.36-17.01-5.85-25.28-9.86-32.67-17.02-65.81-17.53-100.07-.83-55.13-2.34-110.28-1.8-165.41.46-46.12 3.57-92.21 5.26-138.33 1.1-30.2 4.39-60.1 10.33-89.74 5.92-29.51 9.93-59.1 4.63-89.29-.97-5.52.82-11.52 1.34-17.3l1.7.16c-.14 2.16-.29 4.33-.43 6.49.53.18 1.05.36 1.58.55 2.97-6.22 6.53-12.23 8.74-18.7 2.4-7.01 7.93-10.87 12.75-15.61 2.94-2.9 5.27.02 7.9.18 7.63.46 11.37 2.46 13.59 9.71 2.27 7.45 4 15.12 5.25 22.81 2.44 14.97.13 29.88-1.13 44.82-.49 5.79.99 11.8 2.05 17.62.23 1.26 2.58 3 3.9 2.96 1.3-.04 3.29-1.88 3.63-3.27.7-2.84.83-5.92.6-8.86-.36-4.64-1.25-9.23-1.83-13.86-3.07-24.55.47-48.89 2.64-73.25.52-5.83 1.68-12.21 4.61-17.1 6.38-10.68 13.77-20.81 21.33-30.72 9.87-12.94 19.46-26.26 32.81-36.02 3.46-2.53 6.29-4.82 3.89-9.85-2.16.79-4.39 2.42-6.4 2.18-5.12-.62-6.48 2.28-7.13 6.26-.7 4.29-2.54 7.39-7.13 8.55-6.35 1.61-8.57 6.71-9.88 12.47-.35 1.55-1 3.04-1.51 4.56-.31-.1-.61-.2-.92-.3-.15-1.46-.31-2.92-.46-4.37-.48-.21-.97-.41-1.45-.62-1.83 3.7-4.14 7.25-5.38 11.14-2 6.25-4.78 11.59-10.78 14.91-6.14 3.4-8.35 9.09-8.63 15.8-.08 2.02-.42 4.04-.65 6.06l-1.16-.1v-10.83c-1.82 1.49-3.09 3.07-3.71 4.87-2.86 8.3-4.19 16.74-2.5 25.55.82 4.27 2.14 8.79-1.46 12.7-.35.39.04 1.48.12 2.24.27 2.66.55 5.32.83 7.97-1.63-4.57-2.48-9.16-2.84-13.79-.67-8.62-1.96-17.32-1.34-25.87.74-10.23 3.85-19.81 13.81-25.66 6.83-4.01 10.91-10.28 13.14-18.08.98-3.43 3.94-6.35 6.27-9.3 2.13-2.71 4.46-5.31 6.98-7.64 2.48-2.29 5.09-5.37 8.08-5.98 4.24-.86 5.74-2.85 5.91-6.58.26-5.41 3.05-8.66 8.24-9.79 5-1.09 10-2.27 15.06-2.91 5.68-.72 8.77 1.37 10.36 6.96.74 2.6.51 5.48.75 8.67 1.03-.54 2.4-.88 3.2-1.74 4.33-4.69 4.52-11.95.4-16.97-5.23-6.36-12.31-9.19-20.28-9.08-7.23.11-14.52 2.16-21.66 1.61-18.74-1.45-37.43-3.65-56.08-6-4.49-.57-9.35-2.04-12.98-4.6-4.93-3.48-8.8-2.61-13.72-.42-18.93 8.41-38.43 14.98-59.33 16.37-8.25.55-8.46.76-7.7 8.86.54 5.72-1.5 9.9-6.5 12.95-8.04 4.89-16.68 7.32-26.91 7.41 2-.57 3.21-.85 4.38-1.26 7.05-2.43 14.21-4.6 21.09-7.45 5.36-2.21 6.75-5.1 6.21-8.54-5.28 3.18-10.66 7.06-16.57 9.85-13.58 6.4-28.18 5.83-42.68 5.04-5.29-.29-9.52-3.26-12.3-7.67-2.51-3.99-5.54-4.85-10.05-4.14-5.58.87-11.3.78-17.77 1.15 8.95-5.82 19.41-1.63 27.4-7.84-2.51-1.28-5.73-3.24-7.39-2.33-9.53 5.21-19.92 5.3-30.22 6.29-5.35.52-10.66 1.78-16.02 1.95-9.46.29-18.97-.45-28.41.06-12.97.7-25.91 2.55-38.76-.89-8.29-2.22-16.46-1.48-24.67.65-9.82 2.55-19.72 4.78-29.57 7.2-2.51.62-4.96 1.43-7.47 2.18-1.16-.88-2.44-2.63-3.45-2.49-7.41 1.02-14.78 2.42-22.77 3.82 8.77 8.34 13.2 19.11 17.45 30.16 1.92 5 6.26 9.42 11.97 10.3 3.85.59 7.05 2.34 9.8 4.27 4.95 3.47 9.1 8.07 14.1 12.69 4.63-2.64 10.04-5.72 15.92-9.07-1.96-1.69-3.43-2.94-4.89-4.2Zm66.05 442c-25.82 49.96-53.61 103.75-81.41 157.54.36.29.72.57 1.08.86 6.16-3.27 12.7-5.99 18.36-9.97 4.62-3.24 9.17-7.4 12.01-12.19a161.4 161.4 0 0 0 12.49-26.08c23.16-62.26 53.6-120.81 89.4-176.66 1.17-1.83 2.37-3.65 3.98-6.13q-13.34 3.17-15.81.79c1.69-.88 3.34-1.66 4.9-2.57 14.65-8.47 28.59-17.84 38.54-31.94 13.94-19.76 11.91-40.77 5.1-62.99-4.01 5.29-5.43 11.57-11.78 13.89 1.86-8.07 8.15-14.5 8.95-24.36-5.84 5.69-9.67 11.72-16.87 13.53.42-1.7 1.29-2.98 2.21-4.22 2.68-3.61 5.7-7.02 8.02-10.84 15.73-25.98 33.31-50.65 52.31-74.33 1.2-1.5 1.78-3.87 1.83-5.85.09-3.82-7.29-11.07-11.59-11.6-4.79-.59-9.62-1.26-14.42-1.23-2.16.01-4.83 1.1-6.38 2.61-7.05 6.84-13.85 13.94-20.62 21.06-15.24 16.06-30.41 32.2-45.61 48.29-1.04 1.1-2.18 2.1-3.27 3.14l-1.13-.8c1.96-4.17 3.92-8.34 5.89-12.51l-1.32-.66c-3.47 2.83-6.94 5.66-10.41 8.48l-.51-.96c14.29-24.67 28.58-49.34 42.89-74.05-16.12-3.68-31.79-7.26-47.94-10.95-8.05 10.74-16.52 21.87-24.78 33.14-8.12 11.08-15.06 23.05-23.73 33.71-.68-.41-1.37-.81-2.05-1.22 2.19-4.77 4.39-9.54 6.58-14.31-.3-.1-.59-.2-.89-.29-3.17 3.58-6.34 7.16-10.05 11.34-.34-1.66-.55-2.03-.45-2.25 8.67-18.19 13.22-37.64 17.44-57.19 1.75-8.11 5.35-15.08 10.38-21.82 7.83-10.5 14.46-21.89 21.7-32.84 2.64-4 5.36-7.99 8.4-11.68 5.92-7.19 12.55-13.84 18.03-21.34 5.28-7.22 9.31-15.3 10.24-25.74-2.51 3.23-4.14 5.71-6.16 7.82-3.32 3.47-7.38 6.68-12.31 4.91-9.07-3.25-16.77-8.95-24.01-15.42-14.92 8.74-27.9 20.11-40.68 35.98-6.06 7.52-11.58 15.51-17.94 22.77-14.09 16.09-22.21 34.86-27.26 55.43-3.61 14.68-8.42 29.08-12.88 43.55-.7 2.28-2.38 4.27-3.6 6.39-.79-.26-1.59-.52-2.38-.78.54-3.55.76-7.19 1.69-10.64 3.17-11.9 6.64-23.71 9.87-35.59.51-1.88.96-4.08.5-5.89-2.45-9.5-5.02-18.97-7.95-28.33-1.31-4.19-2.45-9.23-8.79-8.68-.24.02-.55-.73-1.01-1.36 2.69-2.43 5.8-4.48 7.91-7.28 7.95-10.53 15.04-21.58 18.81-34.44.47-1.6 1.64-3.85 2.94-4.22 10.01-2.86 17.34-9.69 24.91-16.19 8.32-7.15 12.9-16.45 14.85-27.06.96-5.19.23-10.17-3.89-14.78.69 11.33-3.09 18.44-11.86 22.42-11.98 5.43-18.29-3.8-25.75-10.36-9.28 4.51-18.69 8.78-27.78 13.65-3.69 1.98-7.51 4.69-9.83 8.06-12.17 17.69-23.92 35.66-35.68 53.62-1.68 2.57-2.59 5.65-4.05 8.91 6.79 2.35 13.07 4.52 19.34 6.69-7.6 2.61-13.6-.9-19.69-4.41.02 9.82-3.4 10.88 8.77 13.69 3.6.83 7.13 1.98 10.69 2.99-.16.65-.33 1.29-.49 1.94-5.9-1.34-11.8-2.68-18.22-4.14 3.05 8.38 6.04 16.79 9.17 25.16 6.08 16.25 11.72 32.57 13.03 50.11.25 3.32 2.51 6.78 4.59 9.63 6.37 8.72 13.11 17.17 19.69 25.74 1.14 1.49 2.19 3.04 3.57 4.95 1.01-5.77 1.87-10.69 2.74-15.61l1.89.15c0 8.94-.18 18.49 6.97 24.58 6.56 5.57 14.7 9.28 22.15 13.81.03.28.05.56.08.84l-24.19-3.72c.48 1 1.06 2.29 1.72 3.54 5.08 9.55 10.34 19.01 15.22 28.66 4.04 8 6.93 16.65 11.58 24.25 8.37 13.7 19.69 24.75 33.87 32.56 7.73 4.25 15.61 8.21 23.41 12.33 1.57.83 3.07 1.81 4.6 2.72-36.32-6.81-61.01-28.22-76.69-61.34-1.05 1.39-1.66 2.14-2.22 2.93-26.03 37.34-57.1 69.84-93.48 97.21-7.98 6.01-15.78 12.52-24.53 17.16-5.78 3.06-8.74 7.26-11.13 12.58-7.12 15.82-11.67 32.48-12.18 49.72-1.61 53.93 17.7 98.89 59.33 133.77 1.31 1.1 3.16 1.97 4.84 2.15 23.68 2.51 46.49-1.29 68.52-10.02 2.06-.82 4.19-2.77 5.2-4.76 11.82-23.13 23.5-46.33 35.1-69.58 15.62-31.31 32.29-62.02 49.34-87.54Zm-243.64-25.87c-4.05 1.46-8.44 3.42-13.02 4.61-12.11 3.16-18.61 11.57-22.28 22.85-.52 1.58-1.15 3.14-1.56 4.75-8.86 35.23-16.83 70.64-20.74 106.83-1.12 10.33-.03 20.49 5.13 29.6 8.94 15.79 18.28 31.34 27.63 46.89 10.01 16.65 24.62 26.69 43.8 30.19 27.8 5.07 54.39 14.19 80.8 24.07 14.74 5.52 30.19 8.24 46.11 7.03 14.35-1.09 26.41-6.66 33.52-19.5 7.32-13.22 13.57-27.02 20.16-40.63 1.26-2.61 1.92-5.5 3.24-9.41-14.88 8.55-29.33 14.6-45.37 16.4 3.27-2.83 6.92-4.77 10.72-6.38 16.27-6.86 31.36-15.46 43.45-28.67 7.51-8.21 11.88-17.65 11.69-28.89-.13-7.66-.49-15.31-.88-22.96-.19-3.64-.67-7.27-1.02-10.91-.66-.04-1.32-.08-1.98-.11-1.03 5.63-2.6 11.23-2.97 16.9-.79 12.14-4.6 22.9-15.01 29.61-11.42 7.36-23.23 14.37-35.55 20.05-22.01 10.14-45.09 16.33-69.75 13.84-.31-.03-.68.45-1.82 1.26 10.28 5.96 19.97 11.78 29.84 17.26 10.04 5.57 20.88 8.11 32.66 6.3.09.82.19 1.63.28 2.45-2.84 1.07-5.6 2.77-8.52 3.08-10.24 1.08-20.03-1.51-28.98-6.11-49.34-25.36-86.85-60.61-101.17-116.88-9.85-38.69-5.93-74.86 12.91-109.73 4.11-7.61 9.39-14.05 17-18.52 4.55-2.68 8.74-5.96 13.09-8.98-4.32-1.55-8.52-1.87-12.71-2.35-12.12-1.37-21.89 2.79-29.45 12.3-3.32 4.17-6.73 8.27-9.93 12.53-13.59 18.09-19.34 39.3-23.73 60.94-4.88 24.05-6.73 48.04.53 72.18 6.51 21.66 17.52 40.94 29.21 59.99.85 1.39 1.61 2.84 2.42 4.27-.36.21-.72.41-1.08.62-3.96-5.51-8.09-10.9-11.84-16.54-15.76-23.65-27.66-48.92-27.87-77.92-.16-22.52 2.09-45.02 9.06-66.6 3.9-12.09 9.25-23.71 14-35.68Zm665.16-384.18c-.44-.59-.89-1.17-1.33-1.76-6.08 4.94-13.11 9.07-18.08 14.94-28.17 33.28-60.04 62.29-96.76 85.87-1.31.84-2.73 1.5-4.09 2.25 36.62-25.97 69.51-55.86 98.66-89.98-3.89 1.89-7.73 3.93-10.89 6.72-18.09 15.96-35.7 32.49-54.12 48.06-13.27 11.21-27.54 21.24-41.21 31.67 3.62 3.92 7.99 7.67 11.08 12.28 3.08 4.61 5.58 9.9 7.03 15.24 1.37 5.08 2.35 10.76-1.76 15.79-2.85-9.14-2.71-19.16-10.27-26.41-7.04-6.75-13.57-14.04-20.49-21.27-10.13 11.43-19.44 21.83-28.56 32.39-.81.94-.97 3.27-.41 4.46 5.67 12.01 11.54 23.93 17.41 35.85 1.2 2.44 2.88 2.71 5.69 1.85 12.92-3.99 25.5-4.94 35.86 6.28 14.58-7.89 26.63-2.83 37.76 7.7 6.03-4.47 11.91-8.8 17.75-13.18 27.98-20.98 56.4-41.42 81.19-66.32 25.62-25.73 46.37-54.54 56.96-89.76 5.2-17.27 7.32-34.54 3.14-52.65-5.15-22.3-6.85-45.1-5.28-68.03.21-3.14.47-6.27.7-9.41-1.2 1.33-1.7 2.82-2.12 4.33-2.27 8.18-4.38 16.4-6.81 24.54-8.39 28.15-22.24 52.77-46.59 70.3-10.93 7.87-20.47 16.87-29.5 27.06-26.75 30.2-56.72 57.2-87.81 82.91-1.32 1.09-2.78 2.02-4.17 3.03 33.06-30.97 66.82-61.04 97.03-94.75Zm-59.45 577.88c-.23-2.03-.26-2.84-.42-3.63-2.86-14.56-3.3-29.35-.13-43.71 5.13-23.22 11.03-46.3 17.57-69.16 6.11-21.34 12.45-42.53 13.28-64.9.88-23.76-6.04-45.79-15.75-66.99-7.4-16.18-16.16-31.75-23.58-47.92-6.31-13.75-11.23-28.13-17.47-41.91-2.58-5.7-6.97-10.59-10.54-15.85-.64.28-1.27.56-1.91.83.37 2.5.91 4.98 1.08 7.49.47 6.9.78 13.82 1.16 20.73.18 3.33-.45 7 .73 9.94 8.72 21.79 18.07 43.33 26.7 65.15 7.51 19 13.61 38.57 11.11 59.33-2.46 20.48-6.07 40.82-9.23 61.21-.26 1.65-1 3.23-1.52 4.85-1.16-2.23-1.4-4.29-1.12-6.28 1.32-9.4 2.89-18.76 4.19-28.16 3.09-22.4 5.32-44.98-2.31-66.8-6.53-18.66-14.65-36.76-22.09-55.1-.13-.31-.57-.5-1.42-1.2.37 1.95.51 3.25.87 4.49 12.02 41.56 18.43 83.84 17.16 127.22-.4 13.87 1 27.62 5.65 40.87.45 1.29.06 2.88.06 4.32-.5.13-1.01.26-1.51.4-.8-1.27-1.88-2.45-2.34-3.84-1.09-3.31-2.44-6.68-2.71-10.1-1.14-14.59-2.42-29.2-2.73-43.82-.43-20.36-1.37-40.56-5.91-60.54-6.23-27.42-11.93-54.97-17.83-82.47-.64-3-1.16-6.02-1.88-9.76-4.42 4.69-8.93 8.3-6.79 15.02.39 1.22.1 2.65.12 3.98.29 23.42-5.48 45.83-11.07 68.33-3.57 14.36-6.72 28.89-8.77 43.53-3.12 22.28 4.92 42.36 14.59 61.78 10.27 20.64 18.66 41.89 24.54 64.25 5.55 21.1 14.35 40.81 30.2 58.39Zm-542.36 73.63c-.05-.47-.1-.94-.14-1.41-8.44-2.42-16.86-4.88-25.31-7.23-13.3-3.7-26.65-7.24-39.93-11.03-6.93-1.98-12.53-6.17-17.08-11.69-16.39-19.86-30.52-41.21-41.8-64.39-4.79-9.84-6.36-20.31-5.3-31.14 3.27-33.75 10-66.84 19.1-99.48.27-.95.31-1.97.55-3.56-19.36 20.75-32.09 44.8-43.67 69.61-.74-.87-.9-1.36-.84-1.82.23-1.65.49-3.3.84-4.92 2.8-13.05 8.2-25.07 15.81-35.91 8.5-12.12 17.81-23.67 26.65-35.55 3.92-5.26 7.57-10.73 11.34-16.11l-1.16-.8c-17.35 12.3-33.45 26.13-46.22 43.13C8.69 784.89 1.5 824.6 18.33 867.99c6.25 16.1 12.17 32.5 16.22 49.26 7.46 30.86 23.03 56.09 47.45 76.17 8.34 6.86 17.5 11.77 28.25 12.76 7.59.7 15.3.7 22.92.28 14.97-.83 29.9-2.98 44.86-3.09 19.82-.15 37.9-4.32 53.56-17.02 3.28-2.66 7.02-4.77 10.55-7.13-.14-.54-.27-1.08-.41-1.62-4.37 0-9.52-1.5-12.98.28-11.38 5.86-22.13 12.92-33.15 19.48-2.62 1.56-5.37 2.92-8.05 4.37-.26-.43-.51-.85-.77-1.28 11.44-10.61 26.21-16.39 39.36-25.29-8.84-3.65-8.63-3.32-15.46 1-13.08 8.26-26.43 16.11-39.69 24.08-1.35.81-2.93 1.25-4.4 1.86-.19-.35-.39-.7-.58-1.04 15.73-9.92 31.45-19.84 47.53-29.97-6.57-3.83-11.31-3.36-17.33.68-13.24 8.89-27.38 16.43-41.18 24.48-1.2.7-2.59 1.06-3.89 1.57-.17-.33-.34-.65-.51-.98 16.41-9.93 32.82-19.85 50.16-30.35-3.22-1.32-5.29-1.96-7.15-2.98-4.04-2.2-7.33-1.86-11.4.82-8.61 5.67-17.75 10.54-26.7 15.68-1.37.79-2.91 1.29-4.36 1.92l-.55-1.3c10.89-6.64 21.78-13.29 32.67-19.93Zm41.66-499.92c-5.17 7.55-9.3 13.96-13.82 20.08-6.45 8.75-9.51 18.5-10.12 29.29-.31 5.45-.51 11.29-2.58 16.17-4.79 11.27-9.9 22.4-18.86 31.42-24.81 24.96-45.63 52.92-61.87 84.23-6.13 11.81-15.54 20.71-26.84 27.62-5.82 3.56-11.61 7.18-17.51 10.62-14.64 8.51-18.36 22.64-20.09 38.73 10.71-8 20.31-16.34 32.84-20.37 10.55-3.39 20.4-8.97 30.95-12.32 7.3-2.32 13.12-5.32 17.52-11.83 6.3-9.31 15.28-14.98 26.81-15.01 6.95-.02 14.23-.04 20.76 1.94 6.33 1.92 10.22.02 14.66-3.68 30.44-25.39 57.04-54.5 82.47-84.76 1.91-2.27 2.15-4.13.78-6.69-5.88-11.01-11.25-22.32-17.54-33.08-8.39-14.35-16.97-28.65-26.44-42.29-4.9-7.06-8.55-14.15-9.77-22.57-.28-1.96-.7-3.9-1.36-7.5Zm398.53 124.17c-.28.68-.53 1.12-.64 1.59-6.46 29.16-18.56 56.2-31.31 82.99-2.36 4.96-4.95 9.81-7.66 14.59-.49.86-2.08 1.08-3.17 1.6.03-1.17-.28-2.5.15-3.5 8.82-20.47 18-40.8 26.52-61.4 4.87-11.77 8.7-23.96 13-35.96-1.27.36-1.9 1.04-2.37 1.82-5.32 8.84-10.6 17.71-15.92 26.56-9.57 15.91-18.56 32.22-21.54 50.74-2.46 15.25-3.37 30.75-4.76 46.16-1.09 12.1-1.76 24.23-2.81 36.33-.19 2.2-1.34 4.32-2.05 6.48l-1.68-.42c.19-3.21.53-6.42.56-9.63.14-16.99.04-33.99.34-50.98.44-24.45 6.55-47.53 18.74-68.69 8.31-14.41 17.69-28.2 26.56-42.29.67-1.07 1.85-2.53 1.56-3.39-1.92-5.68-4.18-11.25-6.14-16.34-9.18 10.96-18.59 22.16-27.97 33.38-7.26 8.69-14.98 17.05-21.61 26.2-9.83 13.58-15.69 28.39-15.3 45.94 1.16 51.96 1.38 103.94 1.98 155.92.01.9.24 1.79.55 3.92 4.61-5.62 8.73-10.16 12.31-15.08 17.43-23.98 35.03-47.85 51.91-72.21 6.68-9.64 12.72-20.01 17.18-30.82 6.23-15.1 5.46-31.29 3.83-47.34-2.14-21.17-6.95-42.29-3.27-63.64 1.16-6.77-1.42-9.79-6.99-12.53M280.92 293.02c-4.43-7.04-11.52-9.67-18.2-13.46-12.46-7.07-28.16-4.03-39.2-14.46 4 1.03 7.77 3.06 11.76 3.72 4.29.72 8.78.16 12.58.16-3.11-13.51-11.4-23.18-25.89-27.27l1.15-1.54c3.87 1.19 7.73 2.39 11.6 3.58.14-.28.28-.57.42-.85-5.38-3.97-10.76-7.95-16.15-11.92.08-.22.17-.45.25-.67 2.74 1.15 5.49 2.29 8.23 3.44l.75-1.23c-4.42-2.98-8.46-7.14-13.34-8.72-17.26-5.62-34.69-4.92-50.93 3.32-4.88 2.47-9.55 7.92-11.52 13.07-5.76 15.01-5.03 29.97 6.67 42.31 12.71 13.4 25.77 26.5 39.23 39.13 8.08 7.58 17.22 14.01 25.84 20.91 8.05-10.67 15.27-21.07 23.35-30.73 8.58-10.25 22.01-12.64 33.39-18.79Zm521.67 186.59c-31.06 26.19-65.94 44.7-106.49 52.46 2.29 3.16 4.33 5.97 6.37 8.77.29.4.51 1.01.9 1.17 1.38.57 2.87 1.49 4.24 1.37 31.43-2.77 61.17-11.12 88.79-26.69 3.82-2.15 5.98-4.52 6.9-8.81 5.45-25.57 14.51-49.84 26.89-72.87 12.65-23.54 22.66-48.2 31.05-73.54.38-1.14.56-2.35.83-3.52-1.39.83-2.17 1.89-2.85 3.01-14.37 23.84-32 45.03-52.15 64.19-24.6 23.38-51.94 43.27-79.51 62.88-8.01 5.7-16.1 11.29-23.87 17.3-6.94 5.37-11.78 12.36-14.65 22.33 12.66-3.59 23.17-9.18 33.63-14.72 10.44-5.53 20.69-11.45 30.82-17.53 10.05-6.03 19.85-12.48 29.76-18.75a357 357 0 0 1-66.97 44.94c31.39-8.63 59.31-24.35 86.3-41.99ZM361.2 412.38c43.19 15.77 87.3 22.37 131.8 26.18 1.24-8.55-3.83-13.06-8.09-18.05 1.29.7 2.57 1.4 2.94 1.6-1.01-10.11-1.58-20.7-3.29-31.1a84.1 84.1 0 0 0-6.08-20.29c-3.85-8.66-10.8-13.35-20.84-11.85-3.45.52-6.89 1.08-10.35 1.57-5.73.8-11.49 2.28-17.21 2.17-8.51-.17-16.99-1.47-26.58-2.4 1.57-1 3.38-2.15 5.2-3.31-.31-.51-.63-1.02-.94-1.53-2.09.96-4.56 1.49-6.2 2.95-4.47 3.98-8.7 8.25-12.83 12.58-9.38 9.85-13.43 21.18-9.29 34.7.4 1.29.5 2.68.73 4.02l-1.75.54c-1.21-3.45-2.42-6.91-3.86-11.02-.51 2.62-.89 4.53-1.32 6.78-1.03-.69-1.76-1.19-2.63-1.78-.62 2.03-1.2 3.93-2.11 6.92-.91-2.41-1.4-3.7-2.09-5.52-1.69 2.23-3.14 4.14-5.22 6.87Zm279.61 145.65c.46-.2.93-.4 1.39-.59 1.01 1.59 2.2 3.08 2.99 4.77 3.52 7.53 6.81 15.16 10.4 22.65 2.03 4.22 5.85 5.65 10.37 5.53 2.92-.08 4.24-1.1 3.48-4.35-1.34-5.74.13-10.79 4.13-15.23 1.88-2.08 3.38-4.55 4.76-7.01 3.12-5.55 3.37-11.17.93-17.24-1.27-3.17-1.95-7.16-1.27-10.44 3.01-14.52 10.97-26.26 21.88-36.11 1.53-1.38 3.09-2.74 4.94-4.37-8.81-7.66-17.98-10.07-28.38-6.47-9.39 3.24-14.95 11.02-21.74 17.68-11.61 11.38-9.93 23.85-6.26 37.2.34 1.25.44 2.56.8 4.76-15.16-14.19-7.16-51.28 12.99-65.26-17.98-7.04-36.7 2.31-41.33 21.9-4.4 18.6-4.75 37.74-1.54 56.6 2.52 14.8 14.63 24.21 27.14 23.61-4.29-8.43-9.06-17.11-13.18-26.1-6.91-15.06-8.79-23.52-6.73-28.45 2.37 6.43 4.62 12.51 7.01 19 .54-1.08.77-1.55 1.38-2.77 2 4.93 3.67 9.05 5.62 13.87-1.5-.58-2.2-.85-3.63-1.4 2.77 6.34 5.24 12.01 7.72 17.68.31-.15.63-.31.94-.46-1.61-6.33-3.21-12.66-4.82-18.99Zm-79.07 48.27c6.74-7.65 13.34-14.91 19.61-22.46 1.06-1.27 1.47-4.04.85-5.6-9.34-23.71-13.04-48.17-9.77-73.49.61-4.74-.15-8.76-2.06-12.95-8.34-18.31-8.97-36.82-2.12-55.86 3.37-9.36 5.21-19.26 8.06-28.82 3.09-10.35 6.47-20.63 9.92-30.87.76-2.25 2.35-4.22 3.93-6.95-10 46.75-.2 88.1 25.91 126.7 4.19-5.21 7.7-9.57 11.31-14.05-1.03-1.48-1.99-2.82-2.92-4.18-8.6-12.62-15.36-26.16-19.13-40.98-6.23-24.55-9.07-49.42-6.1-74.76.14-1.17-.55-3.05-1.46-3.61-3.33-2.06-6.92-3.7-10.53-5.56-5.63 9.69-11.19 18.96-16.39 28.42-1.2 2.18-1.51 5-1.68 7.57-.7 10.62-.43 21.35-1.91 31.85-3.31 23.57-8.44 46.92-10.98 70.56-3.15 29.29-4.43 58.78-6.47 88.19-.09 1.28-.02 2.75.52 3.86 3.69 7.63 7.52 15.18 11.41 22.98Zm235.34-80.98c-27.49 14.72-56.69 23.15-87.46 26.66 7.73 24.5 18.87 46.89 31.89 68.99 21.06-30.68 42.85-60.44 55.58-95.65ZM583.81 392.74c-.88 2.57-1.45 3.88-1.78 5.24-3.77 15.69-7.4 31.41-11.26 47.07-2.66 10.8-2.4 21.36 1.13 31.97 5.16 15.53 13.08 29.56 23.32 42.16 4.5 5.53 10.3 9.99 15.52 14.94.5-.31.99-.61 1.49-.92v-21.77c-25.49-19.77-31.99-47.87-33-78.32 2.78 28.43 10.81 54.46 33.62 74.58 2.1-4.56 2.25-7.81-.67-11.28-2.99-3.54-5.6-7.48-7.88-11.52-11.35-20.06-16.93-41.88-19.05-64.65-.81-8.68-.93-17.42-1.43-27.52Zm-21.6-199.39c-2.63-7.7-5.19-15.18-7.9-23.08-2.42.77-4.65.91-6.03 2.07-1.47 1.24-2.13 3.43-2.63 4.32-2.78-1.72-4.86-3.51-7.26-4.4-8.73-3.22-17.55-6.18-26.36-9.16-3.02-1.02-6.12-1.81-10.87-3.19 2.33 14.94 4.46 28.99 6.76 43.02.56 3.4 3.03 2.12 5.09 1.58 3.66-.95 7.29-2.41 11-2.68 12.85-.95 25.35-3.27 38.21-8.47Zm18.3-20.34c-.29.56-.58 1.12-.87 1.67 1.8 2.27 3.13 5.46 5.47 6.65 7.76 3.94 15.63 8.03 23.93 10.42 8.61 2.49 17.74 3.43 26.71 4.38 7.25.77 14.62.34 21.91.82 8.03.53 13.28-4.39 19.65-8.64-11.45-3.31-22.06-6.36-32.66-9.44-4.7-1.36-9.39-2.73-14.05-4.21-.9-.29-1.56-1.44-2.45-1.61-8-1.48-16.01-2.94-24.05-4.12-1.27-.19-2.72 1.13-4.14 1.57-2.84.9-5.66 2.06-8.58 2.4-3.58.42-7.25.1-10.88.1ZM294.89 368.67c.56 4.36 1.12 8.72 1.81 14.13 14.25-17.45 27.74-33.96 41.61-50.95-3.17-.8-6.08-1.33-8.85-2.27-4.36-1.48-7.54-.28-11.25 2.53-7.37 5.58-15.47 10.19-23.15 15.38-1.64 1.11-3.48 2.8-3.97 4.57-2.28 8.37-7.82 15.89-6.78 25.16.09.8-.45 1.66-1.08 3.77-.91-2.88-1.41-4.43-2.11-6.65-1.79 2.77-3.2 4.93-4.89 7.53 4.02 2.39 7.61 4.77 11.44 6.67 1.52.75 3.56.44 5.37.61.12-1.97.83-4.15.24-5.88-1.79-5.16-1.16-9.94 1.6-14.6Zm78.55-53.65c6.44 4.03 12.59 7.94 18.81 11.74 4.77 2.91 7.33 2.08 13.74-4.15 5.58-5.43 7.38-10.38 5.2-14.35-.16-.29-.29-.61-.51-.86-3.91-4.47-8.28-8.39-14.41-9.14-2.48-.3-5.92-.28-7.53 1.16-5.54 4.94-10.46 10.56-15.3 15.6m250.25 522.7c.34-.48.77-.91 1.01-1.43 10.19-22.07 22.88-42.45 40.14-59.79.88-.88 1.3-3.17.81-4.3-2.4-5.46-5.19-10.75-8.23-16.89-13.6 26.97-25.96 53.69-33.73 82.41m14.88-202.94c8.82-8.74 17.55-17.4 26.28-26.06l.87.84c-1.14 1.33-2.25 2.69-3.43 3.99-6.81 7.51-13.51 15.14-20.52 22.46-3.83 4-3.15 8.06-1.84 12.49 8.88-8.98 17.51-17.7 26.11-26.46.54-.55 1.04-1.37 1.14-2.11.99-7.34 1.9-14.69 2.84-22.13-5.74-.09-9.26 1.88-12.28 5.74-4.81 6.14-10.04 11.98-15.35 17.71-3.63 3.92-5.73 8.03-3.82 13.53M377.23 425.72c-7.17-2.53-14.11-4.97-21.47-7.57l-12.48 49.41c.26 0 .52.01.79.02 10.92-13.79 21.85-27.57 33.17-41.86Zm35.67 61.45c.42.27.83.54 1.25.81 14.45-15.03 28.9-30.07 43.13-44.87-4.67-.69-10.19-1.77-15.76-2.18-1.56-.12-3.97 1.29-4.78 2.69-5.67 9.77-11.05 19.71-16.47 29.63-2.52 4.6-4.91 9.28-7.36 13.92Zm332.21-154.94c-.48-.56-.97-1.11-1.45-1.67-5.96 4.13-12.14 7.98-17.83 12.44-20.28 15.91-40.34 32.09-60.59 48.04-4.63 3.65-9.69 6.76-14.5 10.09 2.51 4.32 4.84 4.72 8.56 1.74 15.16-12.21 30.74-23.89 45.78-36.22 13.61-11.16 26.71-22.92 40.04-34.41Zm-453.88-36.5c1.89 1.47 3.65 2.91 5.48 4.26 9.87 7.27 18.32 5.97 25.59-3.89 2.81-3.81 2.16-9.28-1.56-13.15-3.3-3.43-6.83-3.74-11.08-.71-6.05 4.32-12.01 8.78-18.42 13.48Zm302.88 257.66c.35.25.7.5 1.04.75-2.54 3.78-5.03 7.61-7.64 11.34-2.65 3.79-2.51 6.18 1.03 10.41 6.46-7.9 13.14-15.56 19.21-23.66 5.28-7.04 5.85-12.91-4.68-16.19-5.62 6.61-11.03 13.35-16.89 19.69-2.63 2.84-3.38 5.37-1.33 9.12 3.17-3.92 6.21-7.69 9.26-11.46m-6.38-230.74c-1.86 2.43-3.42 3.94-4.33 5.77-3.01 6.09-5.77 12.3-8.63 18.47-.41.88-.58 2.14-1.27 2.59-7.69 5.03-7.73 12.21-5.39 21.43 10.2-16.74 20.56-33.75 30.81-50.57-1.56.13-4.06.33-7.71.63-.57 1.07-1.77 3.31-3.48 6.49v-4.8Zm-88.24-109.49c-1.39 2.85-1.73 5-2.96 5.8-2.92 1.9-6.26 3.16-9.43 4.67-.15-.33-.3-.65-.45-.98.47-.74.93-1.47 2.04-3.21-2.18.87-3.95 1.01-4.34 1.82-2.23 4.66-5.94 2.74-7.71.81-3.72-4.05-7.63-2.84-11.93-2.3-4.27.53-8.61.5-12.93.6-3.58.09-7.17.02-10.75.02-.05.48-.1.96-.14 1.45.81.52 1.62 1.07 2.44 1.57 7.83 4.79 16.67 3.9 25.24 4.37 11.52.63 22.5-1.63 32.8-6.86 3.8-1.93 7.4-4.19 8.5-9.42-4.19.67-7.93 1.26-10.38 1.65Zm149.79 186.68c21.86-16.76 43.37-33.25 64.89-49.74-26.05 9.95-45.21 29.89-68.17 44.98 1.1 1.59 2.09 3.02 3.28 4.76m-15.95 374c6.16-7.58 11.5-14.35 17.07-20.93 4.07-4.8 3.55-9.54.41-14.95-5.04 6.01-9.47 12.29-14.92 17.51-5.61 5.37-4.85 10.92-2.56 18.37m14.66-70.52c-9.07 8.87-15.26 18.53-19.6 29.32-.91 2.27-.13 5.22-.13 8.95 6.87-7.74 12.81-14.42 18.7-21.13.51-.58.98-1.42.99-2.15.09-4.72.05-9.44.05-15Zm-.11 19.88c-5.16 6.14-9.52 12.02-14.6 17.18-4.63 4.7-4.84 9.57-2.64 15.56 4.83-5.26 9.02-10.9 14.26-15.28 6.07-5.06 5.4-10.51 2.98-17.47Zm170.87-566.78c-.36-.37-.72-.74-1.08-1.1-2.04 1.8-4.01 3.7-6.14 5.39-8 6.31-17.44 6.76-27.03 6.42-6.45-.23-12.89-.62-19.33-.94 5.32 2.67 10.81 5.35 16.39 5.54 9.34.3 18.78-.59 28.08-1.76 5.96-.75 9.43-5.19 11.18-10.1-4.8 3.36-9.87 6.92-14.95 10.48-.2-.31-.4-.63-.6-.94 4.49-4.33 8.98-8.65 13.47-12.98ZM665.08 625.49c-7.3 8.07-14.48 16.25-21.96 24.14-3.08 3.25-3.29 6.46-2.19 9.1 5.51-4.93 11.08-10.33 17.1-15.19 5.73-4.62 7.06-10.81 7.04-18.05Zm40.63-389.48c-.26-.7-.53-1.39-.79-2.09-2.14 0-4.44.5-6.4-.09-5.83-1.78-9.54-.7-10.07 6.08-.04.48-.8.91-1.56 1.71-.9-1.74-1.62-3.12-2.93-5.66-3.95 5.02-7.56 9.6-11.16 14.18.52.66 1.05 1.31 1.57 1.97 10.45-5.36 20.9-10.73 31.34-16.09Zm-53.1 358.36c-4.8 9.31-17.81 13.46-14.82 27.69 7.65-8.23 14.78-15.91 22.06-23.74-2.19-1.19-4.32-2.36-7.24-3.96Zm29.88-230.56c-7.31 1.09-12.62 2.92-17.32 7.19-6 5.45-12.57 10.29-19.14 15.07-3.05 2.22-3.48 4-.36 6.89 11.94-9.45 23.85-18.88 36.82-29.15M574.72 93.38c-5.65 4.81-12.25 10.44-19.27 16.41h21.37c-.68-5.32-1.45-11.32-2.1-16.41m-286.49 303.5c-5.93-3.58-11.44-6.91-16.61-10.04 3.56 8.93 7.13 17.86 10.55 26.44 1.8-4.87 3.9-10.56 6.06-16.4m261.81 200.65c-.4.09-.81.17-1.21.26l-1.61 27.95c3.62-3.74 6.38-7.61 8.92-11.62.61-.97 1.03-2.65.6-3.57-2.06-4.42-4.43-8.69-6.7-13.01Zm46.22-68.08c-4.27 5.35-7.89 10.31-11.97 14.84-2.82 3.12-3.26 6.18-1.47 10.43 6.19-7.18 12.17-14.11 18.29-21.19-1.65-1.39-3.13-2.64-4.84-4.07Zm62.83 117.16c-4.76 4.84-9.38 9.81-14.32 14.45-2.93 2.75-3.61 5.55-1.71 10.01 5.54-8.55 16.56-12.24 16.04-24.46Zm-3.74 16.3c-5.62 6.41-15.83 10.23-12.07 21.86 9.06-7.06 11.41-11.16 12.07-21.86M583.1 107.58c2.29-9.33 4.63-18.85 6.92-28.18-9.24 3.6-13.56 21.25-6.92 28.18m56.35 599.7c9.58-5.62 10.51-14.67 11.24-23.9-9.43 5.3-9.35 14.9-11.24 23.9m63.13-516.65c-10.91-4.69-22.33-3.04-26.93 3.67 9.73 3.75 17.7-4.49 26.93-3.67m-60.45 195.23c7.55-6.04 14.78-11.82 22.76-18.22-8.32.84-15.58 5.11-24.67 14 .56 1.24 1.15 2.54 1.91 4.22m-61.08 157.37c4.65-5.58 8.84-10.62 13.17-15.81-1.24-1.43-2.31-2.65-4.18-4.81-2.12 7.57-12.16 10.35-8.99 20.63Zm56.69 63.92c4.27-4.51 7.9-8.32 11.5-12.16.41-.44.66-1.02 1.06-1.66-11.72-1.2-12.52-.36-12.56 13.82m-25.8-443.96c4.14.94 7.74 1.76 11.62 2.65-1.51-5.55-2.82-10.36-4.14-15.2-2.3 3.86-4.63 7.78-7.48 12.55m33.79 8.66c-4.53-9.72-8.54-18.33-12.45-26.71 1.4 9.57 1.3 20.08 12.45 26.71m54.03 56.62c-.44-8.84-1.77-10.06-9.08-8.67-.23 2.09-.47 4.25-.69 6.2zm-51.5 281.71c5.19-6.89 10.17-13.49 15.08-20.01-6.46.62-12.96 9.04-15.08 20.01m-62.51 7.85c-7.21 7.88-7.38 8.31-5.38 13.67 2.81-3.44 5.5-6.75 8.34-10.22-1.06-1.24-2-2.33-2.96-3.45m53.69-139.28c4.27-3.45 8.23-6.65 12.58-10.17-9.31-.14-15.1 4.45-12.58 10.17m-11.11 16c6.68-5.26 7.62-6.86 3.66-10.34-4.02 2.45-6.69 5.4-3.66 10.34m13.8 374.02c-8.61 6.56-9.32 8.07-6.95 15.11 2.37-5.15 4.51-9.8 6.95-15.11M902.14 51c-5.48 6.5-11.64 12.56-16.23 19.64-4.23 6.53-6.78 14.15-10.16 21.51-5.87-.09-16.23-13.34-17.66-24.76 5.52 7.08 10.21 13.1 14.9 19.12.69-.44 1.37-.88 2.06-1.32-6.09-8.91-15.43-16.16-16.5-28.97l16.54 21.23c3.85-5.84 3.73-7.58-1.06-11.97.83 2.14 1.37 3.51 1.9 4.87-5.39-2.58-9.17-6.72-11.88-11.81-2.14-4.02-5.45-7.42-2.17-13.04 1.73-2.96.21-7.8.22-11.8 0-1.89.18-3.78.28-5.66l1.31-.12c.66 2.75 1.32 5.49 1.98 8.25-.48 9.38 3.42 16.85 10.1 24.19-3.63-8.69-6.87-16.45-10.1-24.21 2.04 2.85 4.08 5.7 6.14 8.52 3.5 5.49 6.98 11 10.84 17.12 1.61-2.82 2.89-5.06 4.16-7.29-4.62-4.26-8.98-8.29-13.37-12.34-.46.73-1.06 1.7-1.67 2.67-1.02-4.18-2.13-8.35-3.02-12.56-.52-2.45-3.17-5.16.47-7.38 3.27 9.67 9.58 16.98 17.83 22.97-.08-2.41-.35-4.93-1.72-6.42-5.21-5.66-10.79-10.99-16.23-16.44-3.32-8.33-6.64-16.67-9.96-25h6c1.19 1.66 2.38 3.32 3.58 4.98 2.43 5.64 4.38 11.56 7.4 16.86 5.66 9.94 12.57 18.48 26.02 16.16v3c-4.2.8-8.39 1.6-12.97 2.47.15 2.1.37 5.28.59 8.47 4.44-3.21 8.41-6.07 12.37-8.94v8Z" class="cls-1"/><path d="M588.14 0c8.37 3.63 15.97 8.25 21.33 15.74l-.58 1.53c-2.43-.5-4.86-1-7.29-1.52-10.54-2.25-20.98-5.32-31.64-6.47-6.38-.69-13.16 1.27-19.62 2.69-5.21 1.15-9.66 1.77-13.28-3.35-1.54-2.17-4.09-3.62-6.18-5.4.25-.46.51-.93.76-1.39 2.16.83 4.56 1.3 6.44 2.55 3.34 2.23 6.4 2.16 9.77.28 3.02-1.68 6.18-3.12 9.28-4.67h31ZM902.14 82c-3 4.92-6.35 9.67-8.79 14.84-.81 1.72.16 4.85 1.25 6.82 7.43 13.44 6.51 19.51-4.73 30.18-2.39 2.27-4.14 5.2-6.5 7.51-.98.96-2.78 1.08-4.21 1.59-.45-1.33-1.5-2.82-1.2-3.96.52-2.01 1.58-4.04 2.94-5.63 1.93-2.26 4.29-4.15 6.51-6.16 7.32-6.61 8.5-11.86 3.41-20.2-3.67-6.02-3.78-11.51.13-17.17 3.67-5.31 7.45-10.55 11.18-15.82v8ZM902.14 727c-2.28 2.37-4.64 4.67-6.82 7.14-28.58 32.36-61.96 59.45-95.22 86.67-8.21 6.72-16.52 13.32-25.54 19.15 1.65-1.4 3.31-2.78 4.94-4.2 29.52-25.69 59.29-51.1 88.41-77.24 11.11-9.98 20.7-21.64 31-32.52 1.01-1.06 2.15-2 3.23-2.99v4ZM902.14 914c-11.46 4.46-22.77 9.4-34.42 13.29-28.71 9.58-57.57 18.68-86.38 27.96-.76.24-1.57.3-2.74-.45 1.81-.73 3.59-1.53 5.43-2.19 38.09-13.55 76.19-27.08 114.3-40.6 1.23-.44 2.54-.68 3.81-1.01zM902.14 5v21c-11.72-7.36-23.55-14.6-32-26h9c3.02 4.73 7.89 6.25 13.77 8.14-3.08-3.22-5.42-5.68-7.77-8.14h9c2.67 1.67 5.33 3.33 8 5M868.58 4.95c8.52 7.11 17.02 14.26 25.59 21.3 2.53 2.07 5.31 3.84 7.97 5.75v5c-13.37-8.4-24.82-18.81-33.57-32.05ZM768.14 0c4.43 6.8 9 13.51 13.19 20.45 1.25 2.07 1.44 4.78 2.32 7.92L763.14 0zM718.14 0c-3.97 5.59-7.94 11.19-11.91 16.78l-1.02-.27c1.78-4.52 3.55-9.05 5.8-14.77-2.75 2.95-4.74 5.09-6.74 7.23-.3-.26-.59-.52-.89-.78 2.25-2.73 4.5-5.46 6.75-8.18h8ZM902.14 933l-13.29 4.71-.72-1.52c4.67-2.4 9.34-4.79 14.01-7.19zM902.14 141c-2.56 3.02-5.12 6.04-7.47 8.82-.82-5.08 1.36-9.01 7.47-12.82zM673.14 0c-2.98 4.56-5.97 9.12-8.95 13.67-.31-.15-.62-.31-.94-.46 1.96-4.4 3.93-8.81 5.89-13.21zM650.6 961.05c67.23-11.02 131.71-32.68 197.24-50.21.51-.14 1.14.17 1.97.31-13.37 12.46-180.47 54.81-199.21 49.9M423.83 792.26c18.12 52.78 43.96 101.05 82.66 141.82-41.88-38.87-67.3-87.4-82.66-141.82M429.56 946.87c-23.1-51.45-35.7-105.62-41.94-161.43 9.48 54.97 21.56 109.28 41.94 161.43M655.06 863.79c-2.05 4.23-3.36 9.08-6.29 12.56-6.16 7.32-17.31 4.63-19.3-4.71-.95-4.43-.34-9.65 1.07-14.03 2.02-6.29 8.58-9.94 13.47-8.83 5.66 1.28 10.16 7.81 11.05 15Zm-5.26-1.58c-.24-.13-.48-.26-.72-.38-.19-1.14-.02-2.54-.62-3.38-1.55-2.17-3.19-5.35-5.26-5.77-1.98-.4-5.22 1.66-6.74 3.57-3.56 4.45-3.81 9.89-2.08 15.19 1.72 5.24 7.25 6.36 10.41 1.88 2.3-3.26 3.39-7.37 5.02-11.1ZM577.65 1059.08c.84-2.99 1.3-6.16 2.59-8.94 2.01-4.3 7.26-4.97 9.44-.83 2.04 3.87 3 8.65 3.13 13.06.12 4.08-2.65 7.12-7.29 7.19-4.11.06-6.86-2.99-7.32-7.86-.08-.82-.01-1.65-.01-2.48-.18-.05-.36-.09-.54-.14m12.56.46c-.12-.96.03-2.1-.43-2.89-1.35-2.33-2.95-4.52-4.45-6.77-1.28 2.27-2.65 4.49-3.79 6.83-.41.84-.38 1.96-.34 2.94.13 3.04.32 6.75 4.13 6.81 3.92.05 4.65-3.54 4.88-6.92M494.44 976.77c1.28-3.04 2.58-7.12 4.73-10.68.77-1.27 3.62-1.28 5.52-1.86.4 1.69 1.04 3.36 1.15 5.07.2 2.94.18 5.91.06 8.85-.09 2.13-.06 4.46-.93 6.31-.72 1.53-2.7 3.48-4.07 3.44-1.66-.05-3.87-1.64-4.76-3.19-1.08-1.88-1.02-4.41-1.69-7.95Zm5.97 7.99 1.92.12c.47-6.02.94-12.04 1.46-18.76-6.03 4.24-7.33 13.51-3.38 18.64M510.87 750.19c-.2 1.28-.29 2.28-.51 3.24-.83 3.59-2.13 7.16-6.67 6.42-4.59-.75-4.6-4.69-4.15-8.24.28-2.27.87-4.66 1.97-6.63.87-1.54 2.76-3.5 4.16-3.47 1.39.03 3.1 2.1 4 3.66.87 1.5.88 3.5 1.21 5.02Zm-6.3-6.05c-.73 3.26-1.63 6.49-2.06 9.79-.12.93 1.12 2.05 1.74 3.08.97-.74 2.39-1.29 2.83-2.27 1.63-3.63 1.56-7.23-2.5-10.6ZM571.62 1030.43c-2.65 2.34-4.3 3.8-5.96 5.27-1.39-1.94-3.81-3.85-3.85-5.82-.04-1.75 2.56-3.55 3.99-5.33 1.64 1.66 3.28 3.32 5.82 5.88M490.31 804.69c2.48-2.57 4.11-4.25 5.73-5.93 1.19 1.71 3.42 3.49 3.31 5.12-.12 1.94-2.24 3.75-3.5 5.62-1.52-1.32-3.05-2.64-5.55-4.81ZM478.05 121.01c1.26.39 2.71.5 3.74 1.22 16.13 11.25 32.79 12.49 50.15 2.93 4.06-2.24 8.28-4.19 12.43-6.27l-.23-.02c-.12.61-.03 1.47-.4 1.81-11.05 10.22-23.64 15.08-39.06 12.97-10.48-1.43-19.18-5.43-26.63-12.65ZM762.37 183.11c-9.2-4.67-16.91-11.04-22.08-20.39 8.43 7.02 16.86 14.04 25.3 21.08-.64-.23-1.38-.49-2.11-.75l-1.1.06ZM789.22 36.9c-6.19 8.65-14.47 10.19-22.92 5.51-19.83-10.98-40.96-15.44-63.54-12.99-1.39.15-2.9-.71-4.35-1.1.98-1.18 1.73-2.74 2.97-3.49 10.79-6.54 22.53-6.39 34.39-4.31 13.51 2.37 25.89 7.18 36.18 16.79 1.63 1.53 5.15 1.51 7.76 1.39 3.19-.15 6.35-1.16 9.52-1.8ZM774.5 54.16c-22.34 16.68-56.78 12.17-72.55-15.23 1.69 1.03 3.47 1.94 5.06 3.12 14.86 11.03 31.08 17.92 50.01 16.06 4.25-.42 8.41-1.76 12.61-2.71 1.63-.37 3.25-.82 4.87-1.24M701.31 265.24c-1.77-1.3-3.6-2.64-5.43-3.98 5.19 2.98 10.47 1.76 15.94 1.27 7.35-.67 10.08 2.37 10.29 9.79.14 5.02.76 9.6 4.3 13.85 1.95 2.35 2.28 6.44 2.42 9.78.14 3.48-2.15 6.01-5.77 6.39-3.76.4-6.79-1.54-7.46-5.15-.74-4-.59-8.21-.44-12.32.14-4.03-1.31-6.09-5.47-6.69-9.7-1.38-10.96-3.45-8.38-12.95Zm13.13 7.26c.5 1.59.95 2.97 1.37 4.35.97 3.23 2.12 6.43 2.83 9.72.58 2.71.41 5.58 1.03 8.28.27 1.19 1.67 2.12 2.55 3.17.97-1.16 2.47-2.21 2.78-3.53.34-1.47.11-3.62-.79-4.71-4.3-5.22-4.81-11.4-5.64-17.7-.27-2.07-2.64-5.37-4.21-5.47-3.34-.21-6.79 1.29-10.13 2.31-.09.03.14 3.21 1.03 3.96 3.24 2.72 6.64 1.95 9.18-.39ZM789.68 46.99c9.45-1.98 31.75 6.12 38.88 14.25-13.39-4.91-25.69-9.41-38.88-14.25M784.88 53.5c9.31-2.33 28.12 10.73 32.65 22.64-9.01-9.96-19.75-17.43-32.65-22.64M853.86 86.62c.77.59 1.62 1.1 2.29 1.79 4.47 4.6 8.91 9.23 13.95 14.46-7.44-.32-13.86-1.73-20.07-6.24 4.29-3.59 6.89 1.32 10.14 1.02-2.56-3.34-5.12-6.68-7.68-10.03l1.38-1.02ZM855.93 76.91c5.82 6.57 11.64 13.15 17.68 19.97-7.93 1.16-16.23-7.8-17.68-19.97M822.7 39.65c-9.14 4.85-18.89 5.1-28.81 4.15-.09-.69-.18-1.38-.28-2.07l28.85-3.81c.08.58.15 1.15.23 1.73ZM675.87 158.94c-10.04-8.39-15.27-18.67-17.5-30.68 5.7 10 11.41 20.01 17.5 30.68M639.62 114.74c-3.95 3.26-7.3 6.03-11.18 9.23.17-1.55.23-2.14.18-1.68-4.48.71-9.1 1.45-13.72 2.19-.04-.24-.08-.47-.11-.71 7.91-2.88 15.82-5.75 24.83-9.02ZM749.34 239.75c-2.25-3.86-3.73-6.42-5.77-9.91 2.21.89 3.6 1.46 5.04 2.04 1.43-4.49 2.91-9.11 4.38-13.73l1.04.3c-1.48 6.72-2.96 13.45-4.69 21.31ZM663.02 129.25c3.73 4.9 7.47 9.8 11.2 14.7-.51.39-1.03.78-1.54 1.16-3.69-4.9-7.38-9.8-11.08-14.7.47-.39.94-.78 1.41-1.16ZM685.57 174.38l-14.15-12.74c.33-.37.66-.74 1-1.11 4.71 4.25 9.43 8.5 14.14 12.75l-1 1.1ZM647.38 74.74c-3.74-2.32-7.49-4.65-11.23-6.97.37-.58.74-1.17 1.11-1.75 3.66 2.47 7.31 4.94 10.97 7.41zM681.73 149.16c-3.86-5.04-7.72-10.08-11.58-15.13l1.07-.83c3.84 5.04 7.68 10.07 11.52 15.11-.34.28-.67.56-1.01.84ZM804.22 611.26c-5.67 9.29-13.21 17.04-20.78 24.76l-1.72-1.4c6.9-8.25 13.8-16.49 20.7-24.74.6.46 1.2.91 1.8 1.37ZM542.84 23.18c15.83 16.22 32.43 10.74 49.18 1.59.08.48.15.96.23 1.44l-9.39 5.1c.1.27.21.55.31.82 4.72-1.65 9.44-3.29 14.39-5.01-3.83 6.39-17.1 11.57-28.36 11.38-11.4-.19-20.57-4.38-26.36-15.31ZM536.14 16.55c-5.09 2.01-9.7 3.83-15.32 6.04 5.4-7.19 9.38-8.72 15.32-6.04M343.3 641.8c-21.81-1.82-50.39-28.56-53.4-50.09 12.91 21.93 30 39.38 53.4 50.09M445.83 579.46c3.88 21.56-16.78 52.77-36.02 54.45 20.94-12.28 34.28-29.52 36.02-54.45M300.37 813.9c-11.77 24.64-26.75 47.3-43.05 69.11-.41-.26-.83-.53-1.24-.79zM347.86 553.87c-9.13 3.86-18.43 2.19-22.72-3.74-3.62-5.01-3.74-10.75-.31-14.94.15.26 22.1 18.2 23.03 18.67ZM270.46 448.33c-.97-12.82-2-26.61-2.96-39.37 5.74 4.86 7.89 31.01 2.96 39.37M384.35 553.66c.77 10.74 9.6 8.01 15.7 9.86-3.14 4.01-9.15 4.8-13.06 2.15-4.24-2.87-5.57-7.27-2.64-12.01M293.5 412.84l26.18 13.59c-10.74-.7-19.7-4.86-26.18-13.59M300.95 401.6c7.62 3.34 15.27 6.7 23.05 10.11-6.31 2.8-20.26-3.46-23.05-10.11M322.49 419.74c-11.23.12-22.63-5.79-24.65-11.89 7.73 3.73 15.93 7.69 24.65 11.89M386.52 434.64c7.53-.39 19.55 7.52 20.86 14.03-7.14-4.81-13.81-9.29-20.86-14.03M384.36 438.2l20.36 13.25c-.43.67-.87 1.34-1.3 2.01-6.78-4.42-13.56-8.85-20.34-13.27l1.29-1.98ZM355.52 333c6.69-.74 18.19 7.11 20.3 13.81zM350.08 337.62c9.72.86 15.53 6.24 20.45 13.12-6.49-4.16-12.97-8.33-20.45-13.12M459.41 495.35c-6.93-1.89-10.36-7.88-14.95-12.52.32-.38.64-.76.95-1.14 4.95 4.15 9.9 8.29 14.85 12.44-.28.41-.57.82-.85 1.23ZM213.44 388.81c6.68 1.6 13.36 3.21 20.04 4.81l-.3 1.25c-7.1.28-13.83-1.08-20.1-4.44zM397.18 456.08c-6.4-4.09-12.79-8.18-19.19-12.27l1.08-1.71c6.4 4.09 12.79 8.17 19.19 12.26-.36.57-.72 1.15-1.08 1.72M270.09 328.04l-15.03-10.56.89-1.31c6.42 1.47 10.83 5.94 14.14 11.87M260.34 312.94c6.85.72 11.59 4.37 14.54 10.54-4.85-3.51-9.69-7.03-14.54-10.54M451.43 477.54c3.48 3.08 6.96 6.17 10.44 9.25-5.74-.39-8.91-3.89-11.33-8.3l.9-.96ZM521.6 264.3c7.89 1.81 16.1 2.78 23.61 5.59 17.24 6.44 20.07 26.72 5.71 38.46-10.65 8.7-23.22 12.42-36.71 12.16-10.78-.2-21.63-1.1-32.28-2.8-5.01-.8-10.06-3.56-14.27-6.58-7.33-5.27-10.65-16.83-7.33-25.16 1.24-3.11 4.26-5.98 7.18-7.85 12.24-7.85 26.32-9.98 40.36-11.94 4.44-.62 8.96-.67 13.44-.98.09-.3.18-.6.28-.9Zm-16.69 44.05c.05-.23.11-.46.16-.7 3.65-.25 7.33-.29 10.94-.8 11.31-1.59 22.29-4.02 30.68-12.74 9.51-9.87 8.29-15.5-4.65-20.01-24.52-8.54-47.92-3.25-70.64 6.6-10.39 4.51-10.5 12.38-.79 18.43 3.21 2 6.76 3.81 10.4 4.67 7.89 1.87 15.93 3.07 23.91 4.54ZM357.56 224.26c9.7 1.34 19.48 2.31 29.08 4.17 4.44.86 8.91 2.91 12.73 5.4 10.83 7.07 10.75 22.27-.16 29.25-8.98 5.74-19.08 8.6-29.7 9.2-15.83.89-31.6.46-46.87-4.39-3.36-1.07-6.74-3.05-9.33-5.45-9.03-8.36-7.78-20.47 2.65-26.88 12.7-7.81 26.75-10.64 41.59-11.3Zm-2.18 35.38c.02-.24.03-.49.05-.73 4.16 0 8.32.1 12.47-.02 10.74-.32 20.7-3.08 29.25-9.87 6.27-4.98 6.04-9.05-.75-13.1-1.98-1.18-4.14-2.21-6.35-2.85-17.75-5.08-35.8-6.46-53.67-1.5-7.65 2.12-14.99 6.19-21.73 10.52-4.52 2.9-3.84 7.35 1.01 9.91 4.34 2.29 9.14 4.21 13.96 5 8.5 1.4 17.17 1.81 25.77 2.64Zm6.79 3.9q-13.09-.81-12.7 3.05c12.11 1.06 12.91.87 12.7-3.05m18.59-.2c-.37-.61-.74-1.23-1.11-1.84-3.23.59-6.46 1.17-9.69 1.76 0 .72-.01 1.43-.02 2.15 2.42.15 4.87.59 7.23.32 1.27-.15 2.39-1.55 3.58-2.39Zm17.88-8.84c-.52-.54-1.04-1.08-1.56-1.63-1.71 3.28-7.43 2.65-7.83 7.2.4.42.81.83 1.21 1.25 2.72-2.28 5.45-4.55 8.17-6.83ZM631.65 217.53c-1.82.86-3.64 1.73-5.46 2.59-.27-.33-.54-.65-.8-.98.57-.9 1.13-1.8 2-3.16-1.64.55-2.91.98-4.27 1.43-.39-6.04-2.37-7.06-7.91-8.6-5.62-1.56-11.44.27-17.13-2.51-2.57-1.26-7.28 1.59-10.91 2.88-2.98 1.05-5.8 2.55-8.69 3.85-.31-.84-.61-1.69-.92-2.53 7.1-2.38 14.18-4.86 21.34-7.05 1.03-.32 2.5 1.12 3.73 1.06 5.37-.26 10.73-.69 16.08-1.27 1.45-.15 2.82-1.02 4.22-1.56.18.43.37.85.55 1.28-2.23 1.15-4.47 2.3-6.7 3.45 0 .26 0 .51-.01.77h5.99c7.27.04 13.66 3.58 15.21 8.41 2.24 7.01.08 13.91-7 17.97-5.24 3-11.17 5.38-17.09 6.52-14.96 2.89-29.87 2.04-44.14-3.84-9.09-3.75-11.92-12.68-7.13-21.32 5.79-10.45 17.69-16.03 28.92-13.58-19.56 4.34-30.95 14.4-25.81 24.54.2-2.35.3-3.56.4-4.77.25.08.67.08.78.27 2.75 4.34 7.15 5.96 11.83 6.59 14.5 1.94 28.94 1.5 42.95-3.03 3.88-1.25 7.3-3.92 10.93-5.94-.32-.48-.63-.96-.95-1.45Zm-36.79 15.16c-5.6-.51-10.97-.99-16.34-1.48-.03.46-.05.92-.08 1.39 5.49 2.94 14.72 3.28 16.42.09m1.64 2.08q12.33.36 13.72-2.86c-4.7 1.53-9.92-.95-13.72 2.86m39.6-13.6c-.38-.4-.77-.8-1.15-1.19-3.32 2.84-6.64 5.67-9.97 8.51l1.33 1.43 9.79-8.74Zm-15 10.21c-.28-.69-.56-1.38-.83-2.07l-9.45 2.88c.26.73.52 1.46.77 2.19zM531.99 566.01c-.57-7.88-1.45-15.75-1.63-23.63-.5-20.99-.22-42-1.18-62.96-.7-15.27-2.87-30.48-4.39-45.72-.14-1.41-.31-2.82.27-4.28 8.97 45.12 7.91 90.85 6.94 136.59ZM631.29 255.69c-4.5 1.78-9.34 3.01-13.39 5.52-3.86 2.39-6.91 6.1-10.31 9.23.32.39.65.77.97 1.16-1.24 0-2.5.16-3.7-.04-1.97-.32-4.55-.29-5.66-1.51-.87-.96-.39-3.78.31-5.43 3.19-7.5 19.71-15.3 27.49-13.07 1.48.42 2.78 1.48 4.17 2.24.05.63.09 1.27.14 1.9Zm-29.09 13.77c2.52-1.54 4.62-2.33 6.06-3.78 4.13-4.17 8.28-8.1 14.35-9.26 1.59-.3 3.09-1.09 5.55-2-11.65-3.19-25.57 4.58-25.95 15.04ZM426.26 286.6c1.65.18 3.33.21 4.95.56 5.02 1.08 8.51 5.85 7.85 10.58-.56 4.05-4.57 6.83-9.73 6.7-5.69-.15-10.24-2.79-13.93-6.87-2.63-2.91-2.15-6.21 1-8.12 2.86-1.73 6.38-2.36 9.6-3.47.09.21.18.42.26.62m-.44 2.61c-.15-.31-.3-.61-.44-.92-2.81 1.45-5.62 2.9-8.44 4.34 1.89 2.25 3.75 4.54 5.69 6.74.41.46 1.2.97 1.72.89 3.1-.51 6.29-.89 9.19-2 .88-.33 1.72-3.74 1.22-4.18-2.21-1.94-4.9-3.33-7.46-4.84-.37-.22-.98-.03-1.47-.03ZM497.1 348.33c6.95.91 11.59 5.44 15.83 10.37 8.52 9.92 11.73 21.8 12.13 34.58.16 5.31.03 10.63-1.05 16.1-.22-24.35-2.8-47.33-26.9-61.06ZM546.09 477.04c3.11-21.07 6.23-42.14 9.34-63.22.65.09 1.29.18 1.94.28l-9.27 63.23c-.67-.1-1.34-.19-2.01-.29M542.87 430.74c3.47-17.57 4.74-35.27 2.88-53.13 4.03 17.99 3.01 35.7-2.88 53.13M525.74 261.31c6-8.43 24.08-7.89 29.42-2.2-2.12 0-4.65.75-6.29-.14-5.76-3.11-11.21-1.18-16.75.21-2.17.54-4.25 1.41-6.38 2.13M426.2 259.09c-3.35-.27-6.69-.55-9.65-.79 4.1-4.1 9.51-3.24 13.47 2.75-5.09 5.96-12.34 5.52-18.97 6.91l-.48-1.26c5.16-1.94 10.31-3.88 15.47-5.83l.15-1.79ZM491.85 239.93l-2.77 3.73-26.31-4.54c.05-.45.11-.91.16-1.36 9.28.7 18.57 1.39 28.92 2.17" class="cls-1"/><path d="M585.94 224.21c3.1.37 5.42.66 7.74.94l-.24 1.52c-3.96 1.88-7.72.69-10.79-1.82-1.03-.84-.77-3.64-.48-5.44.08-.5 2.41-.64 3.86-.01.89-1.11 1.63-2.47 2.77-3.2.42-.27 1.79.95 2.73 1.49-.74 1.18-1.35 2.46-2.24 3.51-.9 1.06-2.07 1.89-3.36 3.03ZM606.45 311c-5.66-4.51-5.55-11.44-.11-14.56 3.19 4.27 3.3 10.08.11 14.56M525.8 340.18c-9.92-2.73-20.36-5.6-29.9-8.22 6.28-2.61 23.62 1.91 29.9 8.22M532.84 991.17c0 5.29-.02 10.57.02 15.86.01 1.49-.13 3.11.39 4.45.98 2.52 2.38 4.88 3.6 7.31 1.95-1.35 3.89-2.7 5.84-4.05.27.22.54.44.81.67-2.01 1.87-4.03 3.74-6.04 5.61-1.84-2.05-5.08-3.99-5.26-6.18-.65-7.82-.25-15.73-.25-23.6.3-.02.61-.03.91-.05ZM515.17 247.54c5.55-2.19 11.1-4.37 17.3-6.82-.2.93-.07 2.52-.73 3-4.79 3.48-10.11 5.5-16 5.49-.19-.56-.38-1.12-.57-1.67M492.43 370.09c-2.32-11.98-9.08-19.8-20.79-23.26 12.04.94 21.66 11.64 20.79 23.26M541.74 408.29c-.5-9.97-1-19.93-1.47-29.35 4.28 9.13 3.91 19.16 1.47 29.35M513.82 418.81l-3.99-21.43 1.59-.3c1.32 7.14 2.64 14.29 3.97 21.43l-1.56.3ZM554.12 363.71c-4.24-6.81-4.92-15.66-2.09-20.35.64 6.29 1.36 13.25 2.09 20.35M572.66 300.58c-.74-5.87-1.39-11-2.02-15.95 3.44 3.08 4.76 10.76 2.02 15.95M455.47 321.1c-4.35-.29-8.06-.53-11.72-.77 1.72-4.64 6.61-4.67 11.72.77M389.46 279.71c3.38-.44 6.75-1 10.14-1.2.51-.03 1.12 1.57 1.68 2.42-.75.14-1.5.4-2.26.41-3.11.05-6.21.02-9.32.02zM607.5 223.46c.1-.26.4-1.08.71-1.9.5.06 1.01.13 1.51.19-.12 1.26.08 3.46-.42 3.63-1.89.65-4.08 1.08-5.99.71-.99-.19-1.62-2.23-2.99-4.32 2.72.64 4.93 1.16 7.19 1.69ZM528.98 377.08c.3 5.74.6 11.49.91 17.23-.52.04-1.04.07-1.57.11l-.86-17.33c.51 0 1.01 0 1.52-.01M291.53 228.82l13.3-.84.23 1.89c-4.44.34-8.89.69-13.33 1.03-.07-.69-.13-1.39-.2-2.08M580.83 216.5c3.6-4.32 11.23-7.33 14.36-5.48-4.83 1.84-9.18 3.5-14.36 5.48M449.94 272.01c.68-1.9 1.13-3.95 2.18-5.61.36-.57 2.29-.34 3.43-.12.57.11 1.03 1 1.42 1.62.06.09-.83.94-.88.9-.63-.48-1.18-1.06-2.08-1.93-.75 1.98-1.44 3.82-2.14 5.66-.64-.18-1.28-.36-1.93-.53ZM562.74 959.91c3.09 6.66 2.53 12.15-.68 14.21.21-4.35.44-9.24.68-14.21" class="cls-1"/><path d="m475.06 351.83 10.38 9.54c-.34.38-.67.76-1.01 1.14-3.46-3.18-6.93-6.36-10.39-9.54zM95.14 757.58c-.46 5.34-.49 10.76-1.45 16.01-5.02 27.48-2.15 53.7 11.68 78.33.48.86.83 1.81 1.15 2.75.08.24-.14.58-.23.88-17.21-10.96-24.76-72.32-11.15-97.98ZM90.54 875.98c16.35 18.36 38.31 29.04 58.65 41.93-.27.64-.54 1.28-.8 1.92-1.61-.09-3.47.33-4.8-.34-20.12-10.06-38.55-22.41-52.87-40.13-.56-.7-.84-1.62-1.25-2.44.36-.31.72-.63 1.07-.94M814.07 315.02c-20.02 49.62-41.43 98.54-73.1 142.2 28.68-45.2 49.99-94.16 73.1-142.2M810.26 294.63c-33.55 38.42-67.66 76.24-107.12 107.25 35.24-35.28 71.18-71.27 107.12-107.25M109.23 662.88c15.9-18.69 67.82-30.17 80.8-17.53-14.02-2.54-28.19-4.83-41.82.49-13.05 5.09-25.7 11.19-38.99 17.04ZM210.84 524.91c12.63 21.46 27.36 41.33 44.42 59.41-.23.41-.47.82-.7 1.23-1.74-1.03-3.92-1.69-5.13-3.16-8.46-10.25-16.98-20.45-24.93-31.09-4.76-6.37-8.55-13.47-12.68-20.3-.98-1.62-1.59-3.46-2.38-5.2.47-.3.93-.59 1.4-.89M216.3 548.63l24.74 28.38c-.45.41-.9.81-1.35 1.22-10.64-7.3-17.53-17.99-24.67-28.46.43-.38.85-.76 1.28-1.14M152.32 269.66v-19.23c.29-.02.59-.05.88-.07v19.31h-.88ZM158.03 275.87v-15.94c.29-.02.57-.05.86-.07l.87 16.1-1.73-.08ZM168.89 287.53l-2.13-13.68 1.57-.29c.95 4.54 1.91 9.09 2.86 13.63-.76.11-1.53.23-2.29.34ZM163.43 268.29c.68 4.74 1.31 9.1 2 13.95-3.63-3.31-4.36-8.91-2-13.95M207.89 306.39c.55 4.02 1.11 8.03 1.66 12.05-.65.1-1.3.19-1.94.29l-1.83-12.1 2.12-.24ZM200.6 302.15c.55 3.82 1.09 7.64 1.64 11.46-.56.09-1.12.19-1.69.28l-1.79-11.6c.61-.05 1.23-.1 1.84-.14M222.73 326.81c-3.97-2.79-5.35-6.25-3.02-10.69 1.01 3.56 2.02 7.13 3.02 10.69M213.13 321.35l-1.56-10.88 1.66-.27 2.03 10.73-2.12.42ZM432.69 380.03c.68-6.44 4.33-10.7 10.15-13.36zM454.5 413.65l8.37 11.55c-5.36-2.05-7.67-6.42-9.58-11.1.4-.15.81-.3 1.21-.45M444.09 414.41c3.35 3.59 6.7 7.18 10.05 10.76-.4.38-.8.77-1.2 1.15l-10.23-10.68c.46-.41.93-.82 1.39-1.24ZM485.9 429.15l-9.22-6.97 1.47-1.89c2.88 2.52 5.76 5.03 8.64 7.55-.3.44-.59.88-.89 1.32ZM468.04 418.85c2.74 2.67 5.49 5.34 8.23 8.01-.42.44-.84.87-1.26 1.31-2.74-2.64-5.49-5.28-8.23-7.92.42-.47.84-.93 1.26-1.4M733.86 172.37c-2.62-2.65-5.71-4.97-7.77-8-7.8-11.49-14.58-23.75-26.31-32.01 17.63 7.67 24.88 24.63 35.44 38.62-.45.46-.91.92-1.36 1.39M289.12 383.05c-3.93-4.11-4.07-9.98 0-17.92zM263.85 255.77c-.04.85.21 2.25-.17 2.45-3.1 1.64-6.31 3.04-9.49 4.52-.25-.53-.51-1.05-.76-1.58l10.56-5.28-.14-.12ZM297.51 277.25c-4.82 2.3-9.65 4.61-14.47 6.91-.18-.39-.35-.79-.53-1.18 4.5-3.1 9.29-5.53 15.1-5.69.02 0-.1-.05-.1-.05ZM598.07 347.09l9.15-12.18zM525.38 283.17c-2.99-2.22-5.99-4.44-9.32-6.91 5.59-1.71 10.75-3.38 15.72.86.69.59 1.82.71 2.77.95 6.45 1.58 9.92 5.47 8.84 9.94-1.44 6-6.62 8.33-14.03 6.14.35-1.87.71-3.77 1.17-6.2h9.87c1.82-2.66.58-5.03-2.06-6.28-2.46-1.16-4.9-4.57-8.24-.94-1.13 1.22-3.21 1.57-4.86 2.31l.15.14ZM497.16 300.94c6.1-1.2 12.14-5.04 18.31.63.86.79 4.48-.62 6.21-1.87 1.13-.81 1.14-3.17 1.73-5.1 2.64 1 5.87 2.22 9.05 3.41-3.42 5.4-28.2 8.09-35.3 2.93M473.21 289.86c1.8-6.16 5.67-9.42 9.99-8.81 1.65.23 4.16 1.69 4.37 2.9.24 1.43-1.33 4.29-2.61 4.62-3.6.94-7.46.9-11.74 1.29Zm3.67-3.76c.24.58.48 1.15.72 1.73 2.98.05 5.95.06 6.24-5.2-2.32 1.16-4.65 2.31-6.97 3.47ZM503.33 277.37c2.56 2.77 1.21 4.61-1.74 5.11-1.91.32-4.6.02-5.94-1.15-3.43-3-6.81-3.58-10.84-1.34l-.25-1.27c5.15-1.37 10.26-2.92 15.47-3.95.92-.18 2.27 1.78 3.42 2.73-2.35-.37-4.69-.74-7.04-1.1-.2.58-.4 1.16-.61 1.73 1.44.91 2.89 2.53 4.32 2.51 1.08-.02 2.13-2.12 3.2-3.29Z" class="cls-1"/><path d="M525.23 283.03c.86 1.08 1.71 2.17 2.78 3.53-2.96.58-5.86 1.14-9.21 1.8 1.12-3.42 2.8-5.55 6.57-5.19zM488.11 292.6c3.59.19.48-7.79 6.5-5.29-1.71 2.72-1.57 6.81-6.5 5.29M348.43 237.55c-3.48-.3-6.95-.61-11.41-1 2.52 6.07 5.96 4.8 9.76 3.79-.2.75-.35 1.24-.45 1.74-.5 2.41-.4 6.52-1.58 6.93-4.76 1.64-9.89 2.41-14.93 2.89-1.55.15-4.42-1.37-4.69-2.57-.57-2.5-.77-6.86.59-7.71 5.02-3.15 9.59-7.98 16.17-7.57 2.36.15 4.64 1.64 6.95 2.53-.13.32-.27.64-.4.96Zm-22.03 11.49c2.42.52 4.12 1.29 5.74 1.14 3.46-.33 6.89-1.05 10.26-1.92.31-.08.61-2.92 0-3.48-3.6-3.31-10.46-1.69-15.99 4.26Zm11.5-7.09c-3.61-3.79-7.49-2.94-9.97 2 3.28-.66 6.33-1.27 9.97-2M374.5 251.14c3.09-6.37 7.56-7.89 13.31-4.78-1.78 5.72-6.48 7.51-13.31 4.78M376.33 240.7c-.22-.06-1.13-.05-1.72-.49-1.9-1.42-3.68-3-5.51-4.52 2.36-.59 4.73-1.19 7.23-1.82z" class="cls-1"/></svg>